<svg xmlns="http://www.w3.org/2000/svg" width="1920" height="85" viewBox="0 0 1920 85" version="1.1">
	<path d="M 0.667 0.667 C 0.300 1.033, -0 16.558, -0 35.167 L 0 69 2.259 69 C 3.502 69, 5.081 68.100, 5.768 67 C 7.220 64.674, 9.209 64.291, 8.362 66.500 C 7.616 68.443, 8.525 68.394, 12.069 66.300 C 14.841 64.663, 15.031 64.681, 17.287 66.800 C 20.383 69.709, 21.157 69.575, 20.467 66.250 L 19.896 63.500 21.416 66.127 C 23.071 68.989, 26.027 69.943, 30.982 69.216 C 33.425 68.857, 34.060 68.338, 33.706 66.985 C 33.453 66.015, 33.640 64.609, 34.123 63.861 C 34.853 62.727, 35.158 62.746, 35.947 63.974 C 36.550 64.911, 36.537 65.668, 35.912 66.055 C 35.371 66.389, 36.684 67.188, 38.830 67.831 C 43.538 69.242, 46 69.323, 46 68.067 C 46 66.773, 42.273 65.713, 40.839 66.599 C 40.031 67.099, 39.871 66.779, 40.330 65.582 C 40.699 64.622, 41 63.648, 41 63.418 C 41 63.188, 42.125 63, 43.500 63 C 45.056 63, 46 62.433, 46 61.500 C 46 60.667, 46.889 60, 48 60 C 49.344 60, 50 60.667, 50 62.031 C 50 63.149, 50.672 64.321, 51.494 64.636 C 52.316 64.952, 52.740 65.612, 52.435 66.105 C 52.131 66.597, 52.322 67, 52.859 67 C 53.397 67, 54.548 67.273, 55.418 67.607 C 56.456 68.005, 57 67.662, 57 66.607 C 57 64.475, 57.459 64.560, 61.785 67.500 C 65.149 69.786, 69 70.818, 69 69.434 C 69 69.123, 68.523 67.976, 67.939 66.886 C 67.163 65.436, 66.291 65.084, 64.689 65.576 L 62.500 66.248 64.750 63.810 C 65.987 62.468, 67 60.864, 67 60.245 C 67 58.043, 69.182 57.815, 70.620 59.867 C 71.668 61.364, 72.914 61.854, 75.040 61.607 C 76.668 61.417, 78 61.602, 78 62.018 C 78 62.433, 80.138 63.093, 82.750 63.485 C 85.362 63.877, 88.251 64.599, 89.169 65.091 C 90.282 65.686, 91.010 65.570, 91.352 64.742 C 91.665 63.985, 92.124 64.345, 92.527 65.665 C 93.266 68.084, 97.913 69.760, 99 68 C 99.413 67.331, 100.769 67.155, 102.385 67.561 C 104.314 68.045, 105.676 67.705, 107.173 66.369 C 109.239 64.524, 109.257 64.530, 108.534 66.849 C 107.901 68.881, 108.074 69.111, 109.817 68.558 C 110.925 68.206, 112.121 68.387, 112.475 68.959 C 113.630 70.828, 116.029 70.055, 117 67.500 C 117.523 66.125, 118.610 65, 119.416 65 C 122.003 65, 122.401 62.743, 120.138 60.910 C 118.002 59.181, 118.262 58.182, 120.750 58.560 C 121.438 58.665, 122.675 58.806, 123.500 58.875 C 124.325 58.944, 125 59.675, 125 60.500 C 125 61.325, 125.338 61.947, 125.750 61.882 C 128.862 61.390, 132 62.203, 132 63.500 C 132 64.500, 133 65, 135 65 C 136.650 65, 138 64.550, 138 64 C 138 63.450, 138.879 63.879, 139.954 64.954 C 141.551 66.551, 143.029 66.853, 148.030 66.605 C 153.518 66.332, 154.310 66.543, 155.685 68.642 C 157.419 71.288, 159 70.898, 159 67.824 C 159 66.156, 159.484 65.859, 161.558 66.256 C 163.399 66.608, 163.974 66.374, 163.609 65.423 C 163.286 64.583, 163.629 64.304, 164.551 64.658 C 165.348 64.964, 166 65.563, 166 65.990 C 166 68.550, 177.197 66.918, 178.935 64.105 C 179.981 62.412, 185.139 64.474, 184.437 66.304 C 183.786 67.999, 186.560 67.888, 189.877 66.085 C 191.831 65.024, 192.400 65.030, 193.073 66.119 C 193.965 67.562, 199.641 67.757, 207 66.599 C 209.475 66.209, 213.525 65.978, 216 66.084 C 218.475 66.190, 221.850 66.327, 223.500 66.388 C 225.150 66.450, 227.082 66.876, 227.794 67.336 C 228.575 67.841, 230.049 67.543, 231.509 66.586 C 234.208 64.818, 241.511 64.364, 240.482 66.029 C 239.673 67.338, 243.995 71.960, 246.050 71.983 C 248.276 72.008, 250 69.964, 250 67.300 C 250 66.035, 250.498 65, 251.107 65 C 251.716 65, 251.955 65.675, 251.638 66.500 C 251.297 67.389, 251.628 68, 252.450 68 C 253.212 68, 254.553 68.275, 255.430 68.611 C 256.596 69.059, 256.857 68.791, 256.404 67.611 C 256.064 66.725, 256.268 66, 256.858 66 C 258.253 66, 259.857 69.144, 259.282 70.750 C 259.035 71.437, 259.509 72, 260.335 72 C 261.161 72, 262.548 72.273, 263.418 72.607 C 265.572 73.433, 265.489 70.642, 263.308 68.872 C 262.158 67.940, 261.857 67.901, 262.367 68.750 C 262.798 69.467, 262.617 70, 261.942 70 C 261.211 70, 260.995 69.149, 261.370 67.750 C 261.701 66.513, 261.979 65.136, 261.986 64.691 C 261.994 64.246, 262.483 64.181, 263.074 64.546 C 264.833 65.633, 269.937 65.690, 270.291 64.626 C 270.487 64.039, 271.405 63.978, 272.560 64.474 C 275.027 65.534, 278.284 65.130, 279.235 63.647 C 279.779 62.798, 279.973 62.809, 279.985 63.690 C 280.009 65.581, 284.599 64.711, 287.385 62.288 C 290.028 59.989, 290.255 60.085, 292.506 64.454 C 293.060 65.528, 295.310 66.878, 297.506 67.454 C 299.703 68.029, 302.707 69.319, 304.183 70.321 C 306.269 71.737, 307.311 71.904, 308.867 71.071 C 311.747 69.530, 312.221 69.728, 311.452 72.151 C 310.904 73.878, 311.096 74.177, 312.424 73.667 C 313.334 73.318, 314.934 73.566, 315.978 74.218 C 317.467 75.148, 318.429 75.108, 320.437 74.034 C 321.845 73.280, 323.299 72.965, 323.667 73.334 C 324.036 73.703, 325.181 73.241, 326.212 72.308 C 327.850 70.826, 328.009 70.814, 327.471 72.216 C 327.059 73.288, 327.543 74.037, 328.928 74.477 C 330.067 74.839, 331 75.702, 331 76.394 C 331 77.225, 332.022 77.504, 334 77.213 C 336.253 76.883, 337.004 76.241, 337.015 74.637 C 337.027 73.011, 337.242 72.834, 337.914 73.896 C 338.439 74.724, 339.506 75.020, 340.540 74.623 C 341.521 74.247, 343.359 74.660, 344.748 75.570 C 346.389 76.646, 347.548 76.852, 348.212 76.188 C 348.876 75.524, 350.349 75.666, 352.613 76.612 C 354.583 77.435, 357.129 77.755, 358.658 77.371 C 360.501 76.908, 361.087 77.051, 360.597 77.843 C 360.137 78.588, 360.464 78.759, 361.549 78.343 C 362.464 77.992, 363.565 78.296, 364.016 79.025 C 364.670 80.085, 365.350 80.001, 367.495 78.595 C 368.962 77.634, 370.818 77.100, 371.621 77.408 C 372.471 77.734, 372.962 77.453, 372.797 76.734 C 372.494 75.413, 373.130 75, 375.469 75 C 376.363 75, 376.712 75.586, 376.362 76.500 C 375.768 78.048, 376.708 78.370, 380.830 78.029 C 382.111 77.923, 383.695 78.568, 384.349 79.463 C 385.443 80.959, 385.848 80.961, 389.357 79.495 C 392.116 78.342, 393.533 78.197, 394.466 78.972 C 395.955 80.208, 401 78.705, 401 77.025 C 401 76.461, 401.505 76, 402.122 76 C 402.934 76, 402.944 76.363, 402.159 77.309 C 401.347 78.287, 401.572 79.045, 403.048 80.309 C 405.511 82.418, 408.360 82.477, 410.039 80.453 C 410.897 79.419, 411.545 79.265, 411.992 79.987 C 412.734 81.188, 416 80.298, 416 78.893 C 416 78.402, 416.723 78, 417.607 78 C 418.609 78, 419.002 77.447, 418.651 76.532 C 418.341 75.725, 418.518 74.798, 419.044 74.473 C 419.570 74.148, 420.015 74.696, 420.033 75.691 C 420.062 77.263, 420.321 77.195, 422.012 75.166 C 423.550 73.320, 424.567 72.966, 426.875 73.472 C 428.480 73.825, 430.608 75.014, 431.604 76.115 C 432.896 77.542, 434.434 78.037, 436.958 77.836 C 440.633 77.545, 441.101 78.357, 439.504 82.250 C 438.261 85.280, 441.023 84.222, 444.726 80.250 C 447.802 76.950, 448.130 76.799, 447.466 78.992 C 446.766 81.305, 446.841 81.377, 448.518 79.992 C 449.832 78.907, 450.435 78.826, 450.727 79.694 C 451.181 81.042, 454 80.302, 454 78.834 C 454 78.310, 453.437 78.173, 452.750 78.528 C 452.063 78.883, 452.625 78.245, 454 77.109 C 456.951 74.672, 461 74.320, 461 76.500 C 461 78.432, 461.747 78.396, 463.777 76.366 C 464.848 75.295, 465.541 75.123, 465.789 75.866 C 465.997 76.490, 466.669 77, 467.283 77 C 468.059 77, 468.034 76.634, 467.200 75.800 C 465.567 74.167, 465.692 73, 467.500 73 C 468.325 73, 469 73.450, 469 74 C 469 76.102, 473.076 74.928, 474.178 72.508 C 475.060 70.574, 475.615 70.265, 476.657 71.130 C 477.396 71.743, 478.015 71.852, 478.033 71.372 C 478.052 70.893, 478.914 71.516, 479.950 72.758 C 481.997 75.212, 488 77, 488 75.156 C 488 74.555, 488.640 74.308, 489.422 74.608 C 490.204 74.908, 491.786 74.650, 492.937 74.034 C 494.613 73.137, 495.147 73.221, 495.622 74.457 C 495.948 75.306, 496.841 76, 497.607 76 C 498.373 76, 499 76.381, 499 76.846 C 499 77.828, 504.639 77.570, 507.351 76.464 C 508.530 75.982, 509.508 76.204, 510.047 77.075 C 510.511 77.827, 511.205 78.128, 511.588 77.745 C 511.971 77.362, 511.775 76.434, 511.151 75.682 C 509.793 74.046, 510.621 73, 513.274 73 C 514.588 73, 515.028 73.484, 514.638 74.500 C 514.208 75.622, 514.797 76, 516.972 76 C 518.573 76, 520.160 75.550, 520.500 75 C 521.440 73.479, 525.594 73.806, 527.010 75.512 C 528.033 76.745, 528.553 76.791, 529.820 75.762 C 531.151 74.682, 531.275 74.788, 530.685 76.500 C 530.083 78.244, 530.155 78.297, 531.248 76.913 C 531.936 76.041, 533.573 74.755, 534.885 74.056 C 536.712 73.082, 536.956 72.591, 535.925 71.954 C 534.836 71.280, 534.924 70.742, 536.388 69.124 C 537.382 68.025, 537.919 66.679, 537.582 66.132 C 537.244 65.585, 537.537 64.783, 538.234 64.350 C 539.843 63.348, 544.307 63.894, 545.114 65.191 C 545.488 65.793, 547.354 65.392, 549.891 64.167 L 554.054 62.155 557.346 65.544 C 560.308 68.594, 561.030 68.871, 564.569 68.312 C 566.731 67.970, 568.810 67.216, 569.189 66.635 C 569.636 65.951, 570.593 66.227, 571.913 67.422 C 573.498 68.856, 574.840 69.121, 577.974 68.620 C 580.674 68.188, 582 68.347, 582 69.103 C 582 69.809, 582.915 69.631, 584.448 68.626 C 586.078 67.558, 587.114 67.376, 587.550 68.082 C 587.949 68.727, 589.728 68.884, 592.100 68.483 C 595.184 67.962, 596.126 68.164, 596.621 69.454 C 596.965 70.351, 597.978 71.013, 598.873 70.927 C 601.945 70.630, 603 71.002, 603 72.383 C 603 74.615, 607.602 74.946, 609.401 72.844 C 610.949 71.036, 613.763 70.485, 619.250 70.913 C 620.763 71.031, 622 70.649, 622 70.064 C 622 69.479, 622.675 69, 623.500 69 C 624.325 69, 625 68.280, 625 67.400 C 625 66.304, 626.133 66.933, 628.600 69.400 C 632.420 73.220, 634 73.870, 634 71.622 C 634 69.926, 631.559 67.774, 630.658 68.675 C 630.296 69.037, 630 68.835, 630 68.226 C 630 66.294, 632.227 65.654, 633.158 67.318 C 633.682 68.255, 634.714 68.663, 635.650 68.304 C 636.598 67.940, 637.624 68.364, 638.173 69.346 C 638.683 70.255, 639.715 71, 640.466 71 C 641.218 71, 642.002 71.506, 642.208 72.125 C 643.034 74.602, 659 74.069, 659 71.565 C 659 68.749, 667.039 62.618, 667.788 64.864 C 667.996 65.489, 669.592 65.993, 671.333 65.985 C 673.861 65.972, 674.197 65.752, 673 64.890 C 671.752 63.993, 671.808 63.911, 673.332 64.406 C 674.339 64.733, 675.407 65, 675.704 65 C 676.002 65, 675.685 65.675, 675 66.500 C 673.947 67.768, 674.160 68, 676.378 68 C 677.820 68, 679 68.450, 679 69 C 679 70.818, 683.495 70.038, 684.768 68 C 686.220 65.674, 688.209 65.291, 687.362 67.500 C 686.616 69.443, 687.525 69.394, 691.069 67.300 C 693.841 65.663, 694.031 65.681, 696.287 67.800 C 699.383 70.709, 700.157 70.575, 699.467 67.250 L 698.896 64.500 700.416 67.127 C 701.251 68.572, 703.075 69.972, 704.468 70.239 C 706.827 70.690, 707 70.457, 707 66.822 L 707 62.922 709.189 64.961 C 711.633 67.239, 714.174 67.662, 713.925 65.750 C 713.682 63.873, 713.938 62.645, 714.890 61.145 C 715.595 60.031, 716.232 60.106, 718.460 61.565 C 720.686 63.024, 721.321 63.099, 722.009 61.985 C 722.710 60.851, 723.137 60.864, 724.616 62.064 C 726.069 63.244, 726.234 63.251, 725.543 62.104 C 724.875 60.996, 725.247 60.845, 727.351 61.373 C 729.275 61.856, 730 61.654, 730 60.633 C 730 59.835, 731.298 59.036, 733 58.787 C 734.650 58.545, 736 58.718, 736 59.173 C 736 59.628, 735.550 60, 735 60 C 734.450 60, 734 60.450, 734 61 C 734 61.550, 734.900 62, 736 62 C 737.100 62, 738 62.450, 738 63 C 738 64.338, 742.737 64.288, 743.185 62.946 C 743.502 61.993, 745.570 61.283, 748.633 61.077 C 749.257 61.034, 750.002 60.100, 750.290 59 C 750.577 57.900, 751.475 57, 752.284 57 C 753.964 57, 755.910 59.014, 755.665 60.500 C 755.574 61.050, 756.625 61.658, 758 61.851 C 759.375 62.044, 760.781 62.654, 761.125 63.208 C 761.469 63.761, 762.713 63.908, 763.890 63.535 C 765.066 63.162, 765.790 62.469, 765.498 61.997 C 765.206 61.525, 765.444 60.843, 766.027 60.483 C 767.503 59.571, 770 61.859, 770 64.122 C 770 65.315, 770.709 66, 771.943 66 C 773.012 66, 774.475 66.829, 775.193 67.841 C 776.714 69.984, 779.685 70.263, 780.426 68.333 C 780.707 67.600, 781.851 67, 782.969 67 C 784.086 67, 785 66.634, 785 66.188 C 785 65.201, 791.853 65.352, 794.147 66.390 C 795.053 66.800, 796.403 67.034, 797.147 66.910 C 799.419 66.532, 801.905 68.085, 801.348 69.534 C 800.943 70.590, 801.614 70.775, 804.285 70.341 C 806.337 70.008, 808.025 70.232, 808.432 70.890 C 809.698 72.939, 811.121 72.094, 809.983 69.968 C 808.988 68.109, 809.121 67.992, 811.555 68.603 C 813.018 68.970, 814.504 68.822, 814.857 68.273 C 815.248 67.667, 817.266 67.565, 820 68.013 C 822.475 68.418, 823.712 68.806, 822.750 68.875 C 820.668 69.024, 820.347 72.667, 822.415 72.667 C 823.194 72.667, 824.309 71.617, 824.894 70.333 C 825.906 68.112, 829 67.019, 829 68.883 C 829 69.369, 829.900 70.002, 831 70.290 C 832.100 70.577, 833 71.313, 833 71.925 C 833 72.596, 832.060 72.802, 830.636 72.445 C 828.951 72.022, 828.081 72.345, 827.612 73.569 C 826.728 75.872, 826.799 75.898, 832.244 75.280 C 835.296 74.933, 837.899 73.896, 839.545 72.371 C 842.758 69.393, 844.748 69.351, 845.252 72.250 C 845.631 74.434, 845.676 74.421, 846.771 71.817 C 847.857 69.235, 848.118 69.156, 853.700 69.718 C 856.890 70.038, 859.650 70.683, 859.833 71.150 C 860.372 72.523, 863.739 72.124, 864.316 70.620 C 864.719 69.570, 866.779 69.306, 872.920 69.519 C 877.361 69.673, 880.758 69.417, 880.469 68.950 C 879.814 67.889, 886.447 66.574, 888.492 67.359 C 889.322 67.677, 890 68.753, 890 69.751 C 890 71.178, 890.907 71.620, 894.250 71.823 C 906.763 72.583, 905.540 72.895, 905.153 69.047 C 904.830 65.825, 904.930 65.690, 906.653 67.017 C 910.135 69.700, 911.652 71.544, 911.284 72.648 C 911.081 73.256, 911.609 74.020, 912.458 74.345 C 913.306 74.671, 914 74.453, 914 73.862 C 914 73.270, 914.619 73.024, 915.376 73.314 C 916.204 73.632, 916.701 73.220, 916.626 72.279 C 916.435 69.902, 918.671 69.633, 919.279 71.959 C 919.962 74.572, 921.679 74.586, 922.505 71.985 C 922.894 70.760, 923.605 70.260, 924.322 70.709 C 926.052 71.793, 928.183 71.656, 930.962 70.284 C 932.895 69.329, 933.590 69.329, 934.197 70.284 C 934.622 70.953, 934.983 71.050, 935 70.500 C 935.017 69.950, 935.410 70.099, 935.874 70.830 C 936.605 71.983, 940.446 72.460, 946.133 72.103 C 947.032 72.046, 948.002 71.100, 948.290 70 C 948.608 68.781, 949.654 68, 950.965 68 C 952.285 68, 952.853 67.571, 952.434 66.893 C 951.574 65.501, 956.208 66.815, 957.111 68.219 C 957.447 68.742, 957.968 68.231, 958.268 67.085 C 958.567 65.938, 959.530 65, 960.406 65 C 961.283 65, 962 64.564, 962 64.031 C 962 63.499, 961.325 63.322, 960.500 63.638 C 959.675 63.955, 959 63.716, 959 63.107 C 959 62.498, 959.450 62, 960 62 C 960.550 62, 961 61.550, 961 61 C 961 59.673, 964.716 56, 966.059 56 C 966.641 56, 966.840 56.450, 966.500 57 C 965.862 58.033, 966.120 58.096, 972 58.349 C 974.759 58.468, 975.565 58.954, 975.806 60.646 C 975.974 61.826, 977.057 63.626, 978.213 64.646 C 980.285 66.474, 980.306 66.467, 979.713 64.106 C 979.262 62.309, 979.397 61.997, 980.256 62.856 C 980.885 63.485, 982.155 64, 983.078 64 C 984 64, 985.311 64.670, 985.991 65.489 C 986.671 66.308, 987.626 66.731, 988.113 66.430 C 989.530 65.554, 989.138 64, 987.500 64 C 985.692 64, 985.567 62.833, 987.200 61.200 C 988.569 59.831, 991.395 59.552, 990.583 60.866 C 990.288 61.343, 991.002 62.580, 992.170 63.616 C 993.700 64.974, 994.414 65.151, 994.729 64.250 C 995.253 62.753, 999.620 62.576, 1000.510 64.016 C 1001.198 65.129, 1003 64.403, 1003 63.014 C 1003 62.537, 1002.212 61.958, 1001.250 61.728 C 999.637 61.342, 999.647 61.246, 1001.382 60.497 C 1002.458 60.033, 1003.973 60.126, 1004.915 60.715 C 1007.599 62.391, 1013 63.302, 1013 62.079 C 1013 61.486, 1013.450 61, 1014 61 C 1014.550 61, 1015 61.725, 1015 62.611 C 1015 63.920, 1015.677 64.096, 1018.610 63.545 C 1021.530 62.997, 1022.479 63.239, 1023.579 64.809 C 1025.153 67.056, 1029.441 67.379, 1031.104 65.375 C 1031.731 64.619, 1032.827 64, 1033.539 64 C 1034.251 64, 1034.999 63.502, 1035.202 62.894 C 1035.405 62.285, 1037.130 61.610, 1039.035 61.394 C 1040.941 61.177, 1043.098 60.776, 1043.829 60.501 C 1044.561 60.226, 1046.263 60.279, 1047.611 60.617 C 1049.827 61.173, 1049.901 61.352, 1048.380 62.464 C 1045.418 64.630, 1050.683 66.053, 1056.141 64.560 C 1057.792 64.109, 1059.049 64.271, 1059.495 64.992 C 1059.981 65.779, 1060.676 65.480, 1061.673 64.057 C 1062.478 62.907, 1063.525 62.206, 1063.999 62.500 C 1064.474 62.793, 1065.165 62.543, 1065.535 61.944 C 1065.951 61.270, 1067.649 62.288, 1069.989 64.614 C 1073.211 67.816, 1073.565 68.577, 1072.385 69.758 C 1071.623 70.520, 1071 71.790, 1071 72.580 C 1071 73.767, 1071.348 73.799, 1073 72.768 C 1074.100 72.081, 1075 71.193, 1075 70.795 C 1075 70.396, 1075.961 69.556, 1077.135 68.928 C 1079.113 67.869, 1079.222 67.978, 1078.616 70.392 C 1077.663 74.191, 1079.259 73.615, 1084.558 68.250 C 1087.138 65.638, 1089.433 63.995, 1089.657 64.599 C 1089.916 65.295, 1092.715 65.599, 1097.275 65.428 C 1101.240 65.279, 1105.037 65.616, 1105.713 66.177 C 1107.952 68.035, 1113.818 67.510, 1116.987 65.168 C 1118.644 63.943, 1120 63.389, 1120 63.938 C 1120 64.564, 1120.838 64.611, 1122.250 64.064 C 1123.487 63.584, 1124.413 62.776, 1124.307 62.267 C 1124.201 61.759, 1125.101 61.453, 1126.307 61.588 C 1127.513 61.723, 1129.063 61.871, 1129.750 61.917 C 1130.438 61.963, 1131.019 62.563, 1131.042 63.250 C 1131.096 64.831, 1137.464 68.943, 1140.935 69.637 C 1142.900 70.030, 1144.252 69.476, 1146.282 67.445 C 1147.777 65.950, 1149 65.212, 1149 65.805 C 1149 66.397, 1148.550 67.160, 1148 67.500 C 1146.489 68.434, 1146.802 70, 1148.500 70 C 1149.325 70, 1150 70.480, 1150 71.067 C 1150 72.314, 1154.168 71.247, 1155.127 69.755 C 1155.473 69.218, 1155.533 67.928, 1155.261 66.889 C 1154.983 65.828, 1155.282 65, 1155.942 65 C 1156.589 65, 1156.840 65.450, 1156.500 66 C 1156.160 66.550, 1156.332 67, 1156.882 67 C 1157.432 67, 1158.161 66.548, 1158.502 65.996 C 1158.843 65.444, 1160.220 65.268, 1161.561 65.605 C 1163.048 65.978, 1164 65.784, 1164 65.108 C 1164 64.499, 1164.477 64, 1165.059 64 C 1165.641 64, 1165.812 64.495, 1165.438 65.100 C 1164.951 65.889, 1165.346 65.885, 1166.839 65.086 C 1167.983 64.474, 1169.275 64.068, 1169.709 64.185 C 1170.144 64.301, 1171.534 64.045, 1172.798 63.616 C 1174.221 63.132, 1175.647 63.292, 1176.543 64.035 C 1177.338 64.696, 1178.892 65, 1179.995 64.712 C 1181.300 64.370, 1182 64.678, 1182 65.594 C 1182 66.534, 1183.159 67, 1185.500 67 C 1188.048 67, 1189 67.437, 1189 68.607 C 1189 69.662, 1189.544 70.005, 1190.582 69.607 C 1191.452 69.273, 1192.577 69, 1193.082 69 C 1193.587 69, 1193.888 68.438, 1193.750 67.750 C 1193.505 66.527, 1194.920 66.387, 1199.973 67.134 C 1201.484 67.358, 1202.457 67.008, 1202.473 66.236 C 1202.488 65.541, 1203.789 64.303, 1205.364 63.486 C 1208.665 61.773, 1209.336 61.648, 1208.571 62.886 C 1207.450 64.699, 1222.788 66.719, 1225.728 65.146 C 1227.039 64.444, 1228.142 64.697, 1229.868 66.095 C 1232.677 68.369, 1234 68.518, 1234 66.559 C 1234 64.950, 1235.818 63.485, 1236.709 64.376 C 1237.026 64.692, 1236.687 65.672, 1235.957 66.552 C 1234.847 67.889, 1234.865 68.302, 1236.064 69.061 C 1238.367 70.518, 1239.818 70.150, 1240.523 67.928 C 1240.905 66.725, 1241.751 66.074, 1242.539 66.377 C 1243.433 66.720, 1243.701 66.384, 1243.323 65.398 C 1242.859 64.190, 1243.307 64.036, 1245.624 64.603 C 1247.206 64.991, 1248.775 65.727, 1249.112 66.239 C 1249.448 66.752, 1250.011 67.132, 1250.362 67.085 C 1250.713 67.038, 1251.112 67.037, 1251.250 67.081 C 1251.388 67.126, 1252.685 67.251, 1254.133 67.359 C 1256.082 67.505, 1256.646 67.159, 1256.302 66.028 C 1255.985 64.988, 1256.331 65.106, 1257.386 66.397 C 1258.239 67.441, 1258.652 68.755, 1258.304 69.317 C 1257.923 69.933, 1258.322 70.090, 1259.307 69.712 C 1260.206 69.367, 1261.598 69.741, 1262.400 70.542 C 1264.219 72.361, 1265 72.391, 1265 70.642 C 1265 69.894, 1266.010 69.294, 1267.250 69.306 C 1274.054 69.372, 1275.240 69.025, 1274.739 67.111 C 1274.467 66.072, 1274.640 64.609, 1275.123 63.861 C 1275.853 62.727, 1276.158 62.746, 1276.947 63.974 C 1277.550 64.911, 1277.537 65.668, 1276.912 66.055 C 1276.371 66.389, 1277.684 67.188, 1279.830 67.831 C 1284.538 69.242, 1287 69.323, 1287 68.067 C 1287 66.773, 1283.273 65.713, 1281.839 66.599 C 1281.031 67.099, 1280.871 66.779, 1281.330 65.582 C 1281.699 64.622, 1282 63.648, 1282 63.418 C 1282 63.188, 1283.125 63, 1284.500 63 C 1286.056 63, 1287 62.433, 1287 61.500 C 1287 60.667, 1287.889 60, 1289 60 C 1290.344 60, 1291 60.667, 1291 62.031 C 1291 63.149, 1291.672 64.321, 1292.494 64.636 C 1293.316 64.952, 1293.740 65.612, 1293.435 66.105 C 1293.131 66.597, 1293.322 67, 1293.859 67 C 1294.397 67, 1295.548 67.273, 1296.418 67.607 C 1297.456 68.005, 1298 67.662, 1298 66.607 C 1298 64.475, 1298.459 64.560, 1302.785 67.500 C 1306.149 69.786, 1310 70.818, 1310 69.434 C 1310 69.123, 1309.523 67.976, 1308.939 66.886 C 1308.163 65.436, 1307.291 65.084, 1305.689 65.576 L 1303.500 66.248 1305.750 63.810 C 1306.987 62.468, 1308 60.864, 1308 60.245 C 1308 58.043, 1310.182 57.815, 1311.620 59.867 C 1312.668 61.364, 1313.914 61.854, 1316.040 61.607 C 1317.668 61.417, 1319 61.602, 1319 62.018 C 1319 62.433, 1321.138 63.093, 1323.750 63.485 C 1326.362 63.877, 1329.251 64.599, 1330.169 65.091 C 1331.282 65.686, 1332.010 65.570, 1332.352 64.742 C 1332.665 63.985, 1333.124 64.345, 1333.527 65.665 C 1334.266 68.084, 1338.913 69.760, 1340 68 C 1340.413 67.331, 1341.769 67.155, 1343.385 67.561 C 1345.314 68.045, 1346.676 67.705, 1348.173 66.369 C 1350.239 64.524, 1350.257 64.530, 1349.534 66.849 C 1348.901 68.881, 1349.074 69.111, 1350.817 68.558 C 1351.925 68.206, 1353.121 68.387, 1353.475 68.959 C 1354.630 70.828, 1357.029 70.055, 1358 67.500 C 1358.523 66.125, 1359.610 65, 1360.416 65 C 1363.003 65, 1363.401 62.743, 1361.138 60.910 C 1359.002 59.181, 1359.262 58.182, 1361.750 58.560 C 1362.438 58.665, 1363.675 58.806, 1364.500 58.875 C 1365.325 58.944, 1366 59.675, 1366 60.500 C 1366 61.325, 1366.338 61.947, 1366.750 61.882 C 1369.862 61.390, 1373 62.203, 1373 63.500 C 1373 64.500, 1374 65, 1376 65 C 1377.650 65, 1379 64.550, 1379 64 C 1379 63.450, 1379.879 63.879, 1380.954 64.954 C 1382.551 66.551, 1384.029 66.853, 1389.030 66.605 C 1394.518 66.332, 1395.310 66.543, 1396.685 68.642 C 1398.419 71.288, 1400 70.898, 1400 67.824 C 1400 66.156, 1400.484 65.859, 1402.558 66.256 C 1404.399 66.608, 1404.974 66.374, 1404.609 65.423 C 1404.286 64.583, 1404.629 64.304, 1405.551 64.658 C 1406.348 64.964, 1407 65.563, 1407 65.990 C 1407 68.550, 1418.197 66.918, 1419.935 64.105 C 1420.981 62.412, 1426.139 64.474, 1425.437 66.304 C 1424.786 67.999, 1427.560 67.888, 1430.877 66.085 C 1432.831 65.024, 1433.400 65.030, 1434.073 66.119 C 1434.965 67.562, 1440.641 67.757, 1448 66.599 C 1450.475 66.209, 1454.525 65.978, 1457 66.084 C 1459.475 66.190, 1462.850 66.327, 1464.500 66.388 C 1466.150 66.450, 1468.082 66.876, 1468.794 67.336 C 1469.575 67.841, 1471.049 67.543, 1472.509 66.586 C 1475.208 64.818, 1482.511 64.364, 1481.482 66.029 C 1480.673 67.338, 1484.995 71.960, 1487.050 71.983 C 1489.276 72.008, 1491 69.964, 1491 67.300 C 1491 66.035, 1491.498 65, 1492.107 65 C 1492.716 65, 1492.955 65.675, 1492.638 66.500 C 1492.297 67.389, 1492.628 68, 1493.450 68 C 1494.212 68, 1495.553 68.275, 1496.430 68.611 C 1497.596 69.059, 1497.857 68.791, 1497.404 67.611 C 1497.064 66.725, 1497.268 66, 1497.858 66 C 1499.253 66, 1500.857 69.144, 1500.282 70.750 C 1500.035 71.437, 1500.509 72, 1501.335 72 C 1502.161 72, 1503.548 72.273, 1504.418 72.607 C 1506.572 73.433, 1506.489 70.642, 1504.308 68.872 C 1503.158 67.940, 1502.857 67.901, 1503.367 68.750 C 1503.798 69.467, 1503.617 70, 1502.942 70 C 1502.211 70, 1501.995 69.149, 1502.370 67.750 C 1502.701 66.513, 1502.979 65.136, 1502.986 64.691 C 1502.994 64.246, 1503.483 64.181, 1504.074 64.546 C 1505.833 65.633, 1510.937 65.690, 1511.291 64.626 C 1511.487 64.039, 1512.405 63.978, 1513.560 64.474 C 1516.027 65.534, 1519.284 65.130, 1520.235 63.647 C 1520.779 62.798, 1520.973 62.809, 1520.985 63.690 C 1521.009 65.581, 1525.599 64.711, 1528.385 62.288 C 1531.028 59.989, 1531.255 60.085, 1533.506 64.454 C 1534.060 65.528, 1536.310 66.878, 1538.506 67.454 C 1540.703 68.029, 1543.707 69.319, 1545.183 70.321 C 1547.269 71.737, 1548.311 71.904, 1549.867 71.071 C 1552.747 69.530, 1553.221 69.728, 1552.452 72.151 C 1551.904 73.878, 1552.096 74.177, 1553.424 73.667 C 1554.334 73.318, 1555.934 73.566, 1556.978 74.218 C 1558.467 75.148, 1559.429 75.108, 1561.437 74.034 C 1562.845 73.280, 1564.299 72.965, 1564.667 73.334 C 1565.036 73.703, 1566.181 73.241, 1567.212 72.308 C 1568.850 70.826, 1569.009 70.814, 1568.471 72.216 C 1568.059 73.288, 1568.543 74.037, 1569.928 74.477 C 1571.067 74.839, 1572 75.702, 1572 76.394 C 1572 77.225, 1573.022 77.504, 1575 77.213 C 1577.253 76.883, 1578.004 76.241, 1578.015 74.637 C 1578.027 73.011, 1578.242 72.834, 1578.914 73.896 C 1579.439 74.724, 1580.506 75.020, 1581.540 74.623 C 1582.521 74.247, 1584.359 74.660, 1585.748 75.570 C 1587.389 76.646, 1588.548 76.852, 1589.212 76.188 C 1589.876 75.524, 1591.349 75.666, 1593.613 76.612 C 1595.583 77.435, 1598.129 77.755, 1599.658 77.371 C 1601.501 76.908, 1602.087 77.051, 1601.597 77.843 C 1601.137 78.588, 1601.464 78.759, 1602.549 78.343 C 1603.464 77.992, 1604.565 78.296, 1605.016 79.025 C 1605.670 80.085, 1606.350 80.001, 1608.495 78.595 C 1609.962 77.634, 1611.818 77.100, 1612.621 77.408 C 1613.471 77.734, 1613.962 77.453, 1613.797 76.734 C 1613.494 75.413, 1614.130 75, 1616.469 75 C 1617.363 75, 1617.712 75.586, 1617.362 76.500 C 1616.768 78.048, 1617.708 78.370, 1621.830 78.029 C 1623.111 77.923, 1624.695 78.568, 1625.349 79.463 C 1626.443 80.959, 1626.848 80.961, 1630.357 79.495 C 1633.116 78.342, 1634.533 78.197, 1635.466 78.972 C 1636.955 80.208, 1642 78.705, 1642 77.025 C 1642 76.461, 1642.505 76, 1643.122 76 C 1643.934 76, 1643.944 76.363, 1643.159 77.309 C 1642.347 78.287, 1642.572 79.045, 1644.048 80.309 C 1646.511 82.418, 1649.360 82.477, 1651.039 80.453 C 1651.897 79.419, 1652.545 79.265, 1652.992 79.987 C 1653.734 81.188, 1657 80.298, 1657 78.893 C 1657 78.402, 1657.723 78, 1658.607 78 C 1659.609 78, 1660.002 77.447, 1659.651 76.532 C 1659.341 75.725, 1659.518 74.798, 1660.044 74.473 C 1660.570 74.148, 1661.015 74.696, 1661.033 75.691 C 1661.062 77.263, 1661.321 77.195, 1663.012 75.166 C 1664.550 73.320, 1665.567 72.966, 1667.875 73.472 C 1669.480 73.825, 1671.608 75.014, 1672.604 76.115 C 1673.896 77.542, 1675.434 78.037, 1677.958 77.836 C 1681.633 77.545, 1682.101 78.357, 1680.504 82.250 C 1679.261 85.280, 1682.023 84.222, 1685.726 80.250 C 1688.802 76.950, 1689.130 76.799, 1688.466 78.992 C 1687.766 81.305, 1687.841 81.377, 1689.518 79.992 C 1690.832 78.907, 1691.435 78.826, 1691.727 79.694 C 1692.181 81.042, 1695 80.302, 1695 78.834 C 1695 78.310, 1694.438 78.173, 1693.750 78.528 C 1693.063 78.883, 1693.625 78.245, 1695 77.109 C 1697.951 74.672, 1702 74.320, 1702 76.500 C 1702 78.432, 1702.747 78.396, 1704.777 76.366 C 1705.848 75.295, 1706.541 75.123, 1706.789 75.866 C 1706.997 76.490, 1707.669 77, 1708.283 77 C 1709.059 77, 1709.034 76.634, 1708.200 75.800 C 1706.567 74.167, 1706.692 73, 1708.500 73 C 1709.325 73, 1710 73.450, 1710 74 C 1710 76.102, 1714.076 74.928, 1715.178 72.508 C 1716.060 70.574, 1716.615 70.265, 1717.657 71.130 C 1718.396 71.743, 1719.015 71.852, 1719.033 71.372 C 1719.052 70.893, 1719.914 71.516, 1720.950 72.758 C 1722.997 75.212, 1729 77, 1729 75.156 C 1729 74.555, 1729.640 74.308, 1730.422 74.608 C 1731.204 74.908, 1732.786 74.650, 1733.937 74.034 C 1735.613 73.137, 1736.147 73.221, 1736.622 74.457 C 1736.948 75.306, 1737.841 76, 1738.607 76 C 1739.373 76, 1740 76.381, 1740 76.846 C 1740 77.828, 1745.639 77.570, 1748.351 76.464 C 1749.530 75.982, 1750.508 76.204, 1751.047 77.075 C 1751.511 77.827, 1752.205 78.128, 1752.588 77.745 C 1752.971 77.362, 1752.775 76.434, 1752.151 75.682 C 1750.793 74.046, 1751.621 73, 1754.274 73 C 1755.588 73, 1756.028 73.484, 1755.638 74.500 C 1755.208 75.622, 1755.797 76, 1757.972 76 C 1759.573 76, 1761.160 75.550, 1761.500 75 C 1762.440 73.479, 1766.594 73.806, 1768.010 75.512 C 1769.033 76.745, 1769.553 76.791, 1770.820 75.762 C 1772.151 74.682, 1772.275 74.788, 1771.685 76.500 C 1771.083 78.244, 1771.155 78.297, 1772.248 76.913 C 1772.936 76.041, 1774.573 74.755, 1775.885 74.056 C 1777.712 73.082, 1777.956 72.591, 1776.925 71.954 C 1775.836 71.280, 1775.924 70.742, 1777.388 69.124 C 1778.382 68.025, 1778.919 66.679, 1778.582 66.132 C 1778.244 65.585, 1778.537 64.783, 1779.234 64.350 C 1780.843 63.348, 1785.307 63.894, 1786.114 65.191 C 1786.488 65.793, 1788.354 65.392, 1790.891 64.167 L 1795.054 62.155 1798.346 65.544 C 1801.308 68.594, 1802.030 68.871, 1805.569 68.312 C 1807.731 67.970, 1809.810 67.216, 1810.189 66.635 C 1810.636 65.951, 1811.593 66.227, 1812.913 67.422 C 1814.498 68.856, 1815.840 69.121, 1818.974 68.620 C 1821.674 68.188, 1823 68.347, 1823 69.103 C 1823 69.809, 1823.915 69.631, 1825.448 68.626 C 1827.078 67.558, 1828.114 67.376, 1828.550 68.082 C 1828.949 68.727, 1830.728 68.884, 1833.100 68.483 C 1836.184 67.962, 1837.126 68.164, 1837.621 69.454 C 1837.965 70.351, 1838.978 71.013, 1839.873 70.927 C 1842.945 70.630, 1844 71.002, 1844 72.383 C 1844 74.615, 1848.602 74.946, 1850.401 72.844 C 1851.949 71.036, 1854.763 70.485, 1860.250 70.913 C 1861.763 71.031, 1863 70.649, 1863 70.064 C 1863 69.479, 1863.675 69, 1864.500 69 C 1865.325 69, 1866 68.280, 1866 67.400 C 1866 66.304, 1867.133 66.933, 1869.600 69.400 C 1873.420 73.220, 1875 73.870, 1875 71.622 C 1875 69.926, 1872.559 67.774, 1871.658 68.675 C 1871.296 69.037, 1871 68.835, 1871 68.226 C 1871 66.294, 1873.227 65.654, 1874.158 67.318 C 1874.682 68.255, 1875.714 68.663, 1876.650 68.304 C 1877.598 67.940, 1878.624 68.364, 1879.173 69.346 C 1879.683 70.255, 1880.715 71, 1881.466 71 C 1882.218 71, 1883.002 71.506, 1883.208 72.125 C 1884.034 74.602, 1900 74.069, 1900 71.565 C 1900 68.749, 1908.039 62.618, 1908.788 64.864 C 1908.996 65.489, 1910.592 65.993, 1912.333 65.985 C 1914.861 65.972, 1915.197 65.752, 1914 64.890 C 1912.752 63.993, 1912.808 63.911, 1914.332 64.406 C 1915.339 64.733, 1916.407 65, 1916.704 65 C 1917.002 65, 1916.685 65.675, 1916 66.500 C 1914.939 67.779, 1915.215 68, 1917.878 68 L 1921 68 1920.970 33.750 C 1920.947 7.748, 1920.667 -0.018, 1919.808 1.500 C 1917.938 4.808, 1913.808 6.747, 1906.750 7.631 C 1904.005 7.974, 1903 7.731, 1903 6.723 C 1903 5.762, 1902.094 5.479, 1900 5.787 C 1898.350 6.029, 1897 6.821, 1897 7.546 C 1897 10.095, 1892.970 10.320, 1890.409 7.914 C 1888.862 6.461, 1886.094 5.385, 1882.744 4.934 C 1876.993 4.161, 1874.961 5.043, 1876.955 7.446 C 1878.004 8.710, 1877.927 9.091, 1876.512 9.634 C 1875.569 9.996, 1874.506 9.888, 1874.149 9.396 C 1873.792 8.903, 1872.600 8.350, 1871.500 8.166 C 1870.400 7.983, 1869.072 7.420, 1868.550 6.916 C 1866.921 5.345, 1865.743 5.910, 1866.290 8 C 1866.630 9.300, 1866.320 10, 1865.406 10 C 1864.633 10, 1863.986 9.438, 1863.968 8.750 C 1863.947 7.931, 1863.517 8.051, 1862.718 9.100 C 1862.047 9.980, 1860.149 10.947, 1858.500 11.249 C 1855.624 11.775, 1854.132 12.150, 1849.318 13.559 C 1847.472 14.099, 1847.220 13.874, 1847.684 12.099 C 1848.455 9.154, 1846.390 9.418, 1841.074 12.945 C 1836.671 15.866, 1833.783 15.850, 1832.800 12.900 C 1832.111 10.832, 1813.501 10.165, 1811.528 12.139 C 1811.237 12.430, 1808.012 12.179, 1804.362 11.580 C 1798.927 10.689, 1797.576 10.085, 1796.895 8.246 C 1796.030 5.907, 1793.587 5.241, 1792.475 7.041 C 1792.121 7.613, 1790.941 7.799, 1789.852 7.453 C 1788.343 6.974, 1787.947 7.237, 1788.186 8.559 C 1788.359 9.512, 1787.875 10.510, 1787.111 10.776 C 1786.334 11.047, 1786.001 10.808, 1786.355 10.235 C 1786.703 9.671, 1786.316 8.952, 1785.494 8.636 C 1783.822 7.995, 1781 8.819, 1781 9.949 C 1781 10.353, 1778.975 10.714, 1776.500 10.751 C 1773.263 10.800, 1772 10.424, 1772 9.410 C 1772 8.634, 1771.357 8, 1770.571 8 C 1769.786 8, 1768.492 7.349, 1767.696 6.553 C 1766.678 5.535, 1765.397 5.337, 1763.375 5.883 C 1761.068 6.507, 1760.500 7.220, 1760.500 9.492 C 1760.500 11.121, 1759.863 12.538, 1759 12.825 C 1757.678 13.266, 1757.674 13.115, 1758.968 11.547 C 1760.294 9.942, 1760.246 9.805, 1758.468 10.141 C 1757.386 10.345, 1756.056 11.522, 1755.513 12.756 C 1754.970 13.990, 1754.197 15, 1753.794 15 C 1753.392 15, 1753.322 15.675, 1753.638 16.500 C 1754.003 17.450, 1753.625 18, 1752.607 18 C 1751.723 18, 1751 17.627, 1751 17.171 C 1751 15.835, 1740.648 15.956, 1739.792 17.302 C 1738.591 19.191, 1738.863 20, 1740.700 20 C 1743.542 20, 1740.805 21.703, 1736.828 22.409 C 1734.779 22.773, 1732.892 22.634, 1732.558 22.094 C 1731.235 19.954, 1726.356 18.324, 1723.942 19.217 C 1722.427 19.778, 1721.413 19.738, 1721.203 19.110 C 1721.020 18.561, 1720.225 18.360, 1719.435 18.663 C 1718.508 19.019, 1717.995 18.557, 1717.985 17.357 C 1717.972 15.788, 1717.816 15.733, 1716.985 17 C 1716.122 18.314, 1715.883 18.318, 1715.057 17.034 C 1714.449 16.088, 1714.500 15.103, 1715.200 14.259 C 1716.542 12.642, 1715.611 11.552, 1713.560 12.339 C 1712.681 12.676, 1712.284 13.577, 1712.624 14.462 C 1712.948 15.308, 1712.716 16, 1712.107 16 C 1711.498 16, 1711 15.325, 1711 14.500 C 1711 12.802, 1709.434 12.489, 1708.500 14 C 1707.455 15.691, 1706 15.109, 1706 13 C 1706 11.900, 1705.564 11, 1705.031 11 C 1704.499 11, 1704.300 11.618, 1704.589 12.372 C 1704.929 13.257, 1704.207 13.918, 1702.558 14.234 C 1700.827 14.565, 1700 14.282, 1700 13.361 C 1700 12.613, 1699.127 12, 1698.059 12 C 1696.991 12, 1695.866 11.592, 1695.558 11.094 C 1694.596 9.537, 1691 11.133, 1691 13.117 C 1691 15.496, 1690.562 15.476, 1687.130 12.938 C 1685.139 11.466, 1683.578 11.068, 1681.671 11.547 C 1679.022 12.211, 1677.926 14, 1680.167 14 C 1680.808 14, 1681.062 14.271, 1680.731 14.602 C 1680.400 14.933, 1679.100 14.483, 1677.842 13.602 C 1676.584 12.721, 1676.132 12, 1676.837 12 C 1677.541 12, 1677.816 11.511, 1677.446 10.913 C 1676.962 10.130, 1676.470 10.130, 1675.687 10.913 C 1674.289 12.311, 1671.273 12.318, 1670.808 10.925 C 1670.589 10.268, 1669.365 10.121, 1667.665 10.548 C 1665.866 10.999, 1665.068 11.734, 1665.409 12.623 C 1666.069 14.343, 1665.879 14.337, 1662.402 12.534 C 1660.848 11.727, 1659.334 11.429, 1659.038 11.871 C 1658.742 12.314, 1657.535 12.919, 1656.355 13.217 C 1654.749 13.622, 1653.924 13.129, 1653.070 11.254 C 1652.076 9.073, 1651.471 8.824, 1648.383 9.325 C 1645.468 9.798, 1645.038 9.659, 1645.967 8.539 C 1647.295 6.939, 1645.908 5.714, 1643.719 6.554 C 1642.911 6.864, 1641.991 6.419, 1641.660 5.557 C 1640.825 3.381, 1637.278 3.612, 1636.041 5.924 C 1634.225 9.317, 1625.984 12.401, 1624.622 10.197 C 1623.875 8.988, 1609 8.723, 1609 9.918 C 1609 10.553, 1606.598 10.700, 1602.500 10.318 C 1596.889 9.794, 1596 9.936, 1596 11.355 C 1596 13.027, 1594.512 13.618, 1593.747 12.250 C 1593.517 11.838, 1593.465 12.063, 1593.633 12.750 C 1593.800 13.438, 1593.515 14, 1593 14 C 1592.485 14, 1592.200 14.563, 1592.367 15.250 C 1592.535 15.938, 1592.489 16.180, 1592.266 15.789 C 1592.042 15.398, 1590.541 15.342, 1588.930 15.664 C 1586.994 16.051, 1586 15.843, 1586 15.052 C 1586 14.393, 1585.218 14.004, 1584.261 14.188 C 1583.305 14.372, 1581.714 13.714, 1580.725 12.725 C 1579.736 11.736, 1578.510 11.185, 1578.001 11.500 C 1577.491 11.814, 1575.296 10.949, 1573.122 9.577 C 1568.442 6.623, 1565.802 6.894, 1561.571 10.763 C 1559.365 12.782, 1557.704 13.471, 1555.671 13.212 C 1553.663 12.956, 1553.007 12.423, 1553.410 11.374 C 1553.749 10.492, 1553.552 10.159, 1552.922 10.548 C 1552.342 10.907, 1551.286 10.405, 1550.575 9.433 C 1549.195 7.546, 1543.312 6.970, 1542.162 8.611 C 1541.400 9.697, 1537.528 9.697, 1534.250 8.611 C 1532.856 8.149, 1532 8.271, 1532 8.933 C 1532 9.520, 1531.311 10, 1530.469 10 C 1529.626 10, 1528.679 10.672, 1528.364 11.493 C 1527.981 12.491, 1527.016 12.791, 1525.453 12.399 C 1524.166 12.076, 1522.526 12.187, 1521.807 12.645 C 1521.088 13.104, 1518.624 13.538, 1516.331 13.610 C 1513.176 13.710, 1512.290 13.408, 1512.688 12.371 C 1512.977 11.617, 1512.753 11, 1512.190 11 C 1511.627 11, 1510.993 11.521, 1510.781 12.158 C 1510.568 12.795, 1508.919 13.274, 1507.115 13.222 C 1504.654 13.152, 1503.973 13.487, 1504.386 14.565 C 1504.689 15.354, 1504.501 16, 1503.969 16 C 1503.436 16, 1503 15.100, 1503 14 C 1503 12.900, 1502.438 11.966, 1501.750 11.923 C 1501.063 11.881, 1499.667 11.690, 1498.649 11.497 C 1497.631 11.305, 1495.255 12.014, 1493.369 13.074 C 1491.483 14.133, 1489.106 15, 1488.089 15 C 1487.071 15, 1483.228 16.133, 1479.549 17.518 C 1475.870 18.903, 1473.114 19.625, 1473.424 19.123 C 1474.225 17.826, 1471.841 17.117, 1468.701 17.717 C 1465.159 18.394, 1458.786 17.155, 1459.539 15.936 C 1459.888 15.373, 1458.550 15.048, 1456.317 15.153 C 1451.598 15.375, 1448.953 14.286, 1449.670 12.417 C 1450.071 11.372, 1449.354 11, 1446.940 11 C 1445.140 11, 1443.960 10.707, 1444.318 10.349 C 1445.395 9.271, 1441.693 7.066, 1438.750 7.032 C 1436.958 7.011, 1436 7.523, 1436 8.500 C 1436 9.325, 1435.357 10, 1434.571 10 C 1433.786 10, 1432.381 10.762, 1431.449 11.693 C 1429.858 13.285, 1429.681 13.285, 1428.518 11.693 C 1426.854 9.418, 1425 9.549, 1425 11.941 C 1425 14.573, 1423.388 15.395, 1422.446 13.244 C 1422.026 12.285, 1421.749 11.179, 1421.829 10.786 C 1422.038 9.769, 1418.641 11.143, 1417.792 12.419 C 1417.296 13.164, 1416.746 13.146, 1415.957 12.357 C 1414.519 10.919, 1411.316 11.735, 1410.548 13.735 C 1410.037 15.068, 1409.673 15.022, 1407.807 13.386 C 1406.624 12.349, 1405.966 12.031, 1406.344 12.681 C 1406.723 13.330, 1406.575 14.144, 1406.016 14.490 C 1405.457 14.835, 1405 14.465, 1405 13.666 C 1405 12.867, 1404.397 11.982, 1403.659 11.700 C 1401.740 10.963, 1399.598 12.541, 1400.511 14.018 C 1401.013 14.830, 1400.798 15.090, 1399.889 14.769 C 1399.125 14.500, 1398.618 13.257, 1398.762 12.008 C 1398.976 10.146, 1398.767 9.949, 1397.601 10.916 C 1396.677 11.683, 1395.960 11.745, 1395.557 11.092 C 1394.648 9.621, 1391.792 11.016, 1392.411 12.629 C 1392.700 13.383, 1392.501 14.056, 1391.969 14.125 C 1390.104 14.366, 1389.485 14.579, 1387.500 15.666 C 1384.903 17.087, 1379 16.199, 1379 14.387 C 1379 12.365, 1374.645 12.672, 1370.529 14.984 C 1367.006 16.962, 1366.993 16.962, 1365.758 14.984 C 1365.076 13.893, 1364.158 13, 1363.718 13 C 1363.277 13, 1361.950 12.100, 1360.770 11 C 1358.349 8.745, 1355.992 8.373, 1356.015 10.250 C 1356.043 12.541, 1357.779 14.299, 1359.399 13.677 C 1360.280 13.339, 1361 13.541, 1361 14.125 C 1361 14.709, 1360.100 15.423, 1359 15.710 C 1357.900 15.998, 1357 16.835, 1357 17.570 C 1357 19.509, 1351.250 16.063, 1350.648 13.763 C 1350.357 12.651, 1349.230 12, 1347.594 12 C 1346.004 12, 1345 11.443, 1345 10.562 C 1345 9.618, 1345.932 9.188, 1347.711 9.312 C 1349.636 9.445, 1350.532 8.964, 1350.803 7.650 C 1351.136 6.036, 1350.759 5.893, 1347.843 6.531 C 1346.004 6.932, 1343.391 8.130, 1342.035 9.193 C 1340.142 10.678, 1339.446 10.822, 1339.035 9.813 C 1337.898 7.024, 1331.647 7.917, 1332.721 10.715 C 1333.133 11.789, 1332.949 12.087, 1332.170 11.605 C 1331.526 11.207, 1331 9.973, 1331 8.862 C 1331 7.137, 1330.561 6.938, 1328 7.500 C 1325.972 7.946, 1325 7.772, 1325 6.963 C 1325 6.215, 1324.029 5.952, 1322.410 6.262 C 1320.986 6.534, 1318.483 6.090, 1316.848 5.274 C 1313.529 3.618, 1311.708 4.334, 1314.341 6.260 C 1315.785 7.317, 1315.368 7.514, 1311.518 7.596 C 1308.351 7.663, 1307 7.289, 1307 6.346 C 1307 4.752, 1305.322 4.534, 1304.813 6.062 C 1304.564 6.807, 1303.592 6.795, 1301.562 6.024 C 1299.420 5.209, 1298.482 5.221, 1297.958 6.068 C 1297.549 6.730, 1296.351 6.929, 1295.120 6.538 C 1293.681 6.081, 1292.804 6.347, 1292.417 7.356 C 1291.996 8.453, 1290.910 8.697, 1288.322 8.277 C 1286.281 7.946, 1284.522 8.155, 1284.140 8.773 C 1283.698 9.489, 1282.167 9.220, 1279.490 7.954 C 1277.296 6.917, 1274.713 6.053, 1273.750 6.034 C 1271.829 5.997, 1271.415 8.015, 1273.015 9.615 C 1273.703 10.303, 1273.526 11.643, 1272.468 13.763 C 1270.698 17.312, 1267.216 18.950, 1265.890 16.857 C 1265.418 16.111, 1265.024 15.870, 1265.015 16.321 C 1264.998 17.269, 1262 14.468, 1262 13.504 C 1262 13.153, 1262.847 13.134, 1263.882 13.462 C 1265.097 13.848, 1265.983 13.486, 1266.385 12.440 C 1268.017 8.187, 1263.850 9.463, 1257.692 15.101 C 1256.228 16.442, 1255.420 16.542, 1253.450 15.628 C 1252.111 15.008, 1251.012 14.162, 1251.008 13.750 C 1250.992 12.278, 1245.698 13.031, 1244.494 14.677 C 1243.751 15.693, 1241.540 16.478, 1238.884 16.668 C 1235.328 16.923, 1233.933 16.492, 1231.500 14.382 C 1229.850 12.951, 1229.063 12.081, 1229.750 12.449 C 1230.438 12.817, 1231 12.690, 1231 12.166 C 1231 11.642, 1230.325 10.955, 1229.500 10.638 C 1228.675 10.322, 1228 10.529, 1228 11.099 C 1228 11.672, 1226.995 11.885, 1225.750 11.577 C 1224.513 11.270, 1224.037 11.268, 1224.694 11.574 C 1226.287 12.315, 1225.184 15, 1223.286 15 C 1222.364 15, 1222.008 14.422, 1222.362 13.500 C 1222.749 12.491, 1222.315 12, 1221.036 12 C 1219.974 12, 1218.836 12.941, 1218.458 14.132 C 1217.967 15.681, 1217.565 15.914, 1216.992 14.986 C 1216.557 14.284, 1215.464 13.992, 1214.563 14.337 C 1213.556 14.724, 1212.692 14.361, 1212.323 13.398 C 1211.868 12.214, 1210.898 11.984, 1208.360 12.460 C 1206.288 12.849, 1205 12.690, 1205 12.045 C 1205 10.453, 1203.602 10.790, 1201.295 12.940 C 1199.033 15.047, 1198 14.700, 1198 11.833 C 1198 9.627, 1196.169 9.396, 1195.362 11.500 C 1194.737 13.127, 1192 13.589, 1192 12.067 C 1192 11.554, 1190.987 10.819, 1189.750 10.433 C 1188.513 10.046, 1187.200 9.262, 1186.832 8.689 C 1185.646 6.840, 1182.368 7.008, 1180.198 9.030 C 1179.035 10.114, 1176.913 11, 1175.483 11 C 1173.829 11, 1173.132 11.405, 1173.569 12.112 C 1174.656 13.870, 1171.860 14.964, 1167.635 14.433 C 1164.871 14.086, 1163.436 14.387, 1162.630 15.485 C 1162.008 16.331, 1160.600 17.204, 1159.500 17.426 C 1158.400 17.647, 1156.712 18.140, 1155.750 18.521 C 1154.659 18.953, 1154 18.753, 1154 17.990 C 1154 17.180, 1153.240 17.004, 1151.750 17.470 C 1148.569 18.463, 1144.653 18.165, 1142.405 16.758 C 1141.802 16.381, 1139.327 15.758, 1136.905 15.373 C 1134.482 14.988, 1131.139 13.912, 1129.476 12.981 C 1126.129 11.107, 1122.464 11.801, 1120.250 14.729 C 1119.220 16.091, 1119 16.120, 1119 14.898 C 1119 14.010, 1117.391 12.984, 1115 12.346 C 1111.839 11.502, 1111 11.550, 1111 12.576 C 1111 13.538, 1109.638 13.748, 1105.750 13.387 C 1102.862 13.119, 1099.285 12.856, 1097.801 12.803 C 1096.316 12.751, 1094.868 12.099, 1094.582 11.354 C 1094.297 10.609, 1093.374 10, 1092.531 10 C 1091.689 10, 1091 9.561, 1091 9.025 C 1091 8.391, 1090.102 8.391, 1088.435 9.025 C 1084.973 10.341, 1081 10.258, 1081 8.869 C 1081 7.217, 1073.769 8.595, 1072.366 10.515 C 1071.738 11.373, 1069.731 12.504, 1067.906 13.027 C 1065.029 13.852, 1064.248 13.655, 1062.044 11.547 C 1058.260 7.929, 1055.162 7.072, 1051.846 8.727 C 1050.302 9.497, 1048.779 10.548, 1048.461 11.063 C 1048.142 11.578, 1046.839 12, 1045.563 12 C 1044.288 12, 1042.707 12.648, 1042.049 13.441 C 1041.392 14.233, 1040.212 14.635, 1039.427 14.334 C 1038.556 13.999, 1038 14.412, 1038 15.393 C 1038 17.158, 1037.483 17.256, 1034.500 16.053 C 1033.361 15.594, 1031.962 15.677, 1031.250 16.246 C 1030.360 16.957, 1030 16.808, 1030 15.729 C 1030 14.061, 1028.168 13.061, 1026.306 13.712 C 1025.650 13.941, 1025.362 14.780, 1025.668 15.576 C 1026.062 16.605, 1025.741 16.838, 1024.557 16.384 C 1023.057 15.808, 1023.095 15.528, 1024.946 13.558 C 1026.076 12.355, 1027 11.017, 1027 10.585 C 1027 10.152, 1024.075 10.097, 1020.500 10.462 C 1016.162 10.904, 1014 10.771, 1014 10.062 C 1014 8.699, 1009.325 8.711, 1001.381 10.094 C 995.954 11.039, 994.547 10.945, 991.049 9.402 C 988.822 8.419, 987 7.027, 987 6.308 C 987 5.579, 985.892 5, 984.500 5 C 983.125 5, 982 5.450, 982 6 C 982 6.550, 980.785 7, 979.300 7 C 977.200 7, 976.867 7.267, 977.800 8.200 C 979.513 9.913, 979.294 10.690, 976.921 11.310 C 975.403 11.707, 974.990 11.469, 975.390 10.427 C 976.196 8.325, 972.646 8.628, 970.653 10.831 C 969.741 11.838, 969.334 13.019, 969.748 13.455 C 970.440 14.185, 969.738 14.060, 964 12.433 C 962.900 12.121, 962 11.446, 962 10.933 C 962 10.420, 961.523 10, 960.941 10 C 960.359 10, 960.191 10.500, 960.569 11.112 C 960.947 11.723, 960.636 12.616, 959.878 13.096 C 957.823 14.398, 957.207 14.192, 957.361 12.250 C 957.532 10.092, 953.108 9.212, 951.894 11.163 C 951.211 12.259, 950.688 12.269, 948.990 11.216 C 946.880 9.908, 944.533 10.436, 945.500 12 C 945.793 12.474, 945.506 13.187, 944.862 13.585 C 944.150 14.026, 943.958 13.876, 944.373 13.205 C 944.802 12.512, 943.836 11.928, 941.778 11.636 C 936.450 10.881, 933.366 10.990, 934.810 11.883 C 935.826 12.511, 935.772 12.945, 934.547 13.961 C 933.257 15.032, 933 14.970, 933 13.590 C 933 11.796, 929.124 9.858, 927.500 10.839 C 925.840 11.843, 924 11.881, 924 10.912 C 924 10.410, 923.541 10, 922.981 10 C 922.407 10, 922.223 11.039, 922.558 12.376 C 923.091 14.498, 922.877 14.699, 920.555 14.255 C 918.598 13.881, 918.215 13.446, 919.003 12.496 C 919.761 11.584, 919.628 11.071, 918.526 10.648 C 917.477 10.246, 917 10.678, 917 12.031 C 917 13.114, 916.502 14, 915.893 14 C 915.284 14, 915.043 13.332, 915.356 12.515 C 915.833 11.272, 915.605 11.230, 913.963 12.255 C 912.883 12.929, 912 14.048, 912 14.741 C 912 15.433, 911.592 16, 911.094 16 C 910.595 16, 910.409 15.151, 910.681 14.113 C 911.276 11.838, 909.268 10.332, 907.713 11.887 C 906.896 12.704, 906.898 13.298, 907.722 14.122 C 909.517 15.917, 908.030 18, 904.952 18 C 903.393 18, 901.835 18.457, 901.490 19.016 C 901.144 19.575, 900.518 19.820, 900.097 19.560 C 898.486 18.564, 892.868 17.978, 893.415 18.863 C 894.527 20.662, 889.374 22.935, 885.581 22.319 C 881.559 21.667, 879.687 20, 882.976 20 C 884.800 20, 884.924 19.726, 883.937 17.882 C 882.991 16.114, 882.157 15.850, 878.902 16.286 C 876.665 16.586, 874.722 16.359, 874.348 15.753 C 873.938 15.091, 873.196 15.380, 872.358 16.526 C 870.818 18.631, 870.899 18.692, 868.629 13.750 C 867.681 11.688, 866.252 10, 865.453 10 C 864.654 10, 864 9.487, 864 8.860 C 864 8.233, 863.213 7.123, 862.250 6.392 C 860.264 4.884, 856 4.543, 856 5.892 C 856 6.382, 854.875 7.066, 853.500 7.411 C 852.125 7.756, 851 8.662, 851 9.424 C 851 11.230, 843.852 10.952, 841.569 9.058 C 840.318 8.019, 839.379 7.962, 837.518 8.810 C 835.445 9.754, 835.185 9.680, 835.717 8.296 C 836.203 7.027, 835.870 6.801, 834.170 7.245 C 832.977 7.557, 831.750 7.404, 831.442 6.906 C 831.134 6.408, 829.815 6, 828.511 6 C 826.846 6, 826.044 6.644, 825.820 8.159 C 825.495 10.350, 824.446 10.768, 818 11.277 C 816.075 11.429, 813.889 11.935, 813.143 12.402 C 812.095 13.057, 811.922 12.710, 812.384 10.875 C 812.712 9.569, 812.723 9.062, 812.407 9.750 C 811.694 11.304, 808 11.411, 808 9.878 C 808 9.071, 807.603 9.084, 806.589 9.926 C 805.576 10.766, 804.987 10.787, 804.500 10 C 804.028 9.236, 803.441 9.219, 802.569 9.943 C 801.880 10.515, 801.031 10.697, 800.682 10.349 C 800.334 10, 799.406 10.249, 798.620 10.901 C 797.815 11.568, 796.088 11.809, 794.664 11.452 C 792.810 10.986, 791.660 11.374, 790.346 12.909 C 788.582 14.970, 784 15.840, 784 14.114 C 784 13.132, 777.896 10, 775.982 10 C 775.259 10, 774.979 10.810, 775.290 12 C 775.673 13.467, 775.320 14, 773.965 14 C 772.949 14, 771.835 13.543, 771.490 12.984 C 771.144 12.425, 770.443 12.226, 769.931 12.543 C 769.419 12.859, 768.457 12.782, 767.792 12.372 C 767.128 11.961, 765.481 11.508, 764.133 11.364 C 762.785 11.220, 761.378 10.612, 761.008 10.012 C 760.525 9.232, 759.535 9.226, 757.518 9.993 C 755.022 10.942, 754.849 10.887, 755.994 9.508 C 758.027 7.058, 756.442 6.606, 752.021 8.375 C 746.479 10.592, 745.666 10.466, 746.411 7.500 C 747.012 5.104, 746.846 5, 742.423 5 C 738.086 5, 732 7.462, 732 9.216 C 732 10.135, 728.827 10.255, 726.645 9.417 C 725.810 9.097, 725.371 8.197, 725.670 7.417 C 726.068 6.382, 725.377 6, 723.107 6 C 721.398 6, 720 6.509, 720 7.130 C 720 7.884, 718.585 8.067, 715.750 7.680 C 708.958 6.753, 708.157 6.494, 705.734 4.444 C 699.734 -0.633, 699.602 -0.699, 700.225 1.720 C 700.651 3.373, 700.376 3.908, 699.149 3.812 C 694.224 3.427, 692.956 3.977, 693.527 6.250 C 694.001 8.142, 693.686 8.500, 691.546 8.500 C 689.445 8.500, 689 8.027, 689 5.792 C 689 3.310, 688.707 3.107, 685.490 3.361 C 682.493 3.597, 682.065 3.372, 682.558 1.819 C 683.379 -0.768, 682.015 -0.435, 678.105 2.906 C 674.750 5.774, 671.580 6.947, 665.250 7.665 C 663.013 7.919, 662 7.615, 662 6.690 C 662 5.766, 661.064 5.484, 659 5.787 C 657.350 6.029, 656 6.821, 656 7.546 C 656 10.095, 651.970 10.320, 649.409 7.914 C 647.862 6.461, 645.094 5.385, 641.744 4.934 C 635.993 4.161, 633.961 5.043, 635.955 7.446 C 637.004 8.710, 636.927 9.091, 635.512 9.634 C 634.569 9.996, 633.506 9.888, 633.149 9.396 C 632.792 8.903, 631.600 8.350, 630.500 8.166 C 629.400 7.983, 628.072 7.420, 627.550 6.916 C 625.921 5.345, 624.743 5.910, 625.290 8 C 625.630 9.300, 625.320 10, 624.406 10 C 623.633 10, 622.986 9.438, 622.968 8.750 C 622.947 7.931, 622.517 8.051, 621.718 9.100 C 621.047 9.980, 619.149 10.947, 617.500 11.249 C 614.624 11.775, 613.132 12.150, 608.318 13.559 C 606.472 14.099, 606.220 13.874, 606.684 12.099 C 607.455 9.154, 605.390 9.418, 600.074 12.945 C 595.671 15.866, 592.783 15.850, 591.800 12.900 C 591.111 10.832, 572.501 10.165, 570.528 12.139 C 570.237 12.430, 567.012 12.179, 563.362 11.580 C 557.927 10.689, 556.576 10.085, 555.895 8.246 C 555.030 5.907, 552.587 5.241, 551.475 7.041 C 551.121 7.613, 549.941 7.799, 548.852 7.453 C 547.343 6.974, 546.947 7.237, 547.186 8.559 C 547.359 9.512, 546.875 10.510, 546.111 10.776 C 545.334 11.047, 545.001 10.808, 545.355 10.235 C 545.703 9.671, 545.316 8.952, 544.494 8.636 C 542.822 7.995, 540 8.819, 540 9.949 C 540 10.353, 537.975 10.714, 535.500 10.751 C 532.263 10.800, 531 10.424, 531 9.410 C 531 8.634, 530.357 8, 529.571 8 C 528.786 8, 527.492 7.349, 526.696 6.553 C 525.678 5.535, 524.397 5.337, 522.375 5.883 C 520.068 6.507, 519.500 7.220, 519.500 9.492 C 519.500 11.121, 518.863 12.538, 518 12.825 C 516.678 13.266, 516.674 13.115, 517.968 11.547 C 519.294 9.942, 519.246 9.805, 517.468 10.141 C 516.386 10.345, 515.056 11.522, 514.513 12.756 C 513.970 13.990, 513.197 15, 512.794 15 C 512.392 15, 512.322 15.675, 512.638 16.500 C 513.003 17.450, 512.625 18, 511.607 18 C 510.723 18, 510 17.627, 510 17.171 C 510 15.835, 499.648 15.956, 498.792 17.302 C 497.591 19.191, 497.863 20, 499.700 20 C 502.542 20, 499.805 21.703, 495.828 22.409 C 493.779 22.773, 491.892 22.634, 491.558 22.094 C 490.235 19.954, 485.356 18.324, 482.942 19.217 C 481.427 19.778, 480.413 19.738, 480.203 19.110 C 480.020 18.561, 479.225 18.360, 478.435 18.663 C 477.508 19.019, 476.995 18.557, 476.985 17.357 C 476.972 15.788, 476.816 15.733, 475.985 17 C 475.122 18.314, 474.883 18.318, 474.057 17.034 C 473.449 16.088, 473.500 15.103, 474.200 14.259 C 475.542 12.642, 474.611 11.552, 472.560 12.339 C 471.681 12.676, 471.284 13.577, 471.624 14.462 C 471.948 15.308, 471.716 16, 471.107 16 C 470.498 16, 470 15.325, 470 14.500 C 470 12.802, 468.434 12.489, 467.500 14 C 466.455 15.691, 465 15.109, 465 13 C 465 11.900, 464.564 11, 464.031 11 C 463.499 11, 463.300 11.618, 463.589 12.372 C 463.929 13.257, 463.207 13.918, 461.558 14.234 C 459.827 14.565, 459 14.282, 459 13.361 C 459 12.613, 458.127 12, 457.059 12 C 455.991 12, 454.866 11.592, 454.558 11.094 C 453.596 9.537, 450 11.133, 450 13.117 C 450 15.496, 449.562 15.476, 446.130 12.938 C 444.139 11.466, 442.578 11.068, 440.671 11.547 C 438.022 12.211, 436.926 14, 439.167 14 C 439.808 14, 440.062 14.271, 439.731 14.602 C 439.400 14.933, 438.100 14.483, 436.842 13.602 C 435.584 12.721, 435.132 12, 435.837 12 C 436.541 12, 436.816 11.511, 436.446 10.913 C 435.962 10.130, 435.470 10.130, 434.687 10.913 C 433.289 12.311, 430.273 12.318, 429.808 10.925 C 429.589 10.268, 428.365 10.121, 426.665 10.548 C 424.866 10.999, 424.068 11.734, 424.409 12.623 C 425.069 14.343, 424.879 14.337, 421.402 12.534 C 419.848 11.727, 418.334 11.429, 418.038 11.871 C 417.742 12.314, 416.535 12.919, 415.355 13.217 C 413.749 13.622, 412.924 13.129, 412.070 11.254 C 411.076 9.073, 410.471 8.824, 407.383 9.325 C 404.468 9.798, 404.038 9.659, 404.967 8.539 C 406.295 6.939, 404.908 5.714, 402.719 6.554 C 401.911 6.864, 400.991 6.419, 400.660 5.557 C 399.825 3.381, 396.278 3.612, 395.041 5.924 C 393.225 9.317, 384.984 12.401, 383.622 10.197 C 382.875 8.988, 368 8.723, 368 9.918 C 368 10.553, 365.598 10.700, 361.500 10.318 C 355.889 9.794, 355 9.936, 355 11.355 C 355 13.027, 353.512 13.618, 352.747 12.250 C 352.517 11.838, 352.465 12.062, 352.633 12.750 C 352.800 13.437, 352.515 14, 352 14 C 351.485 14, 351.200 14.562, 351.367 15.250 C 351.535 15.937, 351.489 16.180, 351.266 15.789 C 351.042 15.398, 349.541 15.342, 347.930 15.664 C 345.994 16.051, 345 15.843, 345 15.052 C 345 14.393, 344.218 14.004, 343.261 14.188 C 342.305 14.372, 340.714 13.714, 339.725 12.725 C 338.736 11.736, 337.510 11.185, 337.001 11.500 C 336.491 11.814, 334.296 10.949, 332.122 9.577 C 327.442 6.623, 324.802 6.894, 320.571 10.763 C 318.365 12.782, 316.704 13.471, 314.671 13.212 C 312.663 12.956, 312.007 12.423, 312.410 11.374 C 312.749 10.492, 312.552 10.159, 311.922 10.548 C 311.342 10.907, 310.286 10.405, 309.575 9.433 C 308.195 7.546, 302.312 6.970, 301.162 8.611 C 300.400 9.697, 296.528 9.697, 293.250 8.611 C 291.856 8.149, 291 8.271, 291 8.933 C 291 9.520, 290.311 10, 289.469 10 C 288.626 10, 287.679 10.672, 287.364 11.493 C 286.981 12.491, 286.016 12.791, 284.453 12.399 C 283.166 12.076, 281.526 12.187, 280.807 12.645 C 280.088 13.104, 277.624 13.538, 275.331 13.610 C 272.176 13.710, 271.290 13.408, 271.688 12.371 C 271.977 11.617, 271.753 11, 271.190 11 C 270.627 11, 269.993 11.521, 269.781 12.158 C 269.568 12.795, 267.919 13.274, 266.115 13.222 C 263.654 13.152, 262.973 13.487, 263.386 14.565 C 263.689 15.354, 263.501 16, 262.969 16 C 262.436 16, 262 15.100, 262 14 C 262 12.900, 261.438 11.966, 260.750 11.923 C 260.063 11.881, 258.667 11.690, 257.649 11.497 C 256.631 11.305, 254.255 12.014, 252.369 13.074 C 250.483 14.133, 248.106 15, 247.089 15 C 246.071 15, 242.228 16.133, 238.549 17.518 C 234.870 18.903, 232.114 19.625, 232.424 19.123 C 233.225 17.826, 230.841 17.117, 227.701 17.717 C 224.159 18.394, 217.786 17.155, 218.539 15.936 C 218.888 15.373, 217.550 15.048, 215.317 15.153 C 210.598 15.375, 207.953 14.286, 208.670 12.417 C 209.071 11.372, 208.354 11, 205.940 11 C 204.140 11, 202.960 10.707, 203.318 10.349 C 204.395 9.271, 200.693 7.066, 197.750 7.032 C 195.958 7.011, 195 7.523, 195 8.500 C 195 9.325, 194.357 10, 193.571 10 C 192.786 10, 191.381 10.762, 190.449 11.693 C 188.858 13.285, 188.681 13.285, 187.518 11.693 C 185.854 9.418, 184 9.549, 184 11.941 C 184 14.573, 182.388 15.395, 181.446 13.244 C 181.026 12.285, 180.749 11.179, 180.829 10.786 C 181.038 9.769, 177.641 11.143, 176.792 12.419 C 176.298 13.160, 175.730 13.130, 174.920 12.320 C 173.578 10.978, 170.884 11.710, 169.659 13.748 C 168.961 14.910, 168.468 14.838, 166.738 13.323 C 165.593 12.320, 164.966 12.031, 165.344 12.681 C 165.723 13.330, 165.575 14.144, 165.016 14.490 C 164.457 14.835, 164 14.465, 164 13.666 C 164 12.867, 163.397 11.982, 162.659 11.700 C 160.740 10.963, 158.598 12.541, 159.511 14.018 C 160.013 14.830, 159.798 15.090, 158.889 14.769 C 158.125 14.500, 157.618 13.257, 157.762 12.008 C 157.976 10.146, 157.767 9.949, 156.601 10.916 C 155.677 11.683, 154.960 11.745, 154.557 11.092 C 153.648 9.621, 150.792 11.016, 151.411 12.629 C 151.700 13.383, 151.501 14.056, 150.969 14.125 C 149.104 14.366, 148.485 14.579, 146.500 15.666 C 143.903 17.087, 138 16.199, 138 14.387 C 138 12.365, 133.645 12.672, 129.529 14.984 C 126.006 16.962, 125.993 16.962, 124.758 14.984 C 124.076 13.893, 123.158 13, 122.718 13 C 122.277 13, 120.950 12.100, 119.770 11 C 117.349 8.745, 114.992 8.373, 115.015 10.250 C 115.043 12.541, 116.779 14.299, 118.399 13.677 C 119.280 13.339, 120 13.541, 120 14.125 C 120 14.709, 119.100 15.423, 118 15.710 C 116.900 15.998, 116 16.835, 116 17.570 C 116 19.509, 110.250 16.063, 109.648 13.763 C 109.357 12.651, 108.230 12, 106.594 12 C 105.004 12, 104 11.443, 104 10.562 C 104 9.618, 104.932 9.188, 106.711 9.312 C 108.636 9.445, 109.532 8.964, 109.803 7.650 C 110.136 6.036, 109.759 5.893, 106.843 6.531 C 105.004 6.932, 102.391 8.130, 101.035 9.193 C 99.142 10.678, 98.446 10.822, 98.035 9.813 C 96.898 7.024, 90.647 7.917, 91.721 10.715 C 92.133 11.789, 91.949 12.087, 91.170 11.605 C 90.526 11.207, 90 9.973, 90 8.862 C 90 7.137, 89.561 6.938, 87 7.500 C 84.972 7.946, 84 7.772, 84 6.963 C 84 6.215, 83.029 5.952, 81.410 6.262 C 79.986 6.534, 77.483 6.090, 75.848 5.274 C 72.529 3.618, 70.708 4.334, 73.341 6.260 C 74.785 7.317, 74.368 7.514, 70.518 7.596 C 67.351 7.663, 66 7.289, 66 6.346 C 66 4.752, 64.322 4.534, 63.813 6.062 C 63.564 6.807, 62.592 6.795, 60.562 6.024 C 58.420 5.209, 57.482 5.221, 56.958 6.068 C 56.549 6.730, 55.351 6.929, 54.120 6.538 C 52.681 6.081, 51.804 6.347, 51.417 7.356 C 50.996 8.453, 49.910 8.697, 47.322 8.277 C 45.281 7.946, 43.522 8.155, 43.140 8.773 C 42.698 9.489, 41.167 9.220, 38.490 7.954 C 36.296 6.917, 33.712 6.053, 32.750 6.034 C 30.829 5.997, 30.415 8.015, 32.015 9.615 C 33.148 10.748, 30.533 17, 28.927 17 C 28.417 17, 28 15.173, 28 12.941 C 28 10.490, 27.604 9.127, 27 9.500 C 26.450 9.840, 26 9.416, 26 8.559 C 26 6.454, 23.366 6.579, 21.992 8.750 C 21.281 9.873, 20.708 10.090, 20.394 9.356 C 20.125 8.727, 19.023 8.443, 17.947 8.724 C 16.870 9.006, 15.322 8.683, 14.507 8.006 C 13.692 7.330, 12.345 7.037, 11.513 7.357 C 10.375 7.793, 10 7.212, 10 5.011 C 10 2.274, 9.770 2.103, 6.462 2.363 C 3.864 2.568, 3.058 2.291, 3.430 1.321 C 3.950 -0.034, 1.862 -0.529, 0.667 0.667 M 0.450 35 C 0.450 53.975, 0.584 61.737, 0.748 52.250 C 0.913 42.762, 0.913 27.237, 0.748 17.750 C 0.584 8.262, 0.450 16.025, 0.450 35 M 632.500 6 C 632.160 6.550, 632.359 7, 632.941 7 C 633.523 7, 634 6.550, 634 6 C 634 5.450, 633.802 5, 633.559 5 C 633.316 5, 632.840 5.450, 632.500 6 M 1873.500 6 C 1873.160 6.550, 1873.359 7, 1873.941 7 C 1874.523 7, 1875 6.550, 1875 6 C 1875 5.450, 1874.802 5, 1874.559 5 C 1874.316 5, 1873.840 5.450, 1873.500 6 M 175 9 C 175 9.550, 175.450 10, 176 10 C 176.550 10, 177 9.550, 177 9 C 177 8.450, 176.550 8, 176 8 C 175.450 8, 175 8.450, 175 9 M 1416 9 C 1416 9.550, 1416.450 10, 1417 10 C 1417.550 10, 1418 9.550, 1418 9 C 1418 8.450, 1417.550 8, 1417 8 C 1416.450 8, 1416 8.450, 1416 9 M 35.667 9.667 C 35.300 10.033, 35 10.798, 35 11.367 C 35 11.993, 35.466 11.934, 36.183 11.217 C 36.834 10.566, 37.134 9.801, 36.850 9.517 C 36.566 9.232, 36.033 9.300, 35.667 9.667 M 1276.667 9.667 C 1276.300 10.033, 1276 10.798, 1276 11.367 C 1276 11.993, 1276.466 11.934, 1277.183 11.217 C 1277.834 10.566, 1278.134 9.801, 1277.850 9.517 C 1277.566 9.232, 1277.033 9.300, 1276.667 9.667 M 356.564 14.293 C 356.940 15.279, 357.499 15.834, 357.807 15.526 C 358.115 15.219, 357.808 14.412, 357.124 13.733 C 356.136 12.753, 356.022 12.868, 356.564 14.293 M 1597.564 14.293 C 1597.940 15.279, 1598.499 15.834, 1598.807 15.526 C 1599.115 15.219, 1598.808 14.412, 1598.124 13.733 C 1597.136 12.753, 1597.022 12.868, 1597.564 14.293 M 222.079 15.583 C 222.127 16.748, 222.364 16.985, 222.683 16.188 C 222.972 15.466, 222.936 14.603, 222.604 14.271 C 222.272 13.939, 222.036 14.529, 222.079 15.583 M 1463.079 15.583 C 1463.127 16.748, 1463.364 16.985, 1463.683 16.188 C 1463.972 15.466, 1463.936 14.603, 1463.604 14.271 C 1463.272 13.939, 1463.036 14.529, 1463.079 15.583 M 1155 16 C 1155 16.550, 1155.450 17, 1156 17 C 1156.550 17, 1157 16.550, 1157 16 C 1157 15.450, 1156.550 15, 1156 15 C 1155.450 15, 1155 15.450, 1155 16 M 461 17 C 461 17.550, 461.477 18, 462.059 18 C 462.641 18, 462.840 17.550, 462.500 17 C 462.160 16.450, 461.684 16, 461.441 16 C 461.198 16, 461 16.450, 461 17 M 466.143 16.907 C 465.137 17.532, 465.090 17.937, 465.960 18.475 C 467.332 19.323, 468.362 18.572, 467.854 17.095 C 467.646 16.489, 466.940 16.412, 466.143 16.907 M 886.339 17.560 C 885.500 19.746, 886.360 20.188, 888.463 18.650 C 890.134 17.429, 890.145 17.270, 888.602 16.678 C 887.563 16.279, 886.701 16.614, 886.339 17.560 M 1702 17 C 1702 17.550, 1702.477 18, 1703.059 18 C 1703.641 18, 1703.840 17.550, 1703.500 17 C 1703.160 16.450, 1702.684 16, 1702.441 16 C 1702.198 16, 1702 16.450, 1702 17 M 1707.143 16.907 C 1706.137 17.532, 1706.090 17.937, 1706.960 18.475 C 1708.332 19.323, 1709.362 18.572, 1708.854 17.095 C 1708.646 16.489, 1707.940 16.412, 1707.143 16.907 M 915 18.059 C 915 18.641, 915.450 18.840, 916 18.500 C 916.550 18.160, 917 17.684, 917 17.441 C 917 17.198, 916.550 17, 916 17 C 915.450 17, 915 17.477, 915 18.059 M 7 57 C 7 57.550, 7.702 58, 8.559 58 C 9.416 58, 9.840 57.550, 9.500 57 C 9.160 56.450, 8.459 56, 7.941 56 C 7.423 56, 7 56.450, 7 57 M 108 56.737 C 105.654 57.173, 104.050 58.574, 104.015 60.219 C 104.007 60.614, 104.720 60.661, 105.601 60.323 C 106.481 59.985, 107.600 60.337, 108.086 61.104 C 108.765 62.177, 108.973 62.025, 108.985 60.450 C 108.993 59.322, 109.540 57.860, 110.200 57.200 C 110.860 56.540, 111.198 56.061, 110.950 56.136 C 110.703 56.211, 109.375 56.481, 108 56.737 M 1349 56.737 C 1346.654 57.173, 1345.050 58.574, 1345.015 60.219 C 1345.007 60.614, 1345.720 60.661, 1346.601 60.323 C 1347.481 59.985, 1348.600 60.337, 1349.086 61.104 C 1349.765 62.177, 1349.973 62.025, 1349.985 60.450 C 1349.993 59.322, 1350.540 57.860, 1351.200 57.200 C 1351.860 56.540, 1352.197 56.061, 1351.950 56.136 C 1351.703 56.211, 1350.375 56.481, 1349 56.737 M 686 58 C 686 58.550, 686.702 59, 687.559 59 C 688.416 59, 688.840 58.550, 688.500 58 C 688.160 57.450, 687.459 57, 686.941 57 C 686.423 57, 686 57.450, 686 58 M 7 59.876 C 7 60.323, 8.170 61.996, 9.600 63.594 C 11.031 65.193, 11.931 65.825, 11.601 65 C 11.271 64.175, 10.732 62.744, 10.402 61.819 C 9.774 60.057, 7 58.472, 7 59.876 M 1072 60.441 C 1072 61.298, 1072.450 62, 1073 62 C 1073.550 62, 1074 61.577, 1074 61.059 C 1074 60.541, 1073.550 59.840, 1073 59.500 C 1072.450 59.160, 1072 59.584, 1072 60.441 M 686 60.876 C 686 61.323, 687.170 62.996, 688.600 64.594 C 690.031 66.193, 690.931 66.825, 690.601 66 C 690.271 65.175, 689.732 63.744, 689.402 62.819 C 688.774 61.057, 686 59.472, 686 60.876 M 1141.500 61 C 1141.160 61.550, 1141.359 62, 1141.941 62 C 1142.523 62, 1143 61.550, 1143 61 C 1143 60.450, 1142.802 60, 1142.559 60 C 1142.316 60, 1141.840 60.450, 1141.500 61 M 1221.487 61.020 C 1221.154 61.559, 1221.584 62, 1222.441 62 C 1223.298 62, 1224 62.450, 1224 63 C 1224 63.550, 1224.450 64, 1225 64 C 1226.638 64, 1226.139 62.568, 1224.046 61.261 C 1222.816 60.493, 1221.869 60.404, 1221.487 61.020 M 263.500 62 C 263.160 62.550, 263.584 63, 264.441 63 C 265.298 63, 266 62.550, 266 62 C 266 61.450, 265.577 61, 265.059 61 C 264.541 61, 263.840 61.450, 263.500 62 M 1145.114 61.929 C 1144.255 62.461, 1144.152 62.976, 1144.824 63.391 C 1145.395 63.744, 1146.163 63.545, 1146.531 62.950 C 1147.449 61.464, 1146.719 60.938, 1145.114 61.929 M 1504.500 62 C 1504.160 62.550, 1504.584 63, 1505.441 63 C 1506.298 63, 1507 62.550, 1507 62 C 1507 61.450, 1506.577 61, 1506.059 61 C 1505.541 61, 1504.840 61.450, 1504.500 62 M 123 64 C 123 64.550, 123.450 65, 124 65 C 124.550 65, 125 64.550, 125 64 C 125 63.450, 124.550 63, 124 63 C 123.450 63, 123 63.450, 123 64 M 1364 64 C 1364 64.550, 1364.450 65, 1365 65 C 1365.550 65, 1366 64.550, 1366 64 C 1366 63.450, 1365.550 63, 1365 63 C 1364.450 63, 1364 63.450, 1364 64 M 30 66 C 30 66.550, 30.450 67, 31 67 C 31.550 67, 32 66.550, 32 66 C 32 65.450, 31.550 65, 31 65 C 30.450 65, 30 65.450, 30 66 M 1118.564 66.293 C 1118.940 67.279, 1119.499 67.834, 1119.807 67.526 C 1120.115 67.219, 1119.808 66.412, 1119.124 65.733 C 1118.136 64.753, 1118.022 64.868, 1118.564 66.293 M 1271 66 C 1271 66.550, 1271.450 67, 1272 67 C 1272.550 67, 1273 66.550, 1273 66 C 1273 65.450, 1272.550 65, 1272 65 C 1271.450 65, 1271 65.450, 1271 66 M 612 68 C 612 68.550, 612.450 69, 613 69 C 613.550 69, 614 68.550, 614 68 C 614 67.450, 613.550 67, 613 67 C 612.450 67, 612 67.450, 612 68 M 1080 68 C 1080 68.550, 1080.450 69, 1081 69 C 1081.550 69, 1082 68.550, 1082 68 C 1082 67.450, 1081.550 67, 1081 67 C 1080.450 67, 1080 67.450, 1080 68 M 1853 68 C 1853 68.550, 1853.450 69, 1854 69 C 1854.550 69, 1855 68.550, 1855 68 C 1855 67.450, 1854.550 67, 1854 67 C 1853.450 67, 1853 67.450, 1853 68 M 454.150 68.950 C 454.370 69.610, 454.876 70.116, 455.275 70.075 C 456.471 69.951, 456.239 68.580, 454.950 68.150 C 454.290 67.930, 453.930 68.290, 454.150 68.950 M 1695.150 68.950 C 1695.370 69.610, 1695.876 70.116, 1696.275 70.075 C 1697.471 69.951, 1697.239 68.580, 1695.950 68.150 C 1695.290 67.930, 1694.930 68.290, 1695.150 68.950 M 428 76.559 C 428 77.416, 428.457 77.835, 429.016 77.490 C 429.575 77.144, 429.774 76.443, 429.457 75.931 C 428.600 74.544, 428 74.802, 428 76.559 M 1669 76.559 C 1669 77.416, 1669.457 77.835, 1670.016 77.490 C 1670.575 77.144, 1670.774 76.443, 1670.457 75.931 C 1669.600 74.544, 1669 74.802, 1669 76.559 M 379.965 81.542 C 378.053 83.845, 380.148 85.549, 382.831 83.873 C 384.371 82.912, 384.625 82.253, 383.827 81.291 C 382.426 79.603, 381.525 79.662, 379.965 81.542 M 1620.965 81.542 C 1619.053 83.845, 1621.148 85.549, 1623.831 83.873 C 1625.371 82.912, 1625.625 82.253, 1624.827 81.291 C 1623.426 79.603, 1622.525 79.662, 1620.965 81.542 M 6.750 84.743 C 10.738 84.932, 17.263 84.932, 21.250 84.743 C 25.238 84.553, 21.975 84.397, 14 84.397 C 6.025 84.397, 2.762 84.553, 6.750 84.743 " stroke="none" fill="black" fill-rule="evenodd"/>
</svg>