<!DOCTYPE svg PUBLIC "-//W3C//DTD SVG 20010904//EN" "http://www.w3.org/TR/2001/REC-SVG-20010904/DTD/svg10.dtd">
<svg version="1.0" xmlns="http://www.w3.org/2000/svg" width="322px" height="324px" viewBox="0 0 3220 3240" preserveAspectRatio="xMidYMid meet">
<g id="layer101" fill="#000000" stroke="none">
<path d="M1110 3192 c0 -4 -23 -9 -52 -10 -28 -1 -54 -5 -57 -7 -3 -3 -5 -21 -4 -40 1 -28 -3 -35 -27 -44 -16 -5 -36 -23 -45 -40 -9 -19 -23 -31 -36 -31 -11 0 -17 -4 -14 -10 10 -16 -7 -11 -19 6 -7 8 -18 12 -28 9 -18 -7 -32 -50 -22 -66 3 -6 -3 -13 -14 -16 -12 -3 -18 -11 -16 -18 3 -8 -1 -29 -10 -47 -8 -18 -16 -44 -18 -58 -2 -15 -9 -24 -17 -22 -12 3 -36 -21 -40 -40 -1 -4 -9 -24 -17 -43 -8 -20 -12 -40 -9 -44 2 -5 -6 -16 -19 -24 -21 -14 -25 -14 -40 1 -12 12 -34 17 -71 17 -30 0 -55 -3 -55 -7 0 -4 -22 -10 -50 -14 -35 -5 -50 -11 -50 -22 0 -14 -29 -13 -71 3 -11 4 -18 0 -22 -14 -3 -13 -13 -21 -27 -21 -15 0 -20 -5 -17 -14 4 -10 1 -13 -7 -10 -8 3 -17 0 -21 -5 -3 -6 -11 -8 -17 -5 -15 9 -28 -17 -21 -44 3 -12 -1 -30 -8 -39 -12 -14 -11 -15 9 -9 29 9 31 -19 2 -34 -14 -7 -21 -25 -26 -61 -6 -42 -11 -52 -33 -60 -20 -8 -22 -12 -11 -19 11 -7 11 -10 2 -10 -7 0 -15 7 -18 15 -7 17 -24 20 -24 4 0 -6 -7 -17 -15 -25 -15 -16 -11 -63 7 -75 5 -3 2 -12 -7 -19 -9 -8 -13 -20 -9 -29 9 -22 15 -61 15 -88 0 -12 4 -34 9 -48 9 -23 8 -26 -8 -21 -16 5 -19 1 -19 -26 0 -17 -4 -33 -10 -35 -12 -4 -6 -43 6 -43 4 0 6 -18 4 -40 -2 -23 1 -40 7 -40 6 0 3 -11 -6 -25 -8 -13 -13 -28 -10 -34 3 -5 1 -11 -6 -13 -17 -6 19 -118 38 -118 12 0 12 -4 3 -21 -8 -15 -8 -19 0 -15 14 9 14 0 -1 -24 -10 -16 -10 -24 0 -40 7 -11 8 -20 3 -20 -5 0 -8 -16 -7 -35 2 -19 -1 -35 -5 -35 -14 0 -10 -34 7 -58 8 -12 10 -22 5 -22 -6 0 -11 5 -11 10 0 15 -17 12 -39 -7 -15 -12 -17 -21 -11 -34 8 -14 20 -20 73 -34 21 -6 20 -8 -8 -15 -27 -6 -28 -8 -10 -15 44 -20 64 -46 58 -79 -3 -17 -10 -33 -14 -37 -5 -3 -5 -20 0 -37 6 -20 6 -30 0 -27 -5 4 -9 2 -9 -4 0 -6 9 -15 20 -21 11 -6 18 -15 15 -20 -3 -5 -1 -11 5 -15 5 -3 7 -17 4 -31 -4 -17 -2 -24 8 -24 8 0 21 -11 28 -25 14 -26 25 -31 34 -16 4 5 20 -4 37 -21 16 -17 27 -33 24 -36 -3 -3 2 -14 12 -24 9 -11 16 -33 15 -54 -1 -28 3 -37 18 -41 11 -3 16 -11 13 -19 -3 -9 5 -18 25 -25 19 -6 32 -19 36 -35 4 -13 11 -24 17 -24 6 0 25 -12 42 -26 18 -16 33 -22 35 -15 4 11 101 -37 135 -67 9 -8 20 -12 24 -9 3 4 17 0 31 -9 17 -11 27 -13 32 -5 4 8 15 3 34 -14 15 -14 37 -25 49 -25 12 0 32 -12 46 -27 15 -18 25 -24 28 -15 3 6 13 12 23 12 10 0 21 7 24 16 7 18 71 16 71 -3 0 -21 35 -55 51 -49 8 3 14 -1 14 -10 0 -8 4 -12 10 -9 12 7 24 -40 15 -56 -4 -6 4 -21 20 -34 19 -17 25 -30 21 -43 -4 -13 -1 -22 9 -26 8 -3 15 -17 15 -31 0 -18 5 -25 19 -25 21 0 44 -23 34 -34 -4 -4 3 -9 15 -13 12 -3 22 -10 22 -17 0 -14 38 -38 50 -31 5 3 15 -3 22 -12 34 -47 145 -71 196 -44 20 11 27 10 42 -4 10 -9 23 -14 29 -11 5 3 33 11 62 16 38 7 61 19 79 39 21 22 33 27 57 24 25 -4 32 -1 38 16 3 12 11 21 16 21 5 0 9 6 9 13 0 6 16 32 35 56 19 24 36 56 36 70 2 29 5 59 7 79 1 6 16 12 32 12 17 0 30 5 30 10 0 7 7 7 21 -1 22 -11 38 0 39 26 0 6 3 5 8 -1 12 -19 36 -22 48 -6 12 17 92 23 97 7 2 -5 27 -10 55 -10 29 0 52 -4 52 -8 0 -13 27 -37 41 -37 7 0 24 12 37 28 13 15 21 21 17 15 -4 -8 0 -13 9 -13 9 0 16 7 16 15 0 20 10 19 25 -2 10 -14 16 -15 28 -5 11 9 22 10 43 2 15 -6 33 -9 41 -6 7 3 13 1 13 -4 0 -6 9 -10 20 -10 11 0 20 5 20 12 0 6 3 8 7 5 3 -4 15 0 25 10 10 9 18 11 18 6 0 -16 62 -22 77 -8 6 7 9 22 6 34 -4 15 -1 21 11 21 9 0 19 8 23 18 8 23 44 52 66 52 10 0 20 7 24 16 3 8 11 13 18 10 7 -2 16 -2 20 2 4 4 11 8 16 8 5 1 12 2 15 3 4 0 0 9 -7 18 -10 11 -10 14 -1 9 16 -10 15 6 -3 30 -20 27 -18 37 5 24 19 -10 20 -10 8 10 -11 18 -10 23 6 35 10 7 15 18 12 24 -4 5 3 12 14 16 11 3 20 10 20 15 0 5 7 7 15 4 10 -4 15 0 15 14 0 11 7 28 16 36 8 9 18 33 21 53 3 21 10 43 15 50 14 18 -1 56 -19 48 -14 -5 -14 -3 -2 11 8 10 14 29 15 43 2 93 4 103 24 108 21 6 26 18 11 27 -4 3 -6 16 -4 28 3 14 -3 31 -15 43 -16 17 -17 26 -9 55 5 19 13 39 18 45 5 5 9 19 9 32 0 13 4 23 8 23 9 0 11 11 15 104 3 70 -7 96 -39 96 -8 0 -14 5 -14 10 0 6 5 10 11 10 5 0 7 5 4 10 -4 7 3 8 22 4 23 -5 26 -4 16 7 -15 16 -17 49 -3 49 6 0 10 -8 10 -17 0 -13 5 -11 18 10 9 15 22 27 29 27 15 0 17 36 3 45 -5 3 -10 19 -10 36 0 16 -4 29 -8 29 -4 0 -14 21 -21 47 -13 44 -13 47 7 63 12 10 18 20 15 24 -12 11 -23 6 -23 -11 0 -11 -3 -14 -10 -7 -5 5 -7 19 -3 32 4 18 8 20 19 11 18 -14 64 -3 64 16 0 7 -4 17 -10 20 -5 3 -10 17 -10 31 0 13 -4 24 -8 24 -5 0 -17 7 -28 16 -19 15 -18 15 4 11 29 -7 29 11 0 22 -22 8 -22 9 12 40 32 28 33 31 12 31 -13 0 -22 -6 -22 -15 0 -19 -16 -20 -23 -1 -7 18 3 56 14 56 5 0 9 7 9 16 0 8 -4 12 -10 9 -5 -3 -10 -2 -10 2 0 5 9 14 19 20 22 14 24 53 4 53 -7 0 -13 5 -13 11 0 6 -9 9 -20 6 -14 -3 -20 0 -20 10 0 19 -48 65 -60 58 -4 -3 -11 6 -14 20 -7 28 -41 34 -78 14 -25 -13 -27 -11 -31 32 -2 29 -6 34 -25 31 -15 -2 -22 2 -22 12 0 9 -7 16 -15 16 -9 0 -18 7 -22 16 -4 12 -14 14 -36 10 -26 -5 -29 -4 -24 16 11 40 -2 66 -30 63 -17 -2 -35 6 -50 21 -28 28 -33 29 -33 10 0 -8 -11 -13 -26 -13 -17 0 -22 2 -13 7 10 7 10 11 0 24 -8 9 -19 16 -27 16 -7 0 -14 10 -16 23 -2 12 -9 21 -17 19 -7 -1 -18 11 -24 28 -7 17 -19 30 -29 30 -9 0 -21 6 -25 14 -4 7 -23 21 -41 30 -26 13 -37 15 -47 6 -18 -15 -42 6 -47 41 -2 16 -11 25 -25 27 -13 2 -23 9 -23 17 0 7 -15 16 -32 20 -49 10 -98 28 -98 36 0 4 -11 6 -25 4 -18 -1 -25 3 -25 14 0 12 -17 20 -66 29 -36 7 -83 21 -104 32 -43 22 -80 26 -96 10 -7 -7 -26 -7 -60 0 -27 6 -53 11 -59 10 -71 -5 -80 -4 -77 8 1 8 -2 11 -8 7 -5 -3 -10 -2 -10 4 0 6 -17 13 -37 17 -21 4 -44 14 -50 23 -11 14 -14 14 -22 2 -6 -10 -32 -16 -76 -18 -66 -3 -67 -2 -78 27 -11 29 -52 50 -108 56 -9 0 -29 4 -44 8 -17 4 -31 3 -35 -4 -4 -7 -15 -4 -32 10 -27 21 -48 26 -48 12z m117 -505 c-12 -25 -49 -43 -67 -32 -13 8 12 51 40 67 32 18 45 2 27 -35z m1879 -514 c-3 -6 0 -14 7 -17 7 -2 8 -5 2 -5 -18 -1 -35 15 -40 37 -3 19 -2 20 16 9 10 -6 17 -17 15 -24z m-2603 -9 c-4 -10 -9 -12 -15 -6 -12 12 -1 35 12 27 5 -3 6 -13 3 -21z m2090 -1338 c-5 -26 -44 -43 -66 -29 -7 4 -16 8 -21 8 -5 0 -11 5 -13 12 -3 8 6 11 28 8 24 -3 36 1 47 16 17 25 31 17 25 -15z m-1238 -412 c8 3 15 1 15 -5 0 -6 7 -9 15 -5 9 3 15 0 15 -10 0 -8 8 -18 18 -21 9 -4 24 -15 33 -24 18 -20 80 -23 73 -4 -3 7 2 15 11 19 9 3 13 2 10 -3 -10 -17 16 -23 33 -8 19 16 82 5 82 -15 0 -25 -42 -77 -73 -89 -17 -7 -44 -21 -59 -31 -25 -17 -30 -18 -49 -4 -15 10 -28 12 -45 6 -26 -10 -74 3 -74 20 0 5 -8 10 -19 10 -13 0 -21 10 -25 33 -3 17 -9 43 -12 57 -3 14 -7 41 -8 61 -1 36 -1 36 21 22 13 -9 30 -13 38 -9z"/>
</g>
<g id="layer102" fill="#df1616" stroke="none">
<path d="M1110 3192 c0 -4 -23 -9 -52 -10 -28 -1 -54 -5 -57 -7 -3 -3 -5 -21 -4 -40 1 -28 -3 -35 -27 -44 -16 -5 -36 -23 -45 -40 -9 -19 -23 -31 -36 -31 -11 0 -17 -4 -14 -10 10 -16 -7 -11 -19 6 -7 8 -18 12 -28 9 -18 -7 -32 -50 -22 -66 3 -6 -3 -13 -14 -16 -12 -3 -18 -11 -16 -18 3 -8 -1 -29 -10 -47 -8 -18 -16 -44 -18 -58 -2 -15 -9 -24 -17 -22 -12 3 -36 -21 -40 -40 -1 -4 -9 -24 -17 -43 -8 -20 -12 -40 -9 -44 2 -5 -6 -16 -19 -24 -21 -14 -25 -14 -40 1 -12 12 -34 17 -71 17 -30 0 -55 -3 -55 -7 0 -4 -22 -10 -50 -14 -35 -5 -50 -11 -50 -22 0 -14 -29 -13 -71 3 -11 4 -18 0 -22 -14 -3 -13 -13 -21 -27 -21 -15 0 -20 -5 -17 -14 4 -10 1 -13 -7 -10 -8 3 -17 0 -21 -5 -3 -6 -11 -8 -17 -5 -15 9 -28 -17 -21 -44 3 -12 -1 -30 -8 -39 -12 -14 -11 -15 9 -9 29 9 31 -19 2 -34 -14 -7 -21 -25 -26 -61 -6 -42 -11 -52 -33 -60 -20 -8 -22 -12 -11 -19 11 -7 11 -10 2 -10 -7 0 -15 7 -18 15 -7 17 -24 20 -24 4 0 -6 -7 -17 -15 -25 -15 -16 -11 -63 7 -75 5 -3 2 -12 -7 -19 -9 -8 -13 -20 -9 -29 9 -22 15 -61 15 -88 0 -12 4 -34 9 -48 9 -23 8 -26 -8 -21 -16 5 -19 1 -19 -26 0 -17 -4 -33 -10 -35 -12 -4 -6 -43 6 -43 4 0 6 -18 4 -40 -2 -23 1 -40 7 -40 6 0 3 -11 -6 -25 -8 -13 -13 -28 -10 -34 3 -5 1 -11 -6 -13 -17 -6 19 -118 38 -118 12 0 12 -4 3 -21 -8 -15 -8 -19 0 -15 14 9 14 0 -1 -24 -10 -16 -10 -24 0 -40 7 -11 8 -20 3 -20 -5 0 -8 -16 -7 -35 2 -19 -1 -35 -5 -35 -14 0 -10 -34 7 -58 8 -12 10 -22 5 -22 -6 0 -11 5 -11 10 0 15 -17 12 -39 -7 -15 -12 -17 -21 -11 -34 8 -14 20 -20 73 -34 21 -6 20 -8 -8 -15 -27 -6 -28 -8 -10 -15 44 -20 64 -46 58 -79 -3 -17 -10 -33 -14 -37 -5 -3 -5 -20 0 -37 6 -20 6 -30 0 -27 -5 4 -9 2 -9 -4 0 -6 9 -15 20 -21 11 -6 18 -15 15 -20 -3 -5 -1 -11 5 -15 5 -3 7 -17 4 -31 -4 -17 -2 -24 8 -24 8 0 21 -11 28 -25 14 -26 25 -31 34 -16 4 5 20 -4 37 -21 16 -17 27 -33 24 -36 -3 -3 2 -14 12 -24 9 -11 16 -33 15 -54 -1 -28 3 -37 18 -41 11 -3 16 -11 13 -19 -3 -9 5 -18 25 -25 19 -6 32 -19 36 -35 4 -13 11 -24 17 -24 6 0 25 -12 42 -26 18 -16 33 -22 35 -15 4 11 101 -37 135 -67 9 -8 20 -12 24 -9 3 4 17 0 31 -9 17 -11 27 -13 32 -5 4 8 15 3 34 -14 15 -14 37 -25 49 -25 12 0 32 -12 46 -27 15 -18 25 -24 28 -15 3 6 13 12 23 12 10 0 21 7 24 16 7 18 71 16 71 -3 0 -21 35 -55 51 -49 8 3 14 -1 14 -10 0 -8 4 -12 10 -9 12 7 24 -40 15 -56 -4 -6 4 -21 20 -34 19 -17 25 -30 21 -43 -4 -13 -1 -22 9 -26 8 -3 15 -17 15 -31 0 -18 5 -25 19 -25 21 0 44 -23 34 -34 -4 -4 3 -9 15 -13 12 -3 22 -10 22 -17 0 -14 38 -38 50 -31 5 3 15 -3 22 -12 34 -47 145 -71 196 -44 20 11 27 10 42 -4 10 -9 23 -14 29 -11 5 3 33 11 62 16 38 7 61 19 79 39 21 22 33 27 57 24 25 -4 32 -1 38 16 3 12 11 21 16 21 5 0 9 6 9 13 0 6 16 32 35 56 19 24 36 56 36 70 2 29 5 59 7 79 1 6 16 12 32 12 17 0 30 5 30 10 0 7 7 7 21 -1 22 -11 38 0 39 26 0 6 3 5 8 -1 12 -19 36 -22 48 -6 12 17 92 23 97 7 2 -5 27 -10 55 -10 29 0 52 -4 52 -8 0 -13 27 -37 41 -37 7 0 24 12 37 28 13 15 21 21 17 15 -4 -8 0 -13 9 -13 9 0 16 7 16 15 0 20 10 19 25 -2 10 -14 16 -15 28 -5 11 9 22 10 43 2 15 -6 33 -9 41 -6 7 3 13 1 13 -4 0 -6 9 -10 20 -10 11 0 20 5 20 12 0 6 3 8 7 5 3 -4 15 0 25 10 10 9 18 11 18 6 0 -16 62 -22 77 -8 6 7 9 22 6 34 -4 15 -1 21 11 21 9 0 19 8 23 18 8 23 44 52 66 52 10 0 20 7 24 16 3 8 11 13 18 10 7 -2 16 -2 20 2 4 4 11 8 16 8 5 1 12 2 15 3 4 0 0 9 -7 18 -10 11 -10 14 -1 9 16 -10 15 6 -3 30 -20 27 -18 37 5 24 19 -10 20 -10 8 10 -11 18 -10 23 6 35 10 7 15 18 12 24 -4 5 3 12 14 16 11 3 20 10 20 15 0 5 7 7 15 4 10 -4 15 0 15 14 0 11 7 28 16 36 8 9 18 33 21 53 3 21 10 43 15 50 14 18 -1 56 -19 48 -14 -5 -14 -3 -2 11 8 10 14 29 15 43 2 93 4 103 24 108 21 6 26 18 11 27 -4 3 -6 16 -4 28 3 14 -3 31 -15 43 -16 17 -17 26 -9 55 5 19 13 39 18 45 5 5 9 19 9 32 0 13 4 23 8 23 9 0 11 11 15 104 3 70 -7 96 -39 96 -8 0 -14 5 -14 10 0 6 5 10 11 10 5 0 7 5 4 10 -4 7 3 8 22 4 23 -5 26 -4 16 7 -15 16 -17 49 -3 49 6 0 10 -8 10 -17 0 -13 5 -11 18 10 9 15 22 27 29 27 15 0 17 36 3 45 -5 3 -10 19 -10 36 0 16 -4 29 -8 29 -4 0 -14 21 -21 47 -13 44 -13 47 7 63 12 10 18 20 15 24 -12 11 -23 6 -23 -11 0 -11 -3 -14 -10 -7 -5 5 -7 19 -3 32 4 18 8 20 19 11 18 -14 64 -3 64 16 0 7 -4 17 -10 20 -5 3 -10 17 -10 31 0 13 -4 24 -8 24 -5 0 -17 7 -28 16 -19 15 -18 15 4 11 29 -7 29 11 0 22 -22 8 -22 9 12 40 32 28 33 31 12 31 -13 0 -22 -6 -22 -15 0 -19 -16 -20 -23 -1 -7 18 3 56 14 56 5 0 9 7 9 16 0 8 -4 12 -10 9 -5 -3 -10 -2 -10 2 0 5 9 14 19 20 22 14 24 53 4 53 -7 0 -13 5 -13 11 0 6 -9 9 -20 6 -14 -3 -20 0 -20 10 0 19 -48 65 -60 58 -4 -3 -11 6 -14 20 -7 28 -41 34 -78 14 -25 -13 -27 -11 -31 32 -2 29 -6 34 -25 31 -15 -2 -22 2 -22 12 0 9 -7 16 -15 16 -9 0 -18 7 -22 16 -4 12 -14 14 -36 10 -26 -5 -29 -4 -24 16 11 40 -2 66 -30 63 -17 -2 -35 6 -50 21 -28 28 -33 29 -33 9 0 -23 -16 -18 -34 10 -9 14 -24 24 -34 24 -16 -1 -16 -2 0 -6 10 -2 15 -10 11 -19 -3 -8 1 -14 9 -14 15 0 24 -15 50 -77 7 -18 17 -33 22 -33 4 0 5 -7 2 -15 -3 -9 -2 -23 3 -33 12 -22 36 -85 36 -94 0 -3 3 -10 8 -14 4 -4 7 -18 7 -31 0 -12 5 -23 10 -23 6 0 10 -7 10 -15 0 -8 9 -22 19 -32 13 -12 22 -39 27 -83 3 -36 11 -74 17 -85 6 -11 12 -36 14 -55 1 -19 4 -57 6 -83 2 -27 10 -52 17 -57 9 -6 9 -13 1 -28 -7 -14 -8 -23 -1 -27 6 -4 8 -11 4 -16 -3 -6 -8 -27 -10 -47 -11 -114 -35 -202 -53 -202 -3 0 -12 12 -18 28 -7 15 -23 38 -35 52 -31 34 -68 87 -68 97 0 4 -7 16 -14 26 -14 18 -16 18 -54 -2 -35 -18 -41 -25 -40 -52 1 -24 -6 -37 -26 -52 -20 -14 -25 -25 -21 -41 5 -15 4 -17 -3 -7 -7 9 -12 10 -16 2 -4 -6 -12 -9 -17 -6 -5 4 -9 -3 -9 -14 0 -12 -6 -21 -14 -21 -8 0 -17 -15 -20 -36 -4 -19 -14 -38 -22 -41 -7 -3 -14 -11 -14 -18 0 -7 -12 -20 -26 -30 -18 -11 -24 -23 -21 -36 3 -12 0 -19 -10 -19 -9 0 -13 -6 -9 -15 3 -8 1 -15 -4 -15 -6 0 -10 9 -10 19 0 11 -7 27 -16 35 -12 13 -20 14 -37 4 -35 -18 -119 -21 -151 -4 -16 8 -34 12 -41 10 -14 -6 -57 78 -51 98 17 54 16 68 -3 68 -11 0 -26 10 -32 22 -18 33 -35 48 -56 48 -10 0 -35 5 -55 11 -28 7 -38 15 -38 30 0 12 -10 23 -25 29 -15 6 -25 17 -25 29 0 10 -7 21 -15 25 -8 3 -15 12 -15 20 0 8 -5 16 -12 18 -7 3 -12 27 -13 62 0 32 -6 60 -12 64 -31 19 50 142 93 142 12 0 24 7 28 15 4 11 13 14 31 9 19 -5 25 -2 25 10 0 12 10 16 46 16 38 0 47 4 51 20 3 12 12 19 22 18 21 -4 23 51 5 107 -8 22 -14 49 -14 59 0 11 -4 33 -9 50 -6 17 -15 54 -20 81 -16 74 -17 75 -45 136 -32 71 -44 139 -25 139 8 0 19 10 24 23 9 19 18 22 83 25 68 3 72 2 72 -18 0 -13 8 -24 20 -27 11 -3 20 -9 20 -14 0 -5 11 -14 24 -19 14 -5 43 -23 66 -39 23 -16 47 -28 54 -25 8 3 16 -2 19 -10 4 -9 13 -13 22 -10 10 4 15 0 15 -15 0 -11 9 -26 21 -33 29 -18 61 -82 47 -96 -7 -7 -4 -16 11 -31 17 -17 19 -25 11 -41 -6 -11 -7 -20 -3 -21 4 0 28 -2 52 -4 24 -2 48 -8 54 -14 6 -6 21 -11 34 -11 31 0 30 28 -2 56 -13 11 -26 30 -28 41 -1 11 -10 32 -20 46 -9 15 -17 33 -17 42 0 8 -7 15 -15 15 -8 0 -15 5 -15 11 0 6 -9 22 -20 36 -11 14 -20 34 -20 43 0 18 -40 35 -72 31 -10 -1 -18 3 -18 8 0 6 -6 11 -12 11 -17 0 -88 63 -88 78 0 6 -15 9 -36 7 -27 -2 -43 4 -65 25 -19 17 -52 32 -87 39 -31 7 -75 18 -97 24 -21 6 -59 12 -82 12 -24 0 -43 4 -43 8 0 5 -5 5 -10 2 -6 -4 -17 -1 -25 5 -8 6 -19 9 -26 5 -6 -4 -15 -1 -20 6 -7 11 -9 11 -9 1 0 -16 -55 -40 -107 -48 -21 -3 -58 -13 -83 -21 -25 -9 -57 -16 -71 -17 -14 0 -33 -9 -43 -18 -10 -10 -23 -18 -30 -18 -7 0 -25 -9 -40 -21 -14 -11 -32 -19 -39 -16 -6 2 -19 1 -28 -4 -9 -5 -30 -10 -47 -11 -25 -2 -29 -5 -22 -19 13 -23 -10 -67 -38 -74 -31 -8 -46 3 -31 21 22 27 -11 15 -39 -14 -15 -16 -33 -27 -40 -24 -7 2 -12 -3 -12 -12 0 -9 -4 -16 -9 -16 -5 0 -11 -9 -14 -20 -3 -11 -10 -19 -16 -18 -7 2 -19 -10 -29 -27 -9 -16 -24 -35 -33 -42 -19 -14 -14 -63 6 -63 14 0 73 -78 93 -123 10 -23 17 -27 44 -26 46 3 116 -35 124 -66 3 -14 14 -30 23 -36 12 -8 13 -11 3 -16 -20 -8 15 -43 43 -43 17 0 24 -8 29 -31 10 -53 8 -72 -9 -65 -11 4 -15 -1 -15 -19 0 -15 -6 -25 -14 -25 -8 0 -18 -9 -21 -20 -5 -16 -15 -20 -46 -20 -28 0 -39 -4 -39 -15 0 -9 -7 -18 -15 -21 -11 -5 -12 -11 -4 -26 7 -13 7 -23 0 -32 -6 -8 -9 -20 -5 -29 3 -8 1 -18 -5 -22 -10 -5 -15 7 -12 27 0 4 -11 28 -25 53 -13 25 -22 49 -20 54 3 5 -6 16 -20 26 -21 13 -23 19 -13 31 9 11 8 18 -6 34 -10 11 -14 20 -10 20 5 0 -1 9 -13 20 -12 11 -26 20 -32 20 -7 0 -9 8 -5 20 4 11 2 20 -4 20 -6 0 -11 6 -11 13 0 15 -45 57 -61 57 -5 0 -8 4 -5 9 3 4 -3 16 -14 26 -11 10 -20 24 -20 31 0 7 -9 18 -20 24 -11 6 -20 17 -20 26 0 20 -27 29 -44 15 -20 -17 -46 -2 -46 25 0 24 30 97 42 102 4 2 10 18 14 37 3 18 17 42 30 54 13 11 24 28 24 36 0 8 9 15 20 15 15 0 20 7 20 25 0 14 7 28 15 31 8 4 12 10 10 15 -8 12 75 100 87 93 5 -4 24 7 41 24 18 17 45 34 61 38 16 4 43 19 59 33 16 14 34 26 40 26 7 0 19 5 27 10 8 5 27 8 42 6 28 -2 97 25 110 43 4 6 8 8 8 3 0 -4 10 -1 23 8 13 8 27 12 30 9 4 -4 13 -1 21 5 10 8 16 9 21 1 3 -6 11 -8 16 -4 5 3 7 10 4 15 -7 10 20 13 73 10 21 -2 34 3 38 13 3 9 13 16 21 16 12 0 13 3 4 13 -6 8 -7 18 -3 22 4 5 1 5 -5 1 -7 -4 -13 -3 -13 3 0 6 -17 13 -37 17 -21 4 -44 14 -50 23 -11 14 -14 14 -22 2 -6 -10 -32 -16 -76 -18 -66 -3 -67 -2 -78 27 -11 29 -52 50 -108 56 -9 0 -29 4 -44 8 -17 4 -31 3 -35 -4 -4 -7 -15 -4 -32 10 -27 21 -48 26 -48 12z m1996 -1019 c-3 -6 0 -14 7 -17 7 -2 8 -5 2 -5 -18 -1 -35 15 -40 37 -3 19 -2 20 16 9 10 -6 17 -17 15 -24z m-2603 -9 c-4 -10 -9 -12 -15 -6 -12 12 -1 35 12 27 5 -3 6 -13 3 -21z m451 -236 c-6 -9 -34 1 -34 12 0 5 6 10 13 13 13 4 28 -13 21 -25z m-23 -145 c1 -7 3 -17 4 -23 1 -5 3 -14 4 -19 0 -5 14 -12 30 -16 28 -6 28 -7 18 -40 -7 -24 -7 -42 0 -57 6 -14 7 -32 2 -45 -7 -19 -12 -21 -33 -13 -16 6 -27 6 -31 0 -8 -13 4 -32 16 -25 5 4 9 -1 9 -9 0 -9 5 -16 10 -16 6 0 10 -15 10 -34 0 -35 -20 -61 -42 -53 -7 2 -21 -2 -30 -11 -16 -13 -20 -12 -37 9 -11 13 -26 38 -33 54 -7 17 -20 39 -30 49 -10 11 -18 28 -18 37 0 10 -8 20 -18 23 -14 5 -17 14 -14 35 2 16 -3 42 -12 59 -9 17 -14 37 -11 44 3 8 -4 23 -15 35 -25 27 -14 35 48 33 26 -1 52 -1 57 0 6 1 17 2 27 1 9 -1 19 2 22 8 8 13 66 -10 67 -26z m233 -492 c-1 -17 8 -26 38 -38 21 -8 38 -21 38 -28 0 -9 11 -13 29 -13 15 1 32 -2 37 -5 5 -3 31 -1 58 4 37 7 56 6 78 -6 21 -10 36 -11 54 -5 45 17 68 12 87 -21 9 -17 17 -39 17 -49 0 -10 5 -22 10 -25 6 -4 7 -11 4 -17 -5 -7 0 -9 14 -6 28 8 76 -41 66 -67 -7 -16 -3 -18 39 -12 30 4 47 3 49 -5 5 -13 28 -2 28 13 0 6 -4 7 -10 4 -5 -3 -10 0 -10 7 0 7 -9 30 -20 50 -29 54 -19 69 50 80 8 1 30 -12 48 -29 31 -30 34 -31 60 -17 15 7 36 14 47 14 12 0 27 6 34 13 6 6 15 12 19 13 4 0 21 6 37 13 22 9 35 10 47 2 10 -6 22 -11 28 -11 20 0 50 -35 51 -60 1 -14 3 -18 6 -10 2 8 16 24 31 35 l26 19 -21 -29 c-26 -37 -30 -62 -14 -98 14 -36 9 -44 -39 -58 -22 -7 -40 -15 -40 -19 0 -13 -38 -18 -49 -7 -7 7 -18 7 -35 -2 -13 -8 -36 -13 -50 -13 -15 0 -29 -5 -32 -10 -11 -18 -57 -30 -65 -16 -6 9 -12 8 -28 -6 -15 -14 -30 -17 -73 -13 -29 3 -58 1 -64 -4 -15 -12 -79 53 -80 80 -1 24 -40 96 -75 135 -17 20 -28 39 -25 44 3 5 -12 22 -34 37 -33 23 -42 25 -55 15 -8 -7 -15 -19 -15 -26 0 -8 -10 -14 -22 -14 -34 0 -44 -11 -52 -55 -5 -22 -11 -44 -14 -50 -4 -5 -7 -12 -7 -15 -1 -3 -5 -20 -9 -37 -7 -29 -9 -31 -22 -18 -9 8 -31 15 -50 15 -24 0 -34 5 -34 15 0 9 -10 15 -26 15 -19 0 -25 4 -20 15 4 11 -2 15 -20 15 -27 0 -36 6 -92 58 -19 18 -43 37 -53 43 -11 5 -19 17 -19 26 0 9 -12 30 -27 45 -26 27 -26 28 -5 29 38 2 43 4 50 15 4 6 17 14 30 18 12 4 22 14 22 22 0 8 9 14 20 14 11 0 20 5 20 11 0 6 8 9 18 7 10 -2 17 -12 16 -27z m1416 -20 c0 -14 -18 -23 -30 -16 -6 4 -8 11 -5 16 8 12 35 12 35 0z m20 -141 c-8 -6 -22 -10 -32 -10 -9 0 -25 -11 -35 -24 -10 -13 -29 -27 -41 -31 -23 -7 -23 -7 -7 19 10 14 21 23 26 20 5 -3 9 1 9 8 0 8 18 18 43 24 46 10 60 8 37 -6z m-7 -304 c-5 -26 -44 -43 -66 -29 -7 4 -16 8 -21 8 -5 0 -11 5 -13 12 -3 8 6 11 28 8 24 -3 36 1 47 16 17 25 31 17 25 -15z m-1238 -412 c8 3 15 1 15 -5 0 -6 7 -9 15 -5 9 3 15 0 15 -10 0 -8 8 -18 18 -21 9 -4 24 -15 33 -24 18 -20 80 -23 73 -4 -3 7 2 15 11 19 9 3 13 2 10 -3 -10 -17 16 -23 33 -8 19 16 82 5 82 -15 0 -25 -42 -77 -73 -89 -17 -7 -44 -21 -59 -31 -25 -17 -30 -18 -49 -4 -15 10 -28 12 -45 6 -26 -10 -74 3 -74 20 0 5 -8 10 -19 10 -13 0 -21 10 -25 33 -3 17 -9 43 -12 57 -3 14 -7 41 -8 61 -1 36 -1 36 21 22 13 -9 30 -13 38 -9z"/>
</g>
<g id="layer103" fill="#599afc" stroke="none">
<path d="M1740 2922 c0 -16 -55 -40 -107 -48 -21 -3 -58 -13 -83 -21 -25 -9 -57 -16 -71 -17 -14 0 -33 -9 -43 -18 -10 -10 -23 -18 -30 -18 -7 0 -25 -9 -40 -21 -14 -11 -32 -19 -39 -16 -6 2 -19 1 -28 -4 -9 -5 -30 -10 -47 -11 -25 -2 -29 -5 -22 -19 13 -23 -10 -67 -38 -74 -31 -8 -46 3 -31 21 22 27 -11 15 -39 -14 -15 -16 -33 -27 -40 -24 -7 2 -12 -3 -12 -12 0 -9 -4 -16 -9 -16 -5 0 -11 -9 -14 -20 -3 -11 -10 -19 -16 -18 -7 2 -19 -10 -29 -27 -9 -16 -24 -35 -33 -42 -19 -14 -14 -63 6 -63 14 0 73 -78 93 -123 10 -23 17 -27 44 -26 46 3 116 -35 124 -66 3 -14 14 -30 23 -36 12 -8 13 -11 3 -16 -20 -8 15 -43 43 -43 17 0 24 -8 29 -31 10 -53 8 -72 -9 -65 -11 4 -15 -1 -15 -19 0 -15 -6 -25 -14 -25 -8 0 -18 -9 -21 -20 -5 -16 -15 -20 -46 -20 -28 0 -39 -4 -39 -15 0 -9 -7 -18 -15 -21 -11 -5 -12 -11 -4 -25 5 -11 6 -25 2 -32 -12 -19 -14 -98 -3 -112 5 -6 7 -15 3 -18 -3 -4 -2 -7 4 -7 5 0 10 -18 11 -40 1 -23 11 -53 23 -69 l21 -28 -21 -43 c-11 -24 -23 -58 -27 -77 -3 -18 -10 -33 -15 -33 -5 0 -9 -17 -9 -39 0 -23 -6 -44 -16 -52 -14 -12 -13 -14 6 -21 16 -6 21 -14 17 -29 -4 -16 2 -23 34 -35 21 -9 39 -22 39 -29 0 -9 11 -13 29 -13 15 1 32 -2 37 -5 5 -3 31 -1 58 4 37 7 56 6 78 -6 21 -10 36 -11 54 -5 45 17 68 12 87 -21 9 -17 17 -39 17 -49 0 -10 5 -22 10 -25 6 -4 7 -11 4 -17 -5 -7 0 -9 14 -6 28 8 76 -41 66 -67 -7 -16 -3 -18 39 -12 30 4 47 3 49 -5 5 -13 28 -2 28 13 0 6 -4 7 -10 4 -5 -3 -10 0 -10 7 0 7 -9 30 -20 50 -29 54 -19 69 50 80 8 1 30 -12 48 -29 31 -30 34 -31 60 -17 15 7 36 14 47 14 12 0 27 6 34 13 6 6 15 12 19 13 4 0 21 6 37 13 22 9 35 10 47 2 10 -6 22 -11 28 -11 20 0 50 -35 51 -60 0 -14 3 -19 6 -12 2 7 18 25 34 41 16 16 29 40 29 53 0 13 7 33 15 44 8 10 15 31 15 46 0 15 4 29 10 33 5 3 7 12 3 20 -3 9 1 15 11 15 21 0 22 63 0 84 -12 13 -20 14 -37 4 -35 -18 -119 -21 -151 -4 -16 8 -34 12 -41 10 -14 -6 -57 78 -51 98 17 54 16 68 -3 68 -11 0 -26 10 -32 22 -18 33 -35 48 -56 48 -10 0 -35 5 -55 11 -28 7 -38 15 -38 30 0 12 -10 23 -25 29 -15 6 -25 17 -25 29 0 10 -7 21 -15 25 -8 3 -15 12 -15 20 0 8 -5 16 -12 18 -7 3 -12 27 -13 62 0 32 -6 60 -12 64 -31 19 50 142 93 142 12 0 24 7 28 15 4 11 13 14 31 9 19 -5 25 -2 25 10 0 12 10 16 46 16 38 0 47 4 51 20 3 12 12 19 22 18 21 -4 23 51 5 107 -8 22 -14 49 -14 59 0 11 -4 33 -9 50 -6 17 -15 54 -20 81 -16 74 -17 75 -45 136 -32 71 -44 139 -25 139 8 0 19 10 24 23 9 19 18 22 83 25 68 3 72 2 72 -18 0 -13 8 -24 20 -27 11 -3 20 -9 20 -14 0 -5 11 -14 24 -19 14 -5 43 -23 66 -39 23 -16 47 -28 54 -25 8 3 16 -2 19 -10 4 -9 13 -13 22 -10 10 4 15 0 15 -15 0 -11 9 -26 21 -33 29 -18 61 -82 47 -96 -7 -7 -4 -16 11 -31 17 -17 19 -25 11 -41 -6 -11 -7 -20 -3 -21 4 0 28 -2 52 -4 24 -2 48 -8 54 -14 6 -6 21 -11 34 -11 31 0 30 28 -2 56 -13 11 -26 30 -28 41 -1 11 -10 32 -20 46 -9 15 -17 33 -17 42 0 8 -7 15 -15 15 -8 0 -15 5 -15 11 0 6 -9 22 -20 36 -11 14 -20 34 -20 43 0 18 -40 35 -72 31 -10 -1 -18 3 -18 8 0 6 -6 11 -12 11 -17 0 -88 63 -88 78 0 6 -15 9 -36 7 -27 -2 -43 4 -65 25 -19 17 -52 32 -87 39 -31 7 -75 18 -97 24 -21 6 -59 12 -82 12 -24 0 -43 4 -43 8 0 5 -5 5 -10 2 -6 -4 -17 -1 -25 5 -8 6 -19 9 -26 5 -6 -4 -15 -1 -20 6 -7 11 -9 11 -9 1z"/>
<path d="M2592 2643 c10 -2 15 -10 11 -19 -3 -8 1 -14 9 -14 15 0 24 -15 50 -77 7 -18 17 -33 22 -33 4 0 5 -7 2 -15 -3 -9 -2 -23 3 -33 12 -22 36 -85 36 -94 0 -3 3 -10 8 -14 4 -4 7 -18 7 -31 0 -12 5 -23 10 -23 6 0 10 -7 10 -15 0 -8 9 -22 19 -32 13 -12 22 -39 27 -83 3 -36 11 -74 17 -85 6 -11 12 -36 14 -55 1 -19 4 -57 6 -83 2 -27 10 -52 17 -57 9 -6 9 -13 1 -28 -7 -14 -8 -23 -1 -27 6 -4 8 -11 4 -16 -3 -6 -8 -27 -10 -47 -8 -80 -21 -148 -34 -174 -11 -24 -10 -34 8 -77 11 -27 19 -61 18 -75 -2 -14 3 -31 10 -37 8 -6 11 -16 8 -21 -3 -5 3 -12 13 -14 18 -5 40 -56 47 -114 5 -39 17 -59 31 -54 9 4 15 -8 20 -38 3 -24 11 -53 18 -66 9 -18 8 -25 -2 -31 -9 -6 -10 -10 -2 -12 6 -2 12 -23 14 -46 1 -24 6 -43 10 -43 4 0 7 -24 6 -52 -2 -38 -8 -57 -20 -66 -10 -7 -16 -19 -13 -27 3 -8 -1 -24 -10 -37 -9 -12 -16 -30 -16 -40 0 -11 -7 -18 -18 -18 -21 0 -52 -30 -52 -49 0 -6 -14 -14 -30 -18 -17 -3 -36 -13 -43 -22 -14 -19 -92 -51 -140 -57 -124 -16 -115 -17 -207 27 -51 25 -91 50 -93 60 -3 11 -22 22 -48 29 -28 8 -38 14 -29 20 10 6 9 14 -7 36 -27 39 -72 143 -76 177 -2 15 -6 28 -10 28 -19 1 -67 -14 -67 -21 0 -13 -37 -19 -49 -7 -7 7 -18 7 -35 -2 -13 -8 -36 -13 -50 -13 -15 0 -29 -5 -32 -10 -11 -18 -57 -30 -65 -16 -6 9 -13 8 -28 -6 -16 -14 -30 -17 -75 -12 -30 3 -58 1 -61 -4 -3 -5 -12 -7 -20 -3 -8 3 -15 0 -15 -7 0 -6 8 -14 19 -17 18 -5 41 -42 41 -67 0 -11 56 -90 88 -124 6 -7 12 -24 12 -37 0 -13 6 -30 13 -37 13 -14 16 -23 27 -80 4 -21 13 -44 20 -53 8 -10 9 -15 1 -15 -6 0 -11 -16 -11 -35 0 -31 3 -35 25 -35 14 0 25 5 25 10 0 7 7 7 21 -1 22 -11 38 0 39 26 0 6 3 5 8 -1 12 -19 36 -22 48 -6 12 17 92 23 97 7 2 -5 27 -10 55 -10 29 0 52 -4 52 -8 0 -13 27 -37 41 -37 7 0 24 12 37 28 13 15 21 21 17 14 -4 -7 0 -12 9 -12 9 0 16 7 16 15 0 20 10 19 25 -2 10 -14 16 -15 28 -5 11 9 22 10 43 2 15 -6 33 -9 41 -6 7 3 13 1 13 -4 0 -6 9 -10 20 -10 11 0 20 5 20 12 0 6 3 8 7 5 3 -4 15 0 25 10 10 9 18 11 18 6 0 -16 62 -22 77 -8 6 7 9 22 6 34 -4 15 -1 21 11 21 9 0 19 8 23 17 8 24 44 53 66 53 10 0 20 7 24 16 3 8 11 13 18 10 7 -2 16 -2 20 2 4 4 11 8 16 8 5 1 12 2 15 3 4 0 0 9 -7 18 -10 11 -10 14 -1 9 16 -10 15 6 -3 30 -20 27 -18 37 5 24 19 -10 20 -10 8 10 -11 18 -10 23 6 35 10 7 15 18 12 24 -4 5 3 12 14 16 11 3 20 10 20 15 0 5 7 7 15 4 10 -4 15 0 15 14 0 11 7 28 16 36 8 9 18 33 21 53 3 21 10 43 15 50 14 18 -1 56 -19 48 -14 -5 -14 -3 -2 11 8 10 14 29 15 43 2 93 4 103 24 108 21 6 26 18 11 27 -4 3 -6 16 -4 28 3 14 -3 31 -15 43 -16 17 -17 26 -9 55 5 19 13 39 18 45 5 5 9 19 9 32 0 13 4 23 8 23 9 0 11 11 15 104 3 70 -7 96 -39 96 -8 0 -14 5 -14 10 0 6 5 10 11 10 5 0 7 5 4 10 -4 7 3 8 22 4 23 -5 26 -4 16 7 -15 16 -17 49 -3 49 6 0 10 -8 10 -17 0 -13 5 -11 18 10 9 15 22 27 29 27 15 0 17 36 3 45 -5 3 -10 19 -10 36 0 16 -4 29 -8 29 -4 0 -14 21 -21 47 -13 44 -13 47 7 63 12 10 18 20 15 24 -12 11 -23 6 -23 -11 0 -11 -3 -14 -10 -7 -5 5 -7 19 -3 32 4 18 8 20 19 11 18 -14 64 -3 64 16 0 7 -4 17 -10 20 -5 3 -10 17 -10 31 0 13 -4 24 -8 24 -5 0 -17 7 -28 16 -19 15 -18 15 4 11 29 -7 29 11 0 22 -22 8 -22 9 12 40 32 28 33 31 12 31 -13 0 -22 -6 -22 -15 0 -19 -16 -20 -23 -1 -7 18 3 56 14 56 5 0 9 7 9 16 0 8 -4 12 -10 9 -5 -3 -10 -2 -10 2 0 5 9 14 19 20 22 14 24 53 4 53 -7 0 -13 5 -13 11 0 6 -9 9 -20 6 -14 -3 -20 0 -20 10 0 19 -48 65 -60 58 -4 -3 -11 6 -14 20 -7 28 -41 34 -78 14 -25 -13 -27 -11 -31 32 -2 29 -6 34 -25 31 -15 -2 -22 2 -22 12 0 9 -7 16 -15 16 -9 0 -18 7 -22 16 -4 12 -14 14 -36 10 -26 -5 -29 -4 -23 17 10 40 -3 65 -32 62 -16 -2 -34 6 -49 21 -28 28 -33 29 -33 9 0 -23 -16 -18 -34 10 -9 14 -24 24 -34 24 -16 -1 -16 -2 0 -6z m514 -470 c-3 -6 0 -14 7 -17 7 -2 8 -5 2 -5 -18 -1 -35 15 -40 37 -3 19 -2 20 16 9 10 -6 17 -17 15 -24z"/>
<path d="M2097 2603 c-4 -6 -2 -24 4 -39 8 -22 12 -25 19 -14 5 8 5 19 1 25 -5 5 -10 17 -13 25 -3 9 -7 10 -11 3z"/>
<path d="M1110 2163 c0 -6 -3 -18 -6 -27 -3 -9 -2 -16 4 -16 15 0 21 25 11 41 -5 9 -9 9 -9 2z"/>
<path d="M1106 2095 c-9 -23 12 -47 38 -43 27 4 27 32 1 37 -11 2 -23 8 -26 13 -3 5 -9 2 -13 -7z"/>
<path d="M2555 1913 c-34 -7 -86 -34 -91 -47 -3 -7 -11 -13 -18 -13 -23 0 -76 -25 -71 -33 2 -4 -4 -15 -15 -25 -11 -10 -20 -28 -20 -40 0 -13 -7 -25 -15 -29 -8 -3 -15 -14 -15 -25 0 -30 -49 -71 -85 -71 -41 0 -59 -13 -51 -38 11 -33 100 -43 141 -16 22 14 51 21 102 23 7 1 12 4 11 9 -3 15 23 92 32 92 6 0 10 10 10 23 0 28 18 47 45 47 11 0 38 18 60 39 34 33 45 38 73 34 20 -4 32 -1 32 6 0 6 -6 11 -13 11 -7 0 -31 13 -53 28 -21 16 -48 27 -59 25z"/>
<path d="M641 1745 c-11 -17 -21 -39 -21 -48 0 -9 -4 -17 -10 -17 -5 0 -9 -10 -9 -22 0 -13 -2 -38 -4 -55 -3 -18 -2 -35 3 -38 5 -3 7 -11 4 -18 -2 -7 4 -22 16 -32 11 -10 20 -24 20 -32 0 -7 5 -13 10 -13 6 0 10 -8 10 -19 0 -15 10 -19 51 -24 28 -4 57 -12 65 -18 9 -8 14 -8 14 -1 0 6 17 10 40 9 42 -3 49 3 26 22 -8 6 -20 26 -27 44 -7 18 -21 41 -31 51 -10 11 -18 28 -18 37 0 10 -8 20 -18 23 -14 5 -17 14 -14 35 2 16 -3 42 -12 59 -9 17 -14 37 -11 44 7 20 -19 47 -42 45 -11 0 -30 -15 -42 -32z"/>
<path d="M2076 1742 c-2 -4 -1 -14 4 -22 7 -11 12 -12 21 -3 6 6 19 9 28 6 11 -4 10 -1 -4 10 -22 18 -41 21 -49 9z"/>
<path d="M925 1570 c-8 -13 4 -32 16 -25 5 4 9 -1 9 -9 0 -9 5 -16 10 -16 6 0 10 -8 10 -17 1 -15 2 -16 9 -3 5 8 11 28 15 43 5 22 3 28 -6 24 -7 -2 -23 0 -35 4 -13 5 -25 4 -28 -1z"/>
<path d="M2664 1159 c-3 -5 -14 -9 -25 -9 -11 0 -27 -7 -35 -15 -9 -8 -24 -15 -34 -15 -11 0 -27 -11 -36 -25 -9 -14 -23 -25 -30 -25 -8 0 -17 -7 -20 -15 -3 -8 -13 -17 -22 -20 -22 -6 -29 -97 -9 -117 7 -7 13 -15 13 -18 0 -15 24 -70 31 -71 43 -7 59 -4 71 12 17 25 31 16 25 -15 -3 -16 -14 -27 -32 -31 l-26 -7 25 -13 c25 -13 127 -14 147 -2 5 3 29 9 51 13 24 4 42 12 42 19 0 7 13 24 30 38 24 20 26 26 14 31 -13 5 -14 9 -4 21 10 12 10 18 0 30 -7 9 -10 18 -7 22 4 3 -2 18 -12 32 -10 14 -19 29 -20 34 -3 30 -17 66 -32 88 -10 14 -16 29 -12 33 3 3 -3 6 -15 6 -11 0 -23 4 -26 9 -8 13 -45 20 -52 10z"/>
</g>
<g id="layer104" fill="#f8d78d" stroke="none">
<path d="M1110 3192 c0 -4 -23 -9 -52 -10 -28 -1 -54 -5 -57 -7 -3 -3 -5 -21 -4 -40 1 -28 -3 -35 -27 -44 -16 -5 -36 -23 -45 -40 -9 -19 -23 -31 -36 -31 -11 0 -17 -4 -14 -10 10 -16 -7 -11 -19 6 -7 8 -18 12 -28 9 -18 -7 -32 -50 -22 -66 3 -6 -3 -13 -14 -16 -12 -3 -18 -11 -16 -18 3 -8 -1 -29 -10 -47 -8 -18 -16 -44 -18 -58 -2 -15 -9 -24 -17 -22 -12 3 -36 -21 -40 -40 -1 -4 -9 -24 -17 -43 -8 -20 -12 -40 -9 -44 2 -5 -6 -16 -19 -24 -21 -14 -25 -14 -40 1 -12 12 -34 17 -71 17 -30 0 -55 -3 -55 -7 0 -4 -22 -10 -50 -14 -35 -5 -50 -11 -50 -22 0 -14 -29 -13 -71 3 -11 4 -18 0 -22 -14 -3 -13 -13 -21 -27 -21 -15 0 -20 -5 -17 -14 4 -10 1 -13 -7 -10 -8 3 -17 0 -21 -5 -3 -6 -11 -8 -17 -5 -15 9 -28 -17 -21 -44 3 -12 -1 -30 -8 -39 -12 -14 -11 -15 9 -9 29 9 31 -19 2 -34 -14 -7 -21 -25 -26 -61 -6 -42 -11 -52 -33 -60 -20 -8 -22 -12 -11 -19 11 -7 11 -10 2 -10 -7 0 -15 7 -18 15 -7 17 -24 20 -24 4 0 -6 -7 -17 -15 -25 -15 -16 -11 -63 7 -75 5 -3 2 -12 -7 -19 -9 -8 -13 -20 -9 -29 9 -22 15 -61 15 -88 0 -12 4 -34 9 -48 9 -23 8 -26 -8 -21 -16 5 -19 1 -19 -26 0 -17 -4 -33 -10 -35 -12 -4 -6 -43 6 -43 4 0 6 -18 4 -40 -2 -23 1 -40 7 -40 6 0 3 -11 -6 -25 -8 -13 -13 -28 -10 -34 3 -5 1 -11 -6 -13 -17 -6 19 -118 38 -118 12 0 12 -4 3 -21 -8 -15 -8 -19 0 -15 14 9 14 0 -1 -24 -10 -16 -10 -24 0 -40 7 -11 8 -20 3 -20 -5 0 -8 -16 -7 -35 2 -19 -1 -35 -5 -35 -14 0 -10 -34 7 -58 8 -12 10 -22 5 -22 -6 0 -11 5 -11 10 0 15 -17 12 -39 -7 -15 -12 -17 -21 -11 -34 8 -14 20 -20 73 -34 21 -6 20 -8 -8 -15 -27 -6 -28 -8 -10 -15 44 -20 64 -46 58 -79 -3 -17 -10 -33 -14 -37 -5 -3 -5 -20 0 -37 6 -20 6 -30 0 -27 -5 4 -9 2 -9 -4 0 -6 9 -15 20 -21 11 -6 18 -15 15 -20 -3 -5 -1 -11 5 -15 5 -3 7 -17 4 -31 -4 -17 -2 -24 8 -24 8 0 21 -11 28 -25 14 -26 25 -31 34 -16 4 5 20 -4 37 -21 16 -17 27 -33 24 -36 -3 -3 2 -14 12 -24 9 -11 16 -33 15 -54 -1 -28 3 -37 18 -41 11 -3 16 -11 13 -19 -3 -9 5 -18 25 -25 19 -6 32 -19 36 -35 4 -13 11 -24 17 -24 6 0 25 -12 42 -26 18 -16 33 -22 35 -15 4 11 101 -37 135 -67 9 -8 20 -12 24 -9 3 4 17 0 31 -9 17 -11 27 -13 32 -5 4 8 15 3 34 -14 15 -14 37 -25 49 -25 12 0 32 -12 46 -27 15 -18 25 -24 28 -15 3 6 13 12 23 12 10 0 21 7 24 16 7 18 71 16 71 -3 0 -21 35 -55 51 -49 8 3 14 -1 14 -11 0 -15 1 -15 18 0 10 9 19 33 20 54 4 61 12 91 28 97 8 3 14 14 14 25 0 11 5 23 10 26 5 3 10 17 10 31 0 13 5 24 10 24 6 0 10 13 10 29 0 20 6 30 20 34 12 3 20 14 20 26 0 12 4 21 8 21 5 0 19 20 31 45 12 24 33 53 47 64 13 10 24 23 24 29 0 5 7 12 15 16 37 14 -2 56 -51 56 -24 0 -34 5 -34 15 0 9 -10 15 -26 15 -19 0 -25 4 -20 15 4 11 -2 15 -20 15 -27 0 -36 6 -92 58 -19 18 -43 37 -53 43 -11 5 -19 18 -19 28 0 26 -42 61 -73 61 -15 0 -27 -4 -27 -9 0 -5 -10 -9 -22 -10 -113 -3 -168 3 -168 20 0 13 -48 11 -52 -2 -4 -13 -57 10 -77 35 -7 8 -19 12 -27 9 -8 -3 -14 -1 -14 4 0 5 -13 24 -29 42 -18 20 -27 39 -24 52 3 10 0 19 -5 19 -19 0 -73 60 -66 72 4 6 -1 17 -11 24 -10 7 -15 19 -12 26 2 7 1 36 -3 63 -5 30 -4 55 2 62 6 8 5 19 -2 33 -9 17 -7 28 9 56 14 23 18 41 13 50 -12 21 -2 74 13 74 6 0 18 19 26 43 15 47 37 77 56 77 12 0 18 33 14 68 -1 6 7 12 19 12 11 0 20 7 20 15 0 8 6 15 13 15 7 0 13 8 14 18 1 10 18 35 37 55 20 21 36 47 36 58 0 10 4 19 8 19 4 0 13 15 20 34 7 18 21 41 32 51 11 10 20 31 20 46 0 28 29 101 42 107 4 2 10 18 14 37 3 18 17 42 30 54 13 11 24 28 24 36 0 8 9 15 20 15 15 0 20 7 20 25 0 14 7 28 15 31 8 4 12 10 10 15 -8 12 75 100 87 93 5 -4 24 7 41 24 18 17 45 34 61 38 16 4 43 19 59 33 16 14 34 26 40 26 7 0 19 5 27 10 8 5 27 8 42 6 28 -2 97 25 110 43 4 6 8 8 8 3 0 -4 10 -1 23 8 13 8 27 12 30 9 4 -4 13 -1 21 5 10 8 16 9 21 1 3 -6 11 -8 16 -4 5 3 7 10 4 15 -7 10 20 13 73 10 21 -2 34 3 38 13 3 9 13 16 21 16 12 0 13 3 4 13 -6 8 -7 18 -3 22 4 5 1 5 -5 1 -7 -4 -13 -3 -13 3 0 6 -17 13 -37 17 -21 4 -44 14 -50 23 -11 14 -14 14 -22 2 -6 -10 -32 -16 -76 -18 -66 -3 -67 -2 -78 27 -11 29 -52 50 -108 56 -9 0 -29 4 -44 8 -17 4 -31 3 -35 -4 -4 -7 -15 -4 -32 10 -27 21 -48 26 -48 12z m-607 -1028 c-4 -10 -9 -12 -15 -6 -12 12 -1 35 12 27 5 -3 6 -13 3 -21z"/>
<path d="M1121 2660 c-13 -15 -30 -26 -37 -23 -8 3 -14 -1 -14 -11 0 -9 -4 -16 -9 -16 -5 0 -11 -9 -14 -20 -3 -11 -10 -19 -16 -18 -7 2 -19 -10 -29 -27 -9 -16 -25 -36 -36 -45 -17 -15 -18 -17 -1 -34 22 -22 35 -17 60 22 11 17 26 31 32 32 7 0 15 11 19 25 7 30 33 53 42 38 9 -13 96 23 88 36 -4 5 -2 12 4 16 20 13 10 27 -15 21 -33 -9 -50 1 -34 20 9 11 8 14 -2 14 -8 -1 -25 -14 -38 -30z"/>
<path d="M2660 2616 c0 -8 5 -18 11 -22 6 -3 9 -15 6 -25 -4 -14 0 -19 14 -19 10 0 19 -7 19 -15 0 -8 -6 -15 -12 -15 -7 0 10 -21 37 -46 44 -40 47 -45 24 -42 -19 4 -28 -1 -36 -19 -10 -21 -10 -23 3 -12 13 10 17 10 25 -2 13 -20 11 -39 -4 -45 -15 -5 -11 -64 4 -64 5 0 9 -7 9 -15 0 -8 9 -22 19 -32 13 -12 22 -39 27 -83 3 -36 11 -74 17 -85 6 -11 12 -36 14 -55 1 -19 4 -57 6 -83 2 -27 10 -52 17 -57 9 -6 9 -13 1 -28 -7 -14 -8 -23 -1 -27 6 -4 8 -11 4 -16 -3 -6 -8 -27 -10 -47 -8 -80 -21 -148 -34 -174 -11 -24 -10 -34 8 -77 11 -27 19 -61 18 -75 -2 -14 3 -31 10 -37 8 -6 11 -16 8 -21 -3 -5 3 -12 13 -14 18 -5 40 -56 47 -114 5 -39 17 -59 31 -54 9 4 15 -8 20 -38 3 -24 11 -53 18 -66 9 -18 8 -25 -2 -31 -9 -6 -10 -10 -2 -12 6 -2 12 -23 14 -46 1 -24 6 -43 10 -43 4 0 7 -24 6 -53 -2 -37 -8 -56 -20 -65 -10 -7 -16 -19 -13 -27 3 -8 -1 -24 -10 -37 -9 -12 -16 -30 -16 -40 0 -11 -7 -18 -18 -18 -21 0 -52 -30 -52 -49 0 -6 -14 -14 -30 -18 -17 -3 -36 -13 -43 -22 -14 -19 -92 -51 -140 -57 -124 -16 -115 -17 -207 27 -51 25 -91 50 -93 60 -3 11 -22 22 -48 29 -28 8 -38 14 -29 20 10 6 9 14 -7 36 -27 39 -72 143 -76 177 -2 15 -6 28 -10 28 -19 1 -67 -14 -67 -21 0 -13 -37 -19 -49 -7 -7 7 -18 7 -35 -2 -13 -8 -36 -13 -50 -13 -15 0 -29 -5 -32 -10 -11 -18 -57 -30 -65 -16 -6 9 -13 8 -28 -6 -16 -14 -30 -17 -75 -12 -30 3 -58 1 -61 -4 -3 -5 -12 -7 -20 -3 -8 3 -15 0 -15 -7 0 -6 8 -14 19 -17 18 -5 41 -42 41 -67 0 -11 56 -90 88 -124 6 -7 12 -24 12 -37 0 -13 6 -30 13 -37 13 -14 16 -23 27 -80 4 -21 13 -44 20 -53 8 -10 9 -15 1 -15 -6 0 -11 -16 -11 -35 0 -31 3 -35 25 -35 14 0 25 5 25 10 0 7 7 7 21 -1 22 -11 38 0 39 26 0 6 3 5 8 -1 12 -19 36 -22 48 -6 12 17 92 23 97 7 2 -5 27 -10 55 -10 29 0 52 -4 52 -8 0 -13 27 -37 41 -37 7 0 24 12 37 28 13 15 21 21 17 15 -4 -8 0 -13 9 -13 9 0 16 7 16 15 0 20 10 19 25 -2 10 -14 16 -15 28 -5 11 9 22 10 43 2 15 -6 33 -9 41 -6 7 3 13 1 13 -4 0 -6 9 -10 20 -10 11 0 20 5 20 12 0 6 3 8 7 5 3 -4 15 0 25 10 10 9 18 11 18 6 0 -16 62 -22 77 -8 6 7 9 22 6 34 -4 15 -1 21 11 21 9 0 19 8 23 17 8 24 44 53 66 53 10 0 20 7 24 16 3 8 11 13 18 10 7 -2 16 -2 20 2 4 4 11 8 16 8 5 1 12 2 15 3 4 0 0 9 -7 18 -10 11 -10 14 -1 9 16 -10 15 6 -3 30 -20 27 -18 37 5 24 19 -10 20 -10 8 10 -11 18 -10 23 6 35 10 7 15 18 12 24 -4 5 3 12 14 16 11 3 20 10 20 15 0 5 7 7 15 4 10 -4 15 0 15 14 0 11 7 28 16 36 8 9 18 33 21 53 3 21 10 43 15 50 14 18 -1 56 -19 48 -14 -5 -14 -3 -2 11 8 10 14 29 15 43 2 93 4 103 24 108 21 6 26 18 11 27 -4 3 -6 16 -4 28 3 14 -3 31 -15 43 -16 17 -17 26 -9 55 5 19 13 39 18 45 5 5 9 19 9 32 0 13 4 23 8 23 9 0 11 11 15 104 3 70 -7 96 -39 96 -8 0 -14 5 -14 10 0 6 5 10 11 10 5 0 7 5 4 10 -4 7 3 8 22 4 23 -5 26 -4 16 7 -15 16 -17 49 -3 49 6 0 10 -8 10 -17 0 -13 5 -11 18 10 9 15 22 27 29 27 15 0 17 36 3 45 -5 3 -10 19 -10 36 0 16 -4 29 -8 29 -4 0 -14 21 -21 47 -13 44 -13 47 7 63 12 10 18 20 15 24 -12 11 -23 6 -23 -11 0 -11 -3 -14 -10 -7 -5 5 -7 19 -3 32 4 18 8 20 19 11 18 -14 64 -3 64 16 0 7 -4 17 -10 20 -5 3 -10 17 -10 31 0 13 -4 24 -8 24 -5 0 -17 7 -28 16 -19 15 -18 15 4 11 29 -7 29 11 0 22 -22 8 -22 9 12 40 32 28 33 31 12 31 -13 0 -22 -6 -22 -15 0 -19 -16 -20 -23 -1 -7 18 3 56 14 56 5 0 9 7 9 16 0 8 -4 12 -10 9 -5 -3 -10 -2 -10 2 0 5 9 14 19 20 22 14 24 53 4 53 -7 0 -13 5 -13 11 0 6 -9 9 -20 6 -14 -3 -20 0 -20 10 0 19 -48 65 -60 58 -4 -3 -11 6 -14 20 -7 28 -41 34 -78 14 -25 -13 -27 -11 -31 32 -2 29 -6 34 -25 31 -15 -2 -22 2 -22 12 0 9 -7 16 -15 16 -9 0 -18 7 -22 16 -4 12 -14 14 -36 10 -26 -5 -29 -4 -23 17 10 40 -3 65 -32 62 -16 -2 -34 6 -49 21 -28 28 -33 29 -33 10z m446 -443 c-3 -6 0 -14 7 -17 7 -2 8 -5 2 -5 -18 -1 -35 15 -40 37 -3 19 -2 20 16 9 10 -6 17 -17 15 -24z"/>
<path d="M641 1745 c-11 -17 -21 -39 -21 -48 0 -9 -4 -17 -10 -17 -5 0 -9 -10 -9 -22 0 -13 -2 -38 -4 -55 -3 -18 -2 -35 3 -38 5 -3 7 -11 4 -18 -2 -7 4 -22 16 -32 11 -10 20 -24 20 -32 0 -7 5 -13 10 -13 6 0 10 -8 10 -19 0 -15 10 -19 51 -24 28 -4 57 -12 65 -18 9 -8 14 -8 14 -1 0 6 16 10 38 9 l37 -2 -25 49 c-14 28 -33 59 -42 70 -10 11 -18 28 -18 37 0 10 -8 20 -18 23 -14 5 -17 14 -14 35 2 16 -3 42 -12 59 -9 17 -14 37 -11 44 7 20 -19 47 -42 45 -11 0 -30 -15 -42 -32z"/>
<path d="M2664 1159 c-3 -5 -16 -9 -30 -9 -14 0 -23 -4 -19 -9 3 -6 -11 -13 -30 -17 -22 -4 -42 -16 -52 -30 -8 -13 -22 -24 -29 -24 -8 0 -17 -7 -20 -15 -3 -8 -13 -17 -22 -20 -22 -6 -29 -97 -9 -117 7 -7 13 -15 13 -18 0 -15 24 -70 31 -71 43 -7 59 -4 71 12 17 25 31 16 25 -15 -3 -16 -14 -27 -32 -31 l-26 -7 25 -13 c25 -13 127 -14 147 -2 5 3 29 9 51 13 24 4 42 12 42 19 0 7 13 24 30 38 24 20 26 26 14 31 -13 5 -14 9 -4 21 10 12 10 18 0 30 -7 9 -10 18 -7 22 4 3 -2 18 -12 32 -10 14 -19 29 -20 34 -3 30 -17 66 -32 88 -10 14 -16 29 -12 33 3 3 -3 6 -15 6 -11 0 -23 4 -26 9 -8 13 -45 20 -52 10z"/>
<path d="M3037 764 c-8 -8 3 -34 14 -34 11 0 12 27 0 34 -4 3 -11 3 -14 0z"/>
<path d="M1583 733 c-29 -6 -30 -30 -1 -39 15 -4 25 -1 34 11 13 17 10 36 -4 34 -4 -1 -17 -4 -29 -6z"/>
<path d="M1500 582 c-14 -2 -31 -9 -38 -15 -8 -6 -32 -12 -54 -14 -26 -3 -49 -13 -65 -29 -13 -13 -28 -24 -33 -24 -5 0 -8 -16 -6 -36 4 -38 26 -60 52 -50 8 3 14 1 14 -5 0 -6 7 -9 15 -5 9 3 15 0 15 -10 0 -8 8 -18 18 -21 9 -4 24 -15 33 -24 18 -20 80 -23 73 -4 -3 7 2 15 11 19 9 3 13 2 10 -3 -10 -17 17 -24 32 -8 12 12 23 13 51 5 26 -7 37 -7 40 1 2 6 10 11 18 11 12 0 14 9 9 48 -8 61 -24 92 -47 92 -10 0 -22 8 -25 18 -10 25 -31 44 -43 37 -5 -3 -20 0 -32 8 -13 7 -34 12 -48 9z"/>
</g>
<g id="layer105" fill="#fffefd" stroke="none">
<path d="M1110 3192 c0 -4 -23 -9 -52 -10 -28 -1 -54 -5 -57 -7 -3 -3 -5 -21 -4 -40 1 -28 -3 -35 -27 -44 -16 -5 -36 -23 -45 -40 -9 -19 -23 -31 -36 -31 -11 0 -17 -4 -14 -10 10 -16 -7 -11 -19 6 -7 8 -18 12 -28 9 -18 -7 -32 -50 -22 -66 3 -6 -3 -13 -14 -16 -12 -3 -18 -11 -16 -18 3 -8 -1 -29 -10 -47 -8 -18 -16 -44 -18 -58 -2 -15 -9 -24 -17 -22 -12 3 -36 -21 -40 -40 -1 -4 -8 -23 -16 -43 -9 -19 -14 -38 -13 -43 2 -4 -11 -21 -29 -37 -31 -30 -52 -98 -33 -110 9 -6 -11 -55 -22 -55 -5 0 -8 -7 -8 -15 0 -9 -11 -33 -25 -55 -14 -22 -25 -44 -25 -49 0 -4 -13 -11 -30 -14 -24 -5 -30 -12 -30 -32 0 -14 7 -28 16 -32 11 -4 12 -8 4 -13 -8 -5 -5 -18 10 -43 17 -29 19 -40 10 -56 -6 -12 -15 -21 -20 -21 -16 0 -41 -62 -30 -75 7 -8 6 -22 -1 -43 -8 -24 -8 -39 3 -62 14 -32 42 -40 52 -15 3 8 12 15 21 15 14 0 21 29 16 68 -1 6 7 12 19 12 11 0 20 7 20 15 0 8 6 15 13 15 7 0 13 8 14 18 1 10 18 35 37 55 20 21 36 47 36 58 0 10 4 19 8 19 4 0 13 15 20 34 7 18 21 41 32 51 11 10 20 31 20 46 0 28 29 101 42 107 4 2 10 18 14 37 3 18 17 42 30 54 13 11 24 28 24 36 0 8 9 15 20 15 15 0 20 7 20 25 0 14 7 28 15 31 8 4 12 10 10 15 -8 12 75 100 87 93 5 -4 24 7 41 24 18 17 45 34 61 38 16 4 43 19 59 33 16 14 34 26 40 26 7 0 19 5 27 10 8 5 27 8 42 6 28 -2 97 25 110 43 4 6 8 8 8 3 0 -4 10 -1 23 8 13 8 27 12 30 9 4 -4 13 -1 21 5 10 8 16 9 21 1 3 -6 11 -8 16 -4 5 3 7 10 4 15 -7 10 20 13 73 10 21 -2 34 3 38 13 3 9 13 16 21 16 12 0 13 3 4 13 -6 8 -7 18 -3 22 4 5 1 5 -5 1 -7 -4 -13 -3 -13 3 0 6 -17 13 -37 17 -21 4 -44 14 -50 23 -11 14 -14 14 -22 2 -6 -10 -32 -16 -76 -18 -66 -3 -67 -2 -78 27 -11 29 -52 50 -108 56 -9 0 -29 4 -44 8 -17 4 -31 3 -35 -4 -4 -7 -15 -4 -32 10 -27 21 -48 26 -48 12z"/>
<path d="M1234 2739 c-3 -6 -2 -15 4 -21 6 -6 11 -2 15 11 5 22 -7 29 -19 10z"/>
<path d="M1113 2650 c-9 -10 -23 -16 -31 -13 -11 5 -13 1 -8 -15 6 -17 4 -21 -8 -16 -21 8 -21 -25 -1 -52 12 -16 14 -16 15 -3 0 22 32 49 37 32 5 -14 89 18 86 33 -1 5 4 15 10 22 6 7 6 12 1 11 -22 -4 -55 2 -50 9 10 17 -36 10 -51 -8z"/>
<path d="M993 2533 c-4 -10 -16 -25 -26 -34 -18 -14 -18 -16 -2 -32 9 -9 20 -17 25 -17 14 0 30 35 30 64 0 31 -18 44 -27 19z"/>
<path d="M2700 2514 c0 -4 19 -25 43 -46 38 -36 40 -39 16 -36 -19 4 -28 -1 -36 -19 -10 -21 -10 -23 3 -12 13 10 17 10 25 -2 13 -20 11 -39 -4 -45 -15 -5 -11 -64 4 -64 5 0 9 -7 9 -15 0 -8 9 -22 19 -32 13 -12 22 -39 27 -83 3 -36 11 -74 17 -85 6 -11 12 -36 14 -55 1 -19 4 -57 6 -83 2 -27 10 -52 17 -57 9 -6 9 -13 1 -28 -7 -14 -8 -23 -1 -27 6 -4 8 -11 4 -16 -3 -6 -8 -27 -10 -47 -8 -80 -21 -148 -34 -174 -11 -24 -10 -34 8 -77 11 -27 19 -61 18 -75 -2 -14 3 -31 10 -37 8 -6 12 -15 9 -19 -8 -13 11 -21 30 -14 14 6 16 15 11 47 -6 35 -5 39 9 27 12 -10 15 -10 15 3 0 10 6 14 13 11 8 -3 19 2 26 10 7 8 18 13 25 10 15 -6 30 22 20 37 -3 5 -2 15 3 22 13 20 11 66 -3 78 -25 20 25 83 75 94 17 3 33 10 36 14 6 10 -17 61 -27 61 -5 0 -8 5 -8 12 0 6 9 3 21 -8 20 -18 20 -18 14 28 -5 39 -3 48 14 60 12 8 18 18 14 21 -11 12 -21 8 -26 -10 -4 -17 -4 -17 -12 0 -4 9 -4 24 -1 33 5 13 9 14 21 4 16 -14 65 -6 65 11 0 20 -32 59 -44 52 -6 -4 -5 0 2 9 11 14 10 18 -10 29 -22 12 -22 12 -3 19 18 7 18 9 4 15 -11 4 -15 14 -12 25 5 19 -6 27 -59 44 -11 3 -15 11 -12 20 3 9 12 12 22 9 11 -4 8 3 -8 18 -14 13 -32 37 -40 53 -8 16 -23 31 -32 34 -18 4 -25 22 -9 22 17 0 17 47 0 69 -10 12 -16 28 -13 35 4 10 -2 12 -20 9 -14 -3 -26 -12 -26 -19 0 -23 -34 4 -55 43 -19 34 -51 60 -62 49 -4 -3 -12 -1 -20 5 -7 6 -13 8 -13 3 0 -4 -6 0 -14 11 -7 10 -22 19 -32 20 -11 0 -25 4 -32 9 -6 4 -12 4 -12 0z"/>
<path d="M3037 2283 c-10 -9 -9 -23 2 -23 5 0 11 7 15 15 5 15 -5 20 -17 8z"/>
<path d="M2610 1870 c0 -19 19 -30 51 -30 29 0 22 13 -16 31 -33 16 -35 15 -35 -1z"/>
<path d="M641 1745 c-11 -17 -21 -39 -21 -48 0 -9 -4 -17 -10 -17 -5 0 -9 -10 -8 -22 1 -13 -2 -33 -6 -44 -5 -16 3 -34 29 -68 19 -25 35 -48 35 -51 0 -11 52 -55 65 -55 8 0 15 -3 15 -7 0 -5 11 -13 25 -20 14 -6 25 -7 25 -3 0 5 17 8 38 7 l37 -2 -25 49 c-14 28 -33 59 -42 70 -10 11 -18 28 -18 37 0 10 -8 20 -18 23 -14 5 -17 14 -14 35 2 16 -3 42 -12 59 -9 17 -14 37 -11 44 7 20 -19 47 -42 45 -11 0 -30 -15 -42 -32z"/>
<path d="M970 1208 c0 -19 26 -42 34 -30 3 5 -3 17 -14 27 -17 15 -20 16 -20 3z"/>
<path d="M2665 1160 c-4 -6 -17 -10 -31 -10 -14 0 -23 -4 -19 -9 3 -6 -11 -13 -30 -17 -22 -4 -42 -16 -52 -30 -8 -13 -22 -24 -29 -24 -8 0 -17 -7 -20 -15 -3 -8 -13 -17 -22 -20 -22 -6 -29 -97 -9 -117 7 -7 13 -15 13 -18 0 -15 24 -70 31 -71 43 -7 59 -4 71 12 7 11 17 17 22 14 5 -3 17 7 27 22 10 15 26 34 36 41 10 8 17 21 15 30 -5 34 51 125 73 120 10 -2 14 9 15 35 1 20 -1 35 -4 32 -3 -3 -15 1 -26 8 -33 21 -55 27 -61 17z"/>
<path d="M2175 947 c-16 -5 -32 -13 -35 -17 -8 -12 -33 -14 -53 -5 -10 4 -23 2 -31 -5 -8 -6 -29 -12 -46 -12 -17 -1 -33 -5 -36 -10 -12 -18 -57 -30 -65 -16 -6 9 -13 8 -28 -6 -14 -12 -30 -17 -51 -14 -43 7 -36 -21 13 -47 20 -11 37 -25 37 -31 0 -5 6 -18 13 -26 10 -14 20 -15 55 -9 24 5 42 4 42 -1 0 -4 12 -13 26 -18 15 -6 39 -19 54 -30 16 -11 42 -20 59 -20 17 0 31 -3 31 -7 0 -9 49 -33 67 -33 7 0 13 9 13 20 0 11 7 20 15 20 8 0 24 9 35 20 21 21 21 21 2 48 -26 37 -71 141 -75 174 -4 36 -7 37 -42 25z"/>
</g>


</svg>