<!DOCTYPE svg PUBLIC "-//W3C//DTD SVG 20010904//EN" "http://www.w3.org/TR/2001/REC-SVG-20010904/DTD/svg10.dtd">
<svg version="1.0" xmlns="http://www.w3.org/2000/svg" width="320px" height="323px" viewBox="0 0 3200 3230" preserveAspectRatio="xMidYMid meet">
<g id="layer101" fill="#000000" stroke="none">
<path d="M660 3215 c0 -9 -7 -18 -15 -21 -8 -3 -17 -14 -20 -25 -4 -10 -13 -19 -21 -19 -8 0 -14 -9 -14 -21 0 -16 -56 -109 -66 -109 -1 0 0 8 3 19 9 34 -27 35 -60 1 -16 -16 -34 -30 -39 -30 -6 0 -8 -7 -4 -15 3 -8 2 -15 -3 -15 -5 0 -12 -10 -16 -22 -22 -68 -34 -116 -35 -137 0 -17 -4 -22 -16 -17 -11 4 -18 -1 -21 -14 -6 -23 -8 -23 -33 -10 -17 9 -18 6 -13 -43 5 -52 4 -54 -36 -90 -23 -20 -46 -37 -51 -37 -6 0 -10 -9 -10 -19 0 -10 -7 -21 -15 -25 -8 -3 -12 -12 -9 -21 4 -8 1 -22 -6 -30 -6 -8 -9 -23 -6 -33 4 -11 2 -31 -4 -46 -7 -19 -6 -32 1 -44 9 -14 7 -25 -10 -52 -11 -19 -21 -31 -21 -26 0 5 -7 3 -15 -4 -8 -6 -20 -8 -26 -4 -9 5 -11 -7 -6 -51 3 -32 10 -61 15 -64 16 -11 22 -41 12 -63 -5 -13 -9 -17 -9 -10 -1 6 -6 12 -12 12 -5 0 -9 -8 -8 -17 1 -10 1 -27 0 -38 -1 -17 -3 -18 -11 -5 -9 13 -11 13 -20 0 -6 -10 -6 -16 0 -18 6 -2 10 -12 10 -23 0 -10 4 -19 9 -19 5 0 7 -9 4 -20 -3 -11 -9 -20 -14 -20 -12 0 -8 -61 4 -77 6 -9 6 -13 -2 -13 -14 0 -15 -47 -1 -55 8 -5 8 -11 1 -19 -6 -7 -7 -16 -3 -20 4 -4 8 -17 9 -29 0 -12 4 -32 8 -44 6 -17 3 -23 -9 -23 -10 0 -16 -8 -16 -23 0 -13 -5 -28 -12 -35 -8 -8 -9 -21 0 -49 18 -62 22 -102 11 -109 -6 -3 -9 -15 -6 -25 3 -11 2 -19 -3 -19 -12 0 -19 -37 -9 -47 5 -5 12 -20 14 -34 3 -13 12 -29 20 -35 17 -12 21 -29 5 -19 -14 9 -13 -8 2 -23 8 -8 8 -15 -2 -27 -10 -12 -10 -18 -1 -29 10 -11 10 -20 1 -36 -6 -12 -9 -29 -6 -37 4 -9 1 -22 -5 -29 -6 -7 -8 -18 -4 -24 3 -5 -6 -21 -20 -34 -37 -34 -20 -72 59 -134 30 -23 41 -58 25 -77 -11 -14 -15 -88 -5 -103 4 -7 12 -10 17 -7 5 4 10 -4 11 -17 1 -13 2 -30 4 -38 1 -8 2 -23 3 -32 1 -10 8 -18 16 -18 8 0 23 -9 32 -20 12 -14 20 -16 29 -9 9 8 17 1 29 -25 10 -20 21 -36 26 -36 15 0 33 -44 31 -74 -2 -18 5 -36 18 -48 11 -10 20 -23 20 -27 0 -5 11 -12 25 -15 14 -4 25 -12 25 -19 0 -6 17 -26 38 -43 40 -33 78 -52 66 -32 -4 6 -3 9 2 6 5 -2 34 -17 66 -32 31 -14 58 -33 61 -40 3 -7 18 -13 32 -13 15 0 32 -7 37 -14 7 -11 11 -11 15 -1 7 18 19 15 47 -11 42 -39 55 -47 71 -47 8 0 15 -7 15 -15 0 -8 9 -15 20 -15 11 0 22 0 25 0 3 0 5 3 4 7 -1 12 40 23 58 16 12 -5 15 -2 10 10 -10 25 10 20 24 -5 16 -30 40 -47 56 -41 8 3 13 -2 13 -12 0 -13 6 -16 24 -13 19 4 23 1 18 -10 -4 -11 -1 -14 11 -9 9 3 17 2 17 -3 0 -17 25 -11 42 9 8 10 22 21 29 24 12 5 11 8 -1 17 -12 9 -11 10 8 5 24 -7 29 4 10 23 -10 10 -9 15 2 27 16 15 60 10 60 -6 0 -5 7 -9 15 -9 9 0 18 -7 21 -15 4 -8 15 -15 25 -15 10 0 19 -4 19 -10 0 -5 5 -10 11 -10 5 0 8 4 5 8 -2 4 4 8 15 8 12 0 19 -7 19 -18 0 -16 6 -20 26 -17 3 0 15 -11 27 -25 21 -24 24 -24 76 -12 30 7 56 17 58 23 2 6 13 8 24 6 13 -4 17 -8 9 -13 -6 -4 16 -6 48 -4 51 2 63 6 92 34 25 25 35 29 41 18 5 -7 6 -21 3 -30 -4 -14 0 -18 20 -18 14 0 29 -7 34 -17 6 -10 16 -14 26 -10 9 4 16 1 17 -6 0 -7 4 -2 9 11 8 20 16 23 57 21 29 -2 48 2 51 9 5 16 52 15 52 0 0 -7 6 -2 13 12 11 21 18 24 52 22 22 -2 46 -8 52 -14 7 -6 32 -8 57 -7 24 2 42 1 40 -3 -5 -8 32 -49 44 -47 4 1 25 11 47 24 32 18 53 22 108 19 37 -1 73 -7 80 -12 8 -7 24 -5 50 8 20 10 37 14 37 9 0 -6 8 -9 18 -7 9 1 22 -1 28 -4 16 -10 54 20 54 42 0 10 10 26 22 34 15 11 18 16 8 16 -19 1 26 40 46 40 7 0 19 8 26 18 7 9 26 18 42 19 39 3 47 18 42 80 -2 36 1 57 10 64 8 6 12 15 9 19 -3 4 11 15 30 24 22 11 35 24 35 36 0 11 4 20 10 20 5 0 7 -6 4 -13 -6 -16 22 -42 30 -29 3 6 -1 26 -9 45 -8 19 -12 37 -9 40 3 2 7 17 10 32 3 16 9 36 14 46 7 12 6 22 -3 31 -16 17 -13 84 5 105 9 12 9 15 1 9 -19 -11 -16 5 5 21 9 8 11 12 5 8 -8 -4 -13 0 -13 9 0 10 6 13 16 9 14 -5 16 2 13 48 -3 35 -10 60 -22 70 -12 12 -15 25 -11 48 4 17 10 31 15 31 16 0 39 106 38 175 -2 60 -5 74 -28 98 l-26 29 29 -8 c25 -6 28 -4 23 10 -4 10 -1 16 7 16 8 0 17 11 20 25 4 14 12 24 19 22 6 -1 13 10 15 26 2 15 -2 27 -8 27 -6 0 -8 5 -5 10 11 18 -26 99 -48 106 -14 4 -16 8 -7 14 7 4 10 13 6 19 -9 14 4 82 14 76 12 -7 60 39 60 58 0 9 -5 27 -12 40 -30 58 -30 58 -9 76 35 31 20 56 -19 32 -26 -17 -28 -2 -4 46 13 25 24 57 24 69 0 24 -34 50 -57 46 -7 -2 -13 6 -13 17 0 12 -13 27 -30 38 -17 10 -28 23 -26 30 3 7 -1 10 -8 7 -7 -3 -16 2 -19 10 -5 12 -13 13 -42 5 -39 -11 -55 -6 -55 19 0 14 2 14 13 1 6 -8 11 -12 10 -10 -1 2 2 12 7 21 8 15 4 19 -25 24 -24 5 -33 11 -28 21 4 11 -3 15 -26 15 -31 0 -35 5 -31 48 1 23 -15 31 -22 10 -6 -18 -38 -1 -38 20 0 11 -11 24 -26 31 -17 7 -24 17 -20 26 3 9 0 15 -9 15 -8 0 -15 7 -15 15 0 16 -34 38 -44 27 -4 -3 -11 -1 -15 6 -4 7 -23 16 -42 19 -35 5 -52 20 -42 37 3 5 1 6 -5 2 -7 -4 -12 -2 -12 3 0 6 -6 11 -13 11 -13 0 -37 39 -43 69 -2 8 5 20 14 27 15 12 15 13 -6 9 -14 -2 -25 2 -29 11 -8 21 2 27 25 15 26 -14 32 -6 21 31 -5 18 -5 48 0 70 10 43 -2 59 -20 29 -10 -15 -16 -17 -31 -8 -10 7 -18 22 -18 34 0 12 -6 24 -12 26 -10 4 -9 8 2 16 9 7 10 11 3 11 -6 0 -15 -5 -18 -10 -12 -20 -23 0 -20 36 2 20 1 33 -2 30 -3 -3 -12 -1 -20 5 -7 7 -28 9 -48 6 -27 -4 -49 2 -101 28 -52 27 -71 32 -86 24 -25 -14 -58 -2 -84 29 -18 22 -28 26 -64 23 -25 -1 -46 2 -50 9 -4 6 -25 14 -46 16 -67 8 -75 10 -82 21 -4 6 -27 12 -52 14 -43 3 -54 6 -100 29 -11 6 -26 10 -34 10 -7 0 -31 8 -52 17 -22 9 -45 16 -53 14 -7 -1 -20 1 -30 5 -9 4 -43 8 -76 10 -39 2 -63 8 -71 19 -6 8 -18 15 -27 15 -9 0 -19 5 -22 10 -4 6 -15 8 -25 5 -27 -9 -70 5 -70 22 0 8 -6 13 -12 10 -99 -39 -100 -40 -95 -63 3 -16 0 -24 -9 -24 -8 0 -14 -5 -14 -10 0 -7 -7 -7 -21 1 -16 8 -18 13 -9 19 18 11 5 39 -17 39 -40 0 -73 10 -89 26 -11 10 -25 14 -40 11 -13 -4 -40 1 -60 9 -21 8 -39 13 -42 10 -3 -3 -11 0 -18 6 -9 7 -19 7 -33 0 -25 -14 -41 -14 -21 -1 8 5 10 10 4 10 -6 0 -17 -7 -24 -15 -7 -8 -20 -15 -28 -15 -12 0 -13 3 -4 12 16 16 15 28 -3 28 -8 0 -15 -7 -15 -15z m1725 -402 c-11 -7 -22 -13 -27 -13 -14 0 -8 19 9 29 25 13 40 1 18 -16z m435 -604 c0 -5 -4 -9 -9 -9 -5 0 -17 -3 -25 -6 -11 -4 -15 -2 -11 8 6 15 45 22 45 7z m284 -344 c-4 -8 -10 -12 -15 -9 -14 8 -10 24 6 24 9 0 12 -6 9 -15z"/>
</g>
<g id="layer102" fill="#4878e3" stroke="none">
<path d="M2473 2494 c-4 -22 -7 -75 -6 -119 3 -125 1 -175 -9 -190 -7 -13 -3 -274 5 -282 4 -3 2 -14 -3 -24 -7 -12 -6 -19 2 -21 9 -3 8 -23 -3 -83 -13 -71 -17 -79 -39 -80 -13 -1 -35 4 -48 11 -17 8 -32 10 -49 3 -16 -6 -31 -5 -45 2 -16 8 -22 8 -29 -2 -4 -7 -11 -10 -15 -7 -4 4 -16 1 -28 -7 -11 -8 -33 -15 -48 -15 -15 0 -30 -5 -33 -10 -4 -6 -11 -8 -16 -4 -6 3 -16 -2 -23 -11 -11 -15 -18 -15 -57 -5 -24 7 -49 16 -56 21 -7 7 -14 6 -18 -1 -5 -8 -12 -7 -24 4 -13 12 -30 15 -69 10 -44 -5 -52 -3 -52 11 0 13 -6 16 -26 11 -15 -4 -32 -2 -40 5 -8 6 -23 9 -34 6 -11 -3 -23 -1 -26 4 -3 5 -18 8 -34 7 -15 -1 -35 4 -44 11 -9 7 -27 11 -41 9 -14 -3 -28 -1 -31 4 -9 14 -55 31 -92 33 -18 1 -38 7 -45 14 -14 14 -54 15 -62 1 -5 -8 -11 -8 -19 0 -7 5 -26 11 -42 12 -16 1 -36 8 -46 16 -14 11 -21 11 -47 -2 -29 -15 -31 -15 -41 4 -12 23 -30 27 -30 7 0 -19 -43 -57 -63 -57 -9 0 -17 -4 -17 -10 0 -5 -6 -10 -13 -10 -7 0 -27 -13 -45 -29 -17 -17 -32 -27 -32 -24 0 3 -7 0 -15 -7 -8 -6 -18 -9 -23 -6 -5 3 -19 -8 -30 -24 l-22 -29 33 -6 c17 -3 45 -7 61 -9 16 -2 34 -9 40 -17 6 -8 32 -15 60 -16 27 -1 52 -6 56 -13 3 -6 20 -10 36 -10 60 0 79 -4 92 -22 8 -11 25 -17 45 -16 39 1 114 -19 122 -32 4 -6 11 -7 17 -4 5 4 22 -3 37 -14 22 -16 113 -37 151 -35 3 1 13 -5 24 -12 10 -8 24 -11 31 -9 6 3 18 -2 25 -11 7 -8 19 -15 26 -15 16 0 19 -16 5 -24 -4 -3 -11 -19 -14 -35 -6 -31 -31 -61 -50 -61 -7 0 -24 11 -38 24 -19 18 -30 21 -43 14 -11 -6 -21 -6 -29 0 -7 5 -40 13 -74 17 -34 4 -67 13 -74 21 -6 8 -20 14 -30 14 -10 0 -20 4 -23 9 -3 4 -26 11 -51 14 -25 4 -57 14 -72 24 -14 10 -45 18 -67 19 -54 3 -98 14 -113 30 -7 7 -25 11 -39 8 -14 -3 -32 0 -40 7 -8 6 -24 9 -37 5 -18 -4 -30 1 -46 20 -17 19 -30 25 -54 23 -18 -2 -38 0 -45 5 -6 4 -17 4 -22 1 -6 -3 -13 0 -16 8 -3 9 -19 14 -44 14 -30 0 -40 -4 -49 -24 -6 -13 -17 -23 -23 -21 -7 1 -23 -3 -35 -10 -13 -7 -23 -10 -23 -7 0 6 -62 -24 -70 -34 -5 -6 -53 -33 -97 -55 -43 -21 -30 -66 20 -66 12 0 28 -5 33 -10 6 -6 32 -11 57 -12 26 0 47 -4 47 -8 0 -11 158 -65 167 -57 2 3 23 -1 44 -9 22 -7 61 -15 86 -17 25 -3 55 -12 66 -22 13 -12 40 -19 72 -20 27 -1 71 -10 97 -19 25 -9 53 -13 62 -10 9 4 24 0 34 -8 9 -9 37 -18 62 -21 24 -3 49 -12 55 -20 5 -8 21 -18 35 -22 14 -4 28 -13 32 -19 5 -8 14 -7 30 3 20 12 24 11 42 -12 l21 -26 17 30 c10 16 34 37 55 45 21 9 42 22 46 30 4 8 20 14 35 14 25 0 27 -3 27 -40 1 -22 -3 -40 -8 -40 -5 0 -4 -7 3 -15 9 -10 9 -15 1 -15 -6 0 -11 -7 -11 -15 0 -19 -37 -38 -65 -33 -18 4 -22 0 -22 -19 -1 -36 -8 -38 -57 -9 -50 29 -68 33 -60 11 11 -27 -19 -44 -62 -35 -52 9 -106 33 -123 53 -7 10 -23 17 -35 17 -12 0 -32 7 -44 16 -14 9 -33 14 -46 10 -20 -5 -98 12 -146 31 -8 3 -32 7 -52 8 -20 1 -44 7 -52 14 -9 7 -37 15 -63 17 -26 3 -50 10 -54 16 -4 6 -21 9 -42 5 -25 -4 -40 -1 -48 9 -6 7 -15 11 -20 8 -5 -3 -9 -1 -9 5 0 5 -13 9 -30 9 -16 -1 -36 4 -43 11 -8 6 -31 12 -51 13 -20 1 -36 5 -36 10 0 4 -16 8 -35 8 -19 0 -35 5 -35 11 0 5 -4 8 -9 5 -5 -4 -22 -1 -37 4 -15 6 -41 12 -57 14 -16 2 -40 15 -54 29 -24 24 -25 25 -8 51 10 14 21 26 26 26 17 0 9 25 -11 38 -11 7 -20 20 -20 28 0 9 -7 22 -15 28 -8 6 -19 25 -24 43 -8 26 -6 35 10 49 22 20 20 61 -6 111 -12 24 -13 37 -6 52 6 11 11 33 11 50 0 16 3 32 7 34 8 5 8 22 -2 177 -7 98 -7 99 1 163 5 36 3 47 -8 47 -11 0 -14 18 -15 80 0 44 4 80 9 80 13 0 6 53 -8 57 -6 2 -19 -12 -29 -31 -10 -19 -22 -33 -26 -30 -4 2 -11 -1 -14 -7 -4 -5 -14 -8 -22 -4 -14 5 -15 -3 -10 -51 3 -32 10 -60 15 -63 16 -11 22 -41 12 -63 -5 -13 -9 -17 -9 -10 -1 6 -6 12 -12 12 -5 0 -9 -8 -8 -17 1 -10 1 -27 0 -38 -1 -17 -3 -18 -11 -5 -9 13 -11 13 -20 0 -6 -10 -6 -16 0 -18 6 -2 10 -12 10 -23 0 -10 4 -19 9 -19 5 0 7 -9 4 -20 -3 -11 -9 -20 -14 -20 -12 0 -8 -61 4 -77 6 -9 6 -13 -2 -13 -14 0 -15 -47 -1 -55 8 -5 8 -11 1 -19 -6 -7 -7 -16 -3 -20 4 -4 8 -17 9 -29 0 -12 4 -32 8 -44 6 -17 3 -23 -9 -23 -10 0 -16 -8 -16 -23 0 -13 -5 -28 -12 -35 -8 -8 -9 -21 0 -49 18 -62 22 -102 11 -109 -6 -3 -9 -15 -6 -25 3 -11 2 -19 -3 -19 -12 0 -19 -37 -9 -47 5 -5 12 -20 14 -34 3 -13 12 -29 20 -35 17 -12 21 -29 5 -19 -14 9 -13 -8 2 -23 8 -8 8 -15 -2 -27 -10 -12 -10 -18 -1 -29 9 -11 10 -20 1 -36 -6 -11 -8 -29 -5 -40 3 -10 1 -21 -5 -25 -6 -4 -9 -14 -6 -22 3 -8 -5 -25 -20 -38 -36 -33 -19 -71 60 -133 30 -23 41 -58 25 -77 -11 -14 -15 -88 -5 -103 4 -7 12 -10 17 -7 5 4 10 -4 11 -17 1 -13 2 -30 4 -38 1 -8 2 -23 3 -32 1 -10 8 -18 16 -18 8 0 23 -9 32 -20 12 -14 20 -16 29 -9 9 8 17 1 29 -25 10 -20 21 -36 26 -36 15 0 33 -44 31 -74 -2 -18 5 -36 18 -48 11 -10 20 -23 20 -27 0 -5 11 -12 25 -15 14 -4 25 -12 25 -19 0 -6 17 -26 38 -43 40 -33 78 -52 66 -32 -4 6 -3 9 2 6 5 -2 34 -17 66 -32 31 -14 58 -33 61 -40 3 -7 18 -13 32 -13 15 0 32 -7 37 -14 7 -11 11 -11 15 -1 7 18 19 15 47 -10 42 -40 55 -48 71 -48 8 0 15 -7 15 -15 0 -8 9 -15 20 -15 11 0 22 0 25 0 3 0 5 3 4 7 -1 12 40 23 58 16 12 -5 15 -2 10 10 -10 25 10 20 24 -5 16 -30 40 -47 56 -41 8 3 13 -2 13 -12 0 -13 6 -16 24 -13 19 4 23 1 18 -10 -4 -11 -1 -14 11 -9 9 3 17 2 17 -3 0 -17 25 -11 42 9 8 10 22 21 29 24 12 5 11 8 -1 17 -12 9 -11 10 8 5 24 -7 29 4 10 23 -10 9 -9 15 2 27 16 15 60 10 60 -6 0 -5 7 -9 15 -9 9 0 18 -7 21 -15 4 -8 15 -15 25 -15 10 0 19 -4 19 -10 0 -5 5 -10 11 -10 5 0 8 4 5 8 -2 4 4 8 15 8 12 0 19 -7 19 -18 0 -16 6 -20 26 -17 3 0 15 -11 27 -25 21 -24 24 -24 76 -12 30 7 56 17 58 23 2 6 13 8 24 6 13 -4 17 -8 9 -13 -6 -4 16 -6 48 -4 51 2 63 6 92 34 25 25 35 29 41 18 5 -7 6 -21 3 -30 -4 -14 0 -18 20 -18 14 0 29 -7 34 -17 6 -10 16 -14 26 -10 9 4 16 1 17 -6 0 -7 4 -2 9 11 8 20 16 23 57 21 29 -2 48 2 51 9 5 16 52 15 52 0 0 -7 6 -2 13 12 11 21 18 24 52 22 22 -2 46 -8 52 -14 7 -6 32 -8 57 -7 24 2 42 1 40 -3 -5 -8 32 -49 44 -47 4 1 25 11 47 24 32 18 53 22 108 19 37 -1 73 -7 80 -12 8 -7 24 -5 50 8 20 10 37 14 37 9 0 -6 8 -9 18 -7 9 1 22 -1 28 -4 16 -10 54 20 54 42 0 10 10 26 22 34 15 11 18 16 8 16 -19 1 26 40 46 40 7 0 19 8 26 18 7 9 26 18 42 19 39 3 47 18 42 80 -2 36 1 57 10 64 8 6 12 15 9 19 -3 4 11 15 30 24 22 11 35 24 35 36 0 11 4 20 10 20 5 0 7 -6 4 -13 -6 -16 22 -42 30 -29 3 6 -1 26 -9 45 -8 19 -12 37 -9 40 3 2 7 17 10 32 3 16 9 36 14 46 7 12 6 22 -3 31 -16 17 -13 84 5 105 9 12 9 15 1 9 -19 -11 -16 5 5 21 9 8 11 12 5 8 -8 -4 -13 0 -13 9 0 10 6 13 16 9 14 -5 16 2 13 48 -3 35 -10 60 -22 70 -12 12 -15 25 -11 48 4 17 10 31 15 31 16 0 39 106 38 175 -2 60 -5 74 -28 98 l-26 29 29 -8 c25 -6 28 -4 23 10 -4 10 -1 16 7 16 8 0 17 11 20 25 4 14 12 24 19 22 6 -1 13 10 15 26 2 15 -2 27 -8 27 -6 0 -8 5 -5 10 11 18 -26 99 -48 106 -14 4 -16 8 -7 14 7 4 10 13 6 19 -9 14 4 82 14 76 12 -7 60 39 60 58 0 9 -5 26 -10 37 -6 11 -15 29 -21 41 -8 17 -6 24 10 38 35 31 20 56 -19 32 -26 -17 -28 -2 -4 46 13 25 24 57 24 69 0 24 -34 50 -57 46 -7 -2 -13 6 -13 17 0 12 -13 27 -30 38 -17 10 -28 23 -26 30 3 7 -1 10 -8 7 -7 -3 -16 2 -19 10 -5 12 -13 13 -42 5 -39 -11 -55 -6 -55 19 0 14 2 14 13 1 6 -8 11 -12 10 -10 -1 2 2 12 7 21 8 15 4 19 -25 24 -24 5 -33 11 -28 21 4 11 -3 15 -26 15 -31 0 -35 5 -31 48 1 23 -15 31 -22 10 -6 -18 -38 -1 -38 20 0 11 -11 24 -26 31 -17 7 -24 17 -20 26 3 9 0 15 -9 15 -8 0 -15 7 -15 15 0 16 -34 38 -44 27 -4 -3 -11 -1 -15 6 -4 7 -23 16 -42 19 -35 5 -52 20 -42 37 3 5 1 6 -5 2 -7 -4 -12 -2 -12 3 0 6 -6 11 -13 11 -12 0 -39 41 -41 62 -3 24 -16 14 -23 -18z m347 -285 c0 -5 -4 -9 -9 -9 -5 0 -17 -3 -25 -6 -11 -4 -15 -2 -11 8 6 15 45 22 45 7z m284 -344 c-4 -8 -10 -12 -15 -9 -14 8 -10 24 6 24 9 0 12 -6 9 -15z"/>
</g>
<g id="layer103" fill="#f66941" stroke="none">
<path d="M660 3215 c0 -9 -7 -18 -15 -21 -8 -3 -17 -14 -20 -25 -4 -10 -13 -19 -21 -19 -8 0 -14 -9 -14 -21 0 -16 -56 -109 -66 -109 -1 0 0 8 3 19 9 34 -27 35 -60 1 -16 -16 -34 -30 -39 -30 -6 0 -8 -7 -4 -15 3 -8 2 -15 -3 -15 -5 0 -12 -10 -16 -22 -22 -68 -34 -116 -35 -137 0 -17 -4 -22 -16 -17 -11 4 -18 -1 -21 -14 -6 -23 -8 -24 -33 -10 -18 10 -19 7 -14 -32 4 -24 7 -44 9 -46 1 -1 22 13 45 33 24 20 49 34 57 31 7 -3 13 -1 13 4 0 6 6 10 14 10 8 0 21 9 30 21 10 15 20 19 35 14 12 -3 21 -3 20 2 -6 33 13 52 56 57 12 1 55 47 55 59 0 4 11 5 25 1 17 -4 34 1 57 17 18 13 38 23 44 21 5 -1 19 6 30 16 10 10 34 24 52 31 17 7 32 17 32 21 0 11 49 30 79 30 19 0 30 6 33 18 4 13 13 18 35 16 17 -1 36 2 43 6 18 11 5 39 -17 39 -40 0 -73 10 -89 26 -11 10 -25 14 -40 11 -13 -4 -40 1 -60 9 -21 8 -39 13 -42 10 -3 -3 -11 0 -18 6 -9 7 -19 7 -33 0 -25 -14 -41 -14 -21 -1 8 5 10 10 4 10 -6 0 -17 -7 -24 -15 -7 -8 -20 -15 -28 -15 -12 0 -13 3 -4 12 16 16 15 28 -3 28 -8 0 -15 -7 -15 -15z"/>
<path d="M1190 3025 c0 -8 -6 -15 -14 -15 -19 0 -25 -20 -14 -49 5 -14 6 -37 3 -53 -5 -19 -1 -37 9 -52 13 -21 14 -26 0 -36 -12 -11 -12 -16 -1 -34 43 -66 43 -65 23 -79 -17 -12 -17 -14 7 -37 17 -16 23 -30 18 -40 -4 -8 -7 -42 -6 -75 3 -70 -15 -228 -26 -235 -5 -3 -4 -22 0 -42 5 -20 5 -40 0 -45 -5 -5 -10 -29 -13 -53 -2 -25 -9 -60 -15 -78 -8 -27 -7 -39 6 -59 11 -16 13 -27 6 -31 -6 -4 -14 -22 -18 -41 l-7 -33 31 18 c24 14 33 16 43 6 7 -7 20 -12 30 -12 10 0 18 -4 18 -10 0 -5 25 -10 55 -10 30 0 55 -4 55 -9 0 -5 25 -7 55 -5 32 2 55 0 55 -6 0 -6 11 -10 24 -10 13 0 29 -6 35 -14 6 -7 33 -16 59 -19 110 -13 136 -22 111 -38 -11 -7 -10 -9 4 -9 9 0 17 5 17 10 0 12 107 13 114 1 5 -7 60 -23 69 -20 1 1 18 -5 37 -13 19 -8 54 -15 76 -16 23 -1 54 -8 70 -17 15 -8 38 -12 50 -9 12 3 28 -1 38 -11 13 -14 19 -15 31 -5 12 10 19 10 33 -4 23 -20 46 -20 67 0 14 14 14 18 2 33 -9 10 -12 23 -7 36 4 11 5 32 3 48 -4 18 -1 27 7 27 9 0 8 6 -4 19 -14 15 -14 20 -3 30 11 9 12 22 4 63 -8 37 -7 53 1 56 11 3 5 33 -10 43 -12 8 10 117 32 160 17 32 17 37 3 51 -11 12 -15 38 -15 107 0 50 -4 94 -9 97 -5 3 -6 10 -2 17 4 6 7 20 8 31 1 12 6 45 10 75 l8 53 -41 -6 c-34 -4 -42 -2 -47 13 -5 17 -72 40 -84 29 -2 -1 -8 7 -12 20 -5 14 -15 22 -26 20 -11 -2 -22 6 -28 20 -8 20 -15 22 -40 16 -58 -14 -130 -4 -148 19 -7 9 -29 17 -50 19 -21 1 -41 7 -45 14 -12 19 -43 31 -127 49 -44 9 -91 24 -105 33 -14 9 -36 16 -50 17 -14 1 -36 7 -49 14 -13 7 -36 10 -52 7 -22 -4 -31 -1 -40 15 -8 16 -13 18 -25 8 -10 -8 -18 -9 -27 0 -8 6 -17 8 -20 4 -4 -3 -17 -2 -30 4 -26 13 -105 43 -112 43 -3 0 -5 -7 -5 -15z m225 -545 c8 -25 40 -43 65 -35 10 3 36 -2 57 -11 21 -9 46 -16 55 -15 10 1 28 -3 40 -10 13 -7 38 -12 56 -10 18 1 47 -5 65 -13 18 -8 38 -16 46 -18 22 -4 51 -30 45 -40 -3 -4 -1 -8 5 -8 5 0 14 7 18 15 5 8 21 16 36 17 15 1 27 6 27 10 0 11 32 10 69 -3 27 -10 32 -16 28 -35 -3 -17 0 -24 11 -24 8 0 13 -3 9 -6 -3 -3 4 -15 16 -27 l20 -20 -34 -29 c-38 -32 -70 -31 -98 3 -21 26 -98 42 -109 24 -12 -23 -55 -22 -74 1 -12 14 -30 21 -59 22 -24 1 -47 6 -52 11 -10 10 1 61 14 61 5 0 9 4 9 10 0 5 -7 7 -15 4 -8 -4 -15 -12 -15 -20 0 -8 -8 -14 -18 -14 -9 0 -29 -11 -44 -25 -24 -22 -30 -24 -48 -13 -11 7 -20 16 -20 20 0 5 -7 8 -15 8 -8 0 -15 -4 -15 -10 0 -5 -9 -10 -19 -10 -11 0 -23 5 -26 10 -3 6 -17 10 -29 10 -13 0 -29 7 -36 15 -7 8 -25 15 -40 15 -15 0 -38 8 -51 19 l-23 19 18 40 c13 30 30 47 60 61 52 25 63 26 71 1z m3 -275 c-3 -27 0 -30 25 -27 15 1 27 -2 27 -8 0 -12 47 -3 67 12 8 6 19 2 33 -12 12 -12 35 -23 52 -25 17 -2 41 -14 55 -27 22 -20 22 -24 8 -34 -9 -7 -12 -14 -7 -15 6 -2 6 -13 1 -26 -8 -23 -67 -42 -78 -25 -3 5 -15 6 -26 2 -13 -5 -31 -1 -53 12 -24 15 -44 19 -73 15 -26 -3 -44 -1 -53 8 -11 12 -17 12 -32 0 -25 -19 -44 -19 -44 0 0 8 -9 15 -19 15 -17 0 -19 7 -17 59 2 59 21 103 55 127 11 9 23 8 49 -4 28 -14 33 -21 30 -47z m436 -136 c3 -17 10 -28 16 -24 16 10 12 -6 -7 -27 -9 -10 -21 -18 -28 -18 -20 0 -101 43 -89 47 7 2 10 14 8 26 -2 12 -2 16 2 10 8 -18 27 -16 20 2 -3 10 1 15 14 15 10 0 22 5 25 10 10 17 32 -6 39 -41z"/>
<path d="M1867 2969 c7 -24 28 -31 58 -19 26 10 34 29 13 31 -76 7 -76 7 -71 -12z"/>
<path d="M973 2948 c-9 -10 -26 -18 -38 -18 -12 0 -30 -9 -40 -20 -10 -11 -24 -20 -32 -20 -7 0 -13 -4 -13 -10 0 -5 -7 -10 -15 -10 -8 0 -15 -4 -15 -10 0 -5 -13 -10 -29 -10 -16 0 -37 -7 -45 -16 -9 -8 -26 -14 -39 -13 -42 5 -65 -9 -59 -36 3 -19 0 -25 -12 -25 -19 0 -67 -29 -79 -47 -4 -7 -14 -13 -21 -13 -7 0 -21 -9 -31 -20 -10 -11 -24 -20 -32 -20 -8 0 -31 -18 -50 -40 -20 -22 -42 -40 -50 -40 -7 0 -13 -7 -13 -15 0 -8 -5 -15 -10 -15 -6 0 -16 -11 -22 -25 -6 -14 -18 -25 -26 -25 -10 0 -12 -7 -8 -24 4 -17 1 -26 -11 -30 -15 -6 -15 -8 1 -19 18 -13 23 -58 13 -115 -4 -19 -1 -42 6 -53 10 -16 9 -21 -2 -28 -10 -6 -10 -10 -1 -16 7 -4 10 -27 9 -56 -2 -27 2 -54 8 -60 9 -9 8 -17 0 -31 -8 -12 -9 -21 -2 -26 10 -7 13 -39 14 -157 0 -131 -2 -155 -10 -155 -12 0 -12 -47 0 -54 5 -4 7 -23 5 -44 -3 -20 -6 -56 -8 -79 l-2 -43 33 32 c18 18 33 28 33 24 0 -5 11 -1 25 8 13 9 33 16 44 16 11 0 23 5 26 10 3 6 17 10 30 10 13 0 27 5 31 11 3 6 17 9 30 6 15 -3 24 0 24 9 0 7 9 16 20 19 11 3 20 10 20 15 0 4 17 15 38 24 50 23 83 42 91 54 3 5 21 17 39 26 17 9 32 21 32 27 0 6 7 8 16 5 10 -4 18 1 21 13 3 12 17 23 34 26 16 4 38 18 48 32 14 16 26 23 39 19 12 -4 26 2 42 19 19 20 21 27 10 40 -9 11 -10 18 -1 29 8 10 9 21 1 41 -10 27 -9 63 4 96 4 8 2 28 -4 44 -7 19 -8 31 0 39 5 5 10 22 10 36 0 14 5 31 10 36 7 7 7 19 2 35 -7 18 -5 27 7 36 13 10 14 15 3 32 -7 12 -8 21 -2 21 5 0 7 13 4 30 -4 17 -3 30 2 30 11 0 12 125 2 136 -4 4 -5 18 -2 31 4 13 1 30 -6 38 -7 8 -10 22 -6 30 3 8 1 28 -5 43 -14 34 -19 73 -12 85 9 14 9 97 1 97 -5 0 -8 11 -8 24 0 19 -5 24 -26 22 -14 0 -33 -9 -41 -18z"/>
<path d="M1998 2962 c-52 -4 -48 -16 12 -32 28 -7 50 -17 50 -22 0 -4 5 -8 10 -8 17 0 11 17 -12 42 -18 18 -31 23 -60 20z"/>
<path d="M2151 2911 c-9 -6 -4 -13 18 -24 18 -9 31 -11 31 -5 0 7 5 6 14 -1 14 -12 56 -23 56 -15 0 2 -21 14 -47 26 -27 12 -50 23 -53 24 -3 1 -12 -1 -19 -5z"/>
<path d="M2316 2851 c-3 -5 1 -14 9 -21 12 -10 21 -10 40 -2 24 11 46 0 25 -13 -6 -4 -8 -11 -4 -16 9 -16 24 1 22 26 -1 13 -5 22 -9 19 -4 -2 -10 0 -14 6 -8 12 -62 13 -69 1z"/>
<path d="M2492 2703 c-11 -16 -23 -46 -26 -68 -7 -38 -5 -41 23 -52 37 -14 41 -9 30 29 -5 18 -5 48 0 70 11 48 -1 57 -27 21z"/>
<path d="M2473 2494 c-4 -22 -7 -75 -6 -119 3 -125 1 -175 -9 -190 -7 -13 -3 -274 5 -282 4 -3 2 -14 -3 -24 -7 -12 -6 -19 2 -21 10 -4 9 -20 -1 -72 -15 -75 -4 -116 30 -116 10 0 24 -6 31 -13 7 -8 19 -12 26 -9 6 2 12 -1 12 -8 0 -6 4 -9 9 -6 4 3 26 -10 49 -29 22 -19 50 -35 61 -35 12 0 20 -3 20 -7 -5 -29 5 -45 30 -54 21 -8 28 -15 24 -26 -4 -9 1 -21 11 -29 10 -7 15 -17 11 -23 -3 -6 -2 -11 2 -11 11 0 37 -53 53 -107 7 -24 17 -43 21 -43 14 0 40 -60 35 -78 -3 -9 0 -29 8 -43 12 -24 12 -29 -3 -44 -9 -10 -11 -15 -5 -12 6 4 17 -4 24 -17 13 -26 7 -61 -18 -88 -10 -13 -11 -18 -3 -18 14 0 8 -25 -15 -74 -8 -16 -14 -35 -14 -42 0 -7 -6 -15 -12 -17 -10 -4 -10 -6 0 -6 10 -1 10 -6 -2 -23 -9 -12 -16 -31 -16 -40 0 -10 -4 -26 -9 -36 -4 -9 -19 -39 -32 -66 -15 -29 -34 -52 -49 -58 -14 -5 -35 -18 -46 -29 -12 -11 -28 -20 -35 -19 -28 4 -38 0 -44 -20 -4 -11 -18 -34 -32 -50 -20 -24 -28 -28 -39 -19 -11 9 -15 8 -20 -5 -3 -9 -15 -16 -25 -16 -10 0 -19 -6 -19 -12 0 -10 -29 -12 -118 -11 -64 1 -130 4 -147 5 -16 2 -35 0 -41 -4 -6 -5 -17 -2 -24 7 -7 8 -25 15 -41 15 -16 0 -29 5 -29 10 0 6 -3 9 -7 8 -5 -1 -28 2 -53 7 -25 5 -48 9 -52 9 -4 1 -16 9 -28 18 -11 10 -20 14 -20 10 0 -4 -5 1 -11 11 -6 9 -14 15 -19 12 -5 -3 -14 4 -20 16 -17 31 -52 69 -64 69 -16 0 -66 61 -87 107 -11 23 -24 45 -29 48 -6 3 -10 18 -10 33 0 15 -9 40 -19 56 -11 17 -18 33 -15 37 2 4 -1 20 -8 36 -6 15 -12 35 -12 43 -1 11 -13 15 -47 15 -42 0 -46 -2 -46 -23 -1 -35 -9 -36 -57 -8 -50 29 -68 33 -60 11 11 -27 -19 -44 -62 -35 -52 9 -106 33 -123 53 -7 10 -23 17 -35 17 -12 0 -32 7 -44 16 -14 9 -33 14 -46 10 -20 -5 -98 12 -146 31 -8 3 -32 7 -52 8 -20 1 -44 7 -52 14 -9 7 -37 15 -63 17 -26 3 -50 10 -54 16 -4 6 -21 9 -42 5 -25 -4 -40 -1 -48 9 -6 7 -15 11 -20 8 -5 -3 -9 0 -9 6 0 6 -12 9 -27 7 -16 -3 -35 2 -44 10 -9 7 -33 14 -53 15 -20 1 -39 5 -42 10 -3 4 -18 8 -35 8 -16 0 -29 5 -29 11 0 5 -4 8 -9 5 -5 -4 -22 -1 -37 4 -15 6 -41 12 -57 14 -16 2 -40 15 -54 29 -24 24 -25 25 -8 51 10 14 21 26 26 26 17 0 9 25 -11 38 -11 7 -20 20 -20 28 0 9 -7 22 -15 28 -8 6 -19 25 -24 43 -8 26 -6 35 10 49 22 20 20 61 -6 111 -12 24 -13 37 -6 52 6 11 11 33 11 50 0 16 3 32 7 34 8 5 8 22 -2 177 -7 98 -7 99 1 163 5 36 3 47 -8 47 -11 0 -14 18 -15 80 0 44 4 80 9 80 13 0 6 53 -8 57 -6 2 -19 -12 -29 -31 -10 -19 -22 -33 -26 -30 -4 2 -11 -1 -14 -7 -4 -5 -14 -8 -22 -4 -14 5 -15 -3 -10 -51 3 -32 10 -60 15 -63 16 -11 22 -41 12 -63 -5 -13 -9 -17 -9 -10 -1 6 -6 12 -12 12 -5 0 -9 -8 -8 -17 1 -10 1 -27 0 -38 -1 -17 -3 -18 -11 -5 -9 13 -11 13 -20 0 -6 -10 -6 -16 0 -18 6 -2 10 -12 10 -23 0 -10 4 -19 9 -19 5 0 7 -9 4 -20 -3 -11 -9 -20 -14 -20 -12 0 -8 -61 4 -77 6 -9 6 -13 -2 -13 -14 0 -15 -47 -1 -55 8 -5 8 -11 1 -19 -6 -7 -7 -16 -3 -20 4 -4 8 -17 9 -29 0 -12 4 -32 8 -44 6 -17 3 -23 -9 -23 -10 0 -16 -8 -16 -23 0 -13 -5 -28 -12 -35 -8 -8 -9 -21 0 -49 18 -62 22 -102 11 -109 -6 -3 -9 -15 -6 -25 3 -11 2 -19 -3 -19 -12 0 -19 -37 -9 -47 5 -5 12 -20 14 -34 3 -13 12 -29 20 -35 17 -12 21 -29 5 -19 -14 9 -13 -8 2 -23 8 -8 8 -15 -2 -27 -10 -12 -10 -18 -1 -29 9 -11 10 -20 1 -36 -6 -11 -8 -29 -5 -40 3 -10 1 -21 -5 -25 -6 -4 -9 -14 -6 -22 3 -8 -5 -25 -20 -38 -36 -33 -19 -71 60 -133 30 -23 41 -58 25 -77 -11 -14 -15 -88 -5 -103 4 -7 12 -10 17 -7 5 4 10 -4 11 -17 1 -13 2 -30 4 -38 1 -8 2 -23 3 -32 1 -10 8 -18 16 -18 8 0 23 -9 32 -20 12 -14 20 -16 29 -9 9 8 17 1 29 -25 10 -20 21 -36 26 -36 15 0 33 -44 31 -74 -2 -18 5 -36 18 -48 11 -10 20 -23 20 -27 0 -5 11 -12 25 -15 14 -4 25 -12 25 -19 0 -6 17 -26 38 -43 40 -33 78 -52 66 -32 -4 6 -3 9 2 6 5 -2 34 -17 66 -32 31 -14 58 -33 61 -40 3 -7 18 -13 32 -13 15 0 32 -7 37 -14 7 -11 11 -11 15 -1 7 18 19 15 47 -10 42 -40 55 -48 71 -48 8 0 15 -7 15 -15 0 -8 9 -15 20 -15 11 0 22 0 25 0 3 0 5 3 4 7 -1 12 40 23 58 16 12 -5 15 -2 10 10 -10 25 10 20 24 -5 16 -30 40 -47 56 -41 8 3 13 -2 13 -12 0 -13 6 -16 24 -13 19 4 23 1 18 -10 -4 -11 -1 -14 11 -9 9 3 17 2 17 -3 0 -17 25 -11 42 9 8 10 22 21 29 24 12 5 11 8 -1 17 -12 9 -11 10 8 5 24 -7 29 4 10 23 -10 9 -9 15 2 27 16 15 60 10 60 -6 0 -5 7 -9 15 -9 9 0 18 -7 21 -15 4 -8 15 -15 25 -15 10 0 19 -4 19 -10 0 -5 5 -10 11 -10 5 0 8 4 5 8 -2 4 4 8 15 8 12 0 19 -7 19 -18 0 -16 6 -20 26 -17 3 0 15 -11 27 -25 21 -24 24 -24 76 -12 30 7 56 17 58 23 2 6 13 8 24 6 13 -4 17 -8 9 -13 -6 -4 16 -6 48 -4 51 2 63 6 92 34 25 25 35 29 41 18 5 -7 6 -21 3 -30 -4 -14 0 -18 20 -18 14 0 29 -7 34 -17 6 -10 16 -14 26 -10 9 4 16 1 17 -6 0 -7 4 -2 9 11 8 20 16 23 57 21 29 -2 48 2 51 9 5 16 52 15 52 0 0 -7 6 -2 13 12 11 21 18 24 52 22 22 -2 46 -8 52 -14 7 -6 32 -8 57 -7 24 2 42 1 40 -3 -5 -8 32 -49 44 -47 4 1 25 11 47 24 32 18 53 22 108 19 37 -1 73 -7 80 -12 8 -7 24 -5 50 8 20 10 37 14 37 9 0 -6 8 -9 18 -7 9 1 22 -1 28 -4 16 -10 54 20 54 42 0 10 10 26 22 34 15 11 18 16 8 16 -19 1 26 40 46 40 7 0 19 8 26 18 7 9 26 18 42 19 39 3 47 18 42 80 -2 36 1 57 10 64 8 6 12 15 9 19 -3 4 11 15 30 24 22 11 35 24 35 36 0 11 4 20 10 20 5 0 7 -6 4 -13 -6 -16 22 -42 30 -29 3 6 -1 26 -9 45 -8 19 -12 37 -9 40 3 2 7 17 10 32 3 16 9 36 14 46 7 12 6 22 -3 31 -16 17 -13 84 5 105 9 12 9 15 1 9 -19 -11 -16 5 5 21 9 8 11 12 5 8 -8 -4 -13 0 -13 9 0 10 6 13 16 9 14 -5 16 2 13 48 -3 35 -10 60 -22 70 -12 12 -15 25 -11 48 4 17 10 31 15 31 16 0 39 106 38 175 -2 60 -5 74 -28 98 l-26 29 29 -8 c25 -6 28 -4 23 10 -4 10 -1 16 7 16 8 0 17 11 20 25 4 14 12 24 19 22 6 -1 13 10 15 26 2 15 -2 27 -8 27 -6 0 -8 5 -5 10 11 18 -26 99 -48 106 -14 4 -16 8 -7 14 7 4 10 13 6 19 -9 14 4 82 14 76 12 -7 60 39 60 58 0 9 -5 26 -10 37 -6 11 -15 29 -21 41 -8 17 -6 24 10 38 35 31 20 56 -19 32 -26 -17 -28 -2 -4 46 13 25 24 57 24 69 0 24 -34 50 -57 46 -7 -2 -13 6 -13 17 0 12 -13 27 -30 38 -17 10 -28 23 -26 30 3 7 -1 10 -8 7 -7 -3 -16 2 -19 10 -5 12 -13 13 -42 5 -39 -11 -55 -6 -55 19 0 14 2 14 13 1 6 -8 11 -12 10 -10 -1 2 2 12 7 21 8 15 4 19 -25 24 -24 5 -33 11 -28 21 4 11 -3 15 -26 15 -31 0 -35 5 -31 48 1 23 -15 31 -22 10 -6 -18 -38 -1 -38 20 0 11 -11 24 -26 31 -17 7 -24 17 -20 26 3 9 0 15 -9 15 -8 0 -15 7 -15 15 0 16 -34 38 -44 27 -4 -3 -11 -1 -15 6 -4 7 -23 16 -42 19 -35 5 -52 20 -42 37 3 5 1 6 -5 2 -7 -4 -12 -2 -12 3 0 6 -6 11 -13 11 -12 0 -39 41 -41 62 -3 24 -16 14 -23 -18z m347 -285 c0 -5 -4 -9 -9 -9 -5 0 -17 -3 -25 -6 -11 -4 -15 -2 -11 8 6 15 45 22 45 7z m284 -344 c-4 -8 -10 -12 -15 -9 -14 8 -10 24 6 24 9 0 12 -6 9 -15z"/>
<path d="M1110 1837 c0 -19 -43 -57 -63 -57 -9 0 -17 -4 -17 -10 0 -5 -6 -10 -13 -10 -7 0 -27 -13 -45 -29 -17 -17 -32 -27 -32 -24 0 3 -7 0 -15 -7 -8 -6 -18 -9 -23 -6 -5 3 -19 -8 -30 -24 l-22 -29 33 -6 c17 -3 45 -7 61 -9 16 -2 34 -9 40 -17 6 -8 32 -15 60 -16 27 -1 52 -6 56 -13 3 -6 20 -10 36 -10 60 0 79 -4 92 -22 8 -11 25 -17 45 -16 39 1 114 -19 122 -32 4 -6 11 -7 17 -4 5 4 22 -3 37 -14 15 -11 54 -24 87 -28 32 -4 61 -8 64 -9 3 0 15 -6 26 -13 12 -6 24 -8 28 -5 3 3 14 -1 23 -9 35 -29 51 -29 58 2 3 15 14 31 23 34 33 11 81 43 75 50 -3 3 0 6 8 6 9 0 28 13 44 30 26 27 30 28 49 15 23 -17 40 -20 31 -5 -10 16 17 48 57 66 37 17 42 34 10 34 -9 0 -29 7 -44 14 -18 9 -30 11 -34 5 -4 -6 -13 -4 -23 5 -13 12 -30 15 -69 10 -44 -5 -52 -3 -52 11 0 13 -6 16 -26 11 -15 -4 -32 -2 -40 5 -8 6 -23 9 -34 6 -11 -3 -23 -1 -26 4 -3 5 -18 8 -34 7 -15 -1 -35 4 -44 11 -9 7 -27 11 -41 9 -14 -3 -28 -1 -31 4 -9 14 -55 31 -92 33 -18 1 -38 7 -45 14 -14 14 -54 15 -62 1 -5 -8 -11 -8 -19 0 -7 5 -26 11 -42 12 -16 1 -36 8 -46 16 -14 11 -21 11 -47 -2 -29 -15 -31 -15 -41 4 -12 23 -30 27 -30 7z"/>
<path d="M641 1533 c-6 -13 -17 -23 -23 -21 -7 1 -23 -3 -35 -10 -13 -7 -23 -10 -23 -7 0 6 -62 -24 -70 -34 -5 -6 -53 -33 -97 -55 -43 -21 -30 -66 20 -66 12 0 28 -5 33 -10 6 -6 32 -11 57 -12 26 0 47 -4 47 -8 0 -11 158 -65 167 -57 2 3 23 -1 44 -9 22 -7 61 -15 86 -17 25 -3 55 -12 66 -22 13 -12 40 -19 72 -20 27 -1 71 -10 97 -19 25 -9 53 -13 62 -10 9 4 24 0 34 -8 9 -9 37 -18 62 -21 24 -3 49 -12 55 -20 5 -8 21 -18 35 -22 14 -4 28 -13 32 -19 5 -8 14 -7 30 3 20 12 24 11 42 -12 l21 -26 17 30 c10 16 34 37 55 45 21 9 42 22 46 30 4 8 21 14 37 14 25 0 30 4 30 23 0 13 6 29 12 35 7 7 14 28 14 46 1 26 -2 33 -15 29 -9 -2 -28 7 -42 20 -19 19 -30 22 -43 15 -11 -6 -21 -6 -29 0 -7 5 -40 13 -74 17 -34 4 -67 13 -74 21 -6 8 -20 14 -30 14 -10 0 -20 4 -23 9 -3 4 -26 11 -51 14 -25 4 -57 14 -72 24 -14 10 -45 18 -67 19 -54 3 -98 14 -113 30 -7 7 -25 11 -39 8 -14 -3 -32 0 -40 7 -8 6 -24 9 -37 5 -18 -4 -30 1 -46 20 -17 19 -30 25 -54 23 -18 -2 -38 0 -45 5 -6 4 -17 4 -22 1 -6 -3 -13 0 -16 8 -3 9 -19 14 -44 14 -30 0 -40 -4 -49 -24z"/>
</g>
<g id="layer104" fill="#f1a448" stroke="none">
<path d="M660 3215 c0 -9 -7 -18 -15 -21 -8 -3 -17 -14 -20 -25 -4 -10 -13 -19 -21 -19 -8 0 -14 -9 -14 -21 0 -16 -56 -109 -66 -109 -1 0 0 8 3 19 9 34 -27 35 -60 1 -16 -16 -34 -30 -39 -30 -6 0 -8 -7 -4 -15 3 -8 2 -15 -3 -15 -5 0 -12 -10 -16 -22 -22 -68 -34 -116 -35 -137 0 -17 -4 -22 -16 -17 -11 4 -18 -1 -21 -14 -6 -23 -8 -24 -33 -10 -18 10 -19 7 -14 -32 4 -24 7 -44 9 -46 1 -1 22 13 45 33 24 20 49 34 57 31 7 -3 13 -1 13 4 0 6 6 10 14 10 8 0 21 9 30 21 10 15 20 19 35 14 12 -3 21 -3 20 2 -5 27 6 41 46 58 24 11 49 30 54 42 8 18 16 21 38 17 21 -4 35 1 56 20 15 14 33 23 40 20 7 -2 24 7 37 21 13 14 31 25 41 25 10 0 24 6 31 13 23 23 55 37 86 37 20 0 31 6 34 18 4 13 13 18 35 16 17 -1 36 2 43 6 18 11 5 39 -17 39 -40 0 -73 10 -89 26 -11 10 -25 14 -40 11 -13 -4 -40 1 -60 9 -21 8 -39 13 -42 10 -3 -3 -11 0 -18 6 -9 7 -19 7 -33 0 -25 -14 -41 -14 -21 -1 8 5 10 10 4 10 -6 0 -17 -7 -24 -15 -7 -8 -20 -15 -28 -15 -12 0 -13 3 -4 12 16 16 15 28 -3 28 -8 0 -15 -7 -15 -15z"/>
<path d="M972 2948 c-9 -10 -27 -19 -39 -21 -12 -2 -31 -11 -41 -20 -10 -9 -24 -17 -30 -17 -7 0 -12 -4 -12 -10 0 -5 -7 -10 -15 -10 -8 0 -15 -4 -15 -10 0 -5 -13 -10 -29 -10 -16 0 -34 -7 -41 -15 -7 -9 -26 -15 -44 -13 -41 2 -56 -8 -56 -38 0 -15 -6 -24 -15 -24 -15 0 -65 -28 -75 -42 -8 -11 -94 -68 -103 -68 -4 0 -21 -16 -38 -35 -17 -19 -37 -35 -45 -35 -8 0 -14 -7 -14 -15 0 -8 -5 -15 -10 -15 -6 0 -15 -11 -20 -25 -5 -14 -17 -25 -25 -25 -12 0 -15 -6 -10 -21 5 -14 1 -25 -12 -34 -16 -13 -16 -14 -2 -15 20 0 26 -15 22 -55 -5 -59 -2 -145 7 -172 5 -18 5 -50 -2 -70 -4 -14 -2 -26 7 -33 8 -7 12 -17 8 -24 -10 -15 -13 -36 -5 -36 7 0 9 -24 11 -150 1 -119 -2 -154 -13 -162 -8 -5 -8 -16 0 -36 6 -16 9 -44 7 -63 -2 -19 -5 -53 -6 -76 l-3 -43 33 32 c18 18 33 28 33 24 0 -5 11 -1 25 8 13 9 33 16 43 16 10 0 22 3 26 7 8 9 77 33 94 33 7 0 20 6 27 13 40 35 95 70 95 60 0 -5 5 0 11 10 5 9 19 17 29 17 11 0 24 9 30 20 6 11 17 20 25 20 8 0 24 9 35 20 12 12 25 18 31 14 6 -3 13 3 16 14 3 13 17 23 34 27 16 4 38 18 48 32 14 16 26 23 39 19 27 -9 70 38 53 58 -9 11 -10 20 -2 35 6 11 7 22 3 25 -12 7 -14 70 -2 100 6 16 6 35 0 50 -6 16 -4 40 6 72 8 27 14 62 12 77 -2 15 3 32 11 36 10 7 11 13 2 30 -8 13 -8 21 -2 21 6 0 8 13 5 30 -4 17 -3 30 2 30 12 0 5 185 -7 205 -4 6 -7 25 -7 43 0 18 -5 39 -11 46 -12 14 -11 56 1 73 5 6 5 14 -1 17 -5 3 -7 15 -4 26 3 11 2 28 -2 37 -5 10 -7 28 -6 39 2 18 -3 22 -24 20 -14 0 -33 -9 -43 -18z"/>
<path d="M1165 2923 c0 -26 6 -59 14 -72 11 -20 11 -25 0 -32 -11 -7 -10 -15 5 -44 13 -23 23 -32 29 -26 7 7 6 16 -3 26 -11 13 -10 18 6 30 10 8 15 15 10 15 -5 0 -3 6 3 14 17 21 -4 59 -27 52 -15 -5 -17 0 -14 35 3 27 1 39 -6 35 -6 -3 -12 -1 -14 4 -2 6 -3 -11 -3 -37z"/>
<path d="M2474 2415 c-5 -17 -7 -42 -3 -55 4 -14 7 -40 8 -57 1 -18 6 -33 12 -33 8 0 7 -5 -1 -16 -17 -20 -23 -73 -10 -89 12 -15 3 -45 -14 -45 -12 0 -16 -204 -3 -216 3 -4 2 -15 -3 -25 -7 -12 -6 -19 2 -21 10 -4 9 -20 -1 -72 -15 -75 -4 -116 30 -116 10 0 24 -6 31 -13 7 -8 19 -12 26 -9 6 2 12 -1 12 -8 0 -6 4 -9 9 -6 4 3 26 -10 49 -29 22 -19 50 -35 61 -35 12 0 20 -3 20 -7 -5 -29 5 -45 30 -54 21 -8 28 -15 24 -26 -4 -9 1 -21 11 -29 10 -7 15 -17 11 -23 -3 -6 -2 -11 2 -11 11 0 37 -53 53 -107 7 -24 17 -43 21 -43 14 0 40 -60 35 -78 -3 -9 0 -29 8 -43 12 -24 12 -29 -3 -44 -9 -10 -11 -15 -5 -12 6 4 17 -4 24 -17 13 -26 7 -61 -18 -88 -10 -13 -11 -18 -3 -18 14 0 8 -25 -15 -74 -8 -16 -14 -35 -14 -42 0 -7 -6 -15 -12 -17 -10 -4 -10 -6 0 -6 10 -1 10 -6 -2 -23 -9 -12 -16 -31 -16 -40 0 -10 -4 -26 -9 -36 -4 -9 -19 -39 -32 -66 -15 -29 -34 -52 -49 -58 -14 -5 -35 -18 -46 -29 -12 -11 -28 -20 -35 -19 -28 4 -38 0 -44 -20 -4 -11 -18 -34 -32 -50 -20 -24 -28 -28 -39 -19 -11 9 -15 8 -20 -5 -3 -9 -15 -16 -25 -16 -10 0 -19 -6 -19 -12 0 -10 -29 -12 -118 -11 -64 1 -130 4 -147 5 -16 2 -35 0 -41 -4 -6 -5 -17 -2 -24 7 -7 8 -25 15 -41 15 -16 0 -29 5 -29 10 0 6 -3 9 -7 8 -5 -1 -28 2 -53 7 -25 5 -48 9 -52 9 -4 1 -16 9 -28 18 -11 10 -20 14 -20 10 0 -4 -5 1 -11 11 -6 9 -14 15 -19 12 -5 -3 -14 4 -20 16 -17 31 -52 69 -64 69 -16 0 -66 61 -87 107 -11 23 -24 45 -29 48 -6 3 -10 18 -10 33 0 15 -9 40 -19 56 -11 17 -18 33 -15 37 2 4 -1 20 -8 36 -6 15 -12 35 -12 43 -1 11 -13 15 -47 15 -42 0 -46 -2 -46 -23 -1 -35 -9 -36 -57 -8 -50 29 -68 33 -60 11 11 -27 -19 -44 -62 -35 -52 9 -106 33 -123 53 -7 10 -23 17 -35 17 -12 0 -32 7 -44 16 -14 9 -33 14 -46 10 -20 -5 -98 12 -146 31 -8 3 -32 7 -52 8 -20 1 -44 7 -52 14 -9 7 -37 15 -63 17 -26 3 -50 10 -54 16 -4 6 -21 9 -42 5 -25 -4 -40 -1 -48 9 -6 7 -15 11 -20 8 -5 -3 -9 0 -9 6 0 6 -12 9 -27 7 -16 -3 -35 2 -44 10 -9 7 -33 14 -53 15 -20 1 -39 5 -42 10 -3 4 -18 8 -35 8 -16 0 -29 5 -29 11 0 5 -4 8 -9 5 -5 -4 -22 -1 -37 4 -15 6 -41 12 -57 14 -16 2 -40 15 -54 29 -24 24 -25 25 -8 51 10 14 21 26 26 26 17 0 9 25 -11 38 -11 7 -20 20 -20 28 0 9 -7 22 -15 28 -8 6 -19 25 -24 43 -8 26 -6 35 10 49 22 20 20 61 -6 111 -12 24 -13 37 -6 52 6 11 11 33 11 50 0 16 3 32 7 34 8 5 8 22 -2 177 -7 98 -7 99 1 163 5 36 3 47 -8 47 -11 0 -14 18 -15 80 0 44 4 80 9 80 13 0 6 53 -8 57 -6 2 -19 -12 -29 -31 -10 -19 -22 -33 -26 -30 -4 2 -11 -1 -14 -7 -4 -5 -14 -8 -22 -4 -14 5 -15 -3 -10 -51 3 -32 10 -60 15 -63 16 -11 22 -41 12 -63 -5 -13 -9 -17 -9 -10 -1 6 -6 12 -12 12 -5 0 -9 -8 -8 -17 1 -10 1 -27 0 -38 -1 -17 -3 -18 -11 -5 -9 13 -11 13 -20 0 -6 -10 -6 -16 0 -18 6 -2 10 -12 10 -23 0 -10 4 -19 9 -19 5 0 7 -9 4 -20 -3 -11 -9 -20 -14 -20 -12 0 -8 -61 4 -77 6 -9 6 -13 -2 -13 -14 0 -15 -47 -1 -55 8 -5 8 -11 1 -19 -6 -7 -7 -16 -3 -20 4 -4 8 -17 9 -29 0 -12 4 -32 8 -44 6 -17 3 -23 -9 -23 -10 0 -16 -8 -16 -23 0 -13 -5 -28 -12 -35 -8 -8 -9 -21 0 -49 18 -62 22 -102 11 -109 -6 -3 -9 -15 -6 -25 3 -11 2 -19 -3 -19 -12 0 -19 -37 -9 -47 5 -5 12 -20 14 -34 3 -13 12 -29 20 -35 17 -12 21 -29 5 -19 -14 9 -13 -8 2 -23 8 -8 8 -15 -2 -27 -10 -12 -10 -18 -1 -29 10 -11 10 -20 1 -36 -6 -12 -9 -29 -6 -37 4 -9 1 -22 -5 -29 -6 -7 -8 -18 -4 -24 3 -5 -6 -21 -20 -34 -37 -34 -20 -72 59 -134 30 -23 41 -58 25 -77 -11 -14 -15 -88 -5 -103 4 -7 12 -10 17 -7 5 4 10 -4 11 -17 1 -13 2 -30 4 -38 1 -8 2 -23 3 -32 1 -10 8 -18 16 -18 8 0 23 -9 32 -20 12 -14 20 -16 29 -9 9 8 17 1 29 -25 10 -20 21 -36 26 -36 15 0 33 -44 31 -74 -2 -18 5 -36 18 -48 11 -10 20 -23 20 -27 0 -5 11 -12 25 -15 14 -4 25 -12 25 -19 0 -6 17 -26 38 -43 40 -33 78 -52 66 -32 -4 6 -3 9 2 6 5 -2 34 -17 66 -32 31 -14 58 -33 61 -40 3 -7 18 -13 32 -13 15 0 32 -7 37 -14 7 -11 11 -11 15 -1 7 18 19 15 47 -10 42 -40 55 -48 71 -48 8 0 15 -7 15 -15 0 -8 9 -15 20 -15 11 0 22 0 25 0 3 0 5 3 6 8 1 12 38 22 56 15 12 -5 15 -2 10 10 -10 25 10 20 24 -6 16 -29 40 -46 56 -40 8 3 13 -2 13 -12 0 -13 6 -16 24 -13 19 4 23 1 18 -10 -4 -11 -1 -14 11 -9 9 3 17 2 17 -3 0 -17 25 -11 42 9 8 10 22 21 29 24 12 5 11 8 -1 17 -12 9 -11 10 8 5 24 -7 29 4 10 23 -10 9 -9 15 2 27 16 15 60 10 60 -6 0 -5 7 -9 15 -9 9 0 18 -7 21 -15 4 -8 15 -15 25 -15 10 0 19 -4 19 -10 0 -5 5 -10 11 -10 5 0 8 4 5 8 -2 4 4 8 15 8 12 0 19 -7 19 -18 0 -16 6 -20 26 -17 3 0 15 -11 27 -25 21 -24 24 -24 76 -12 30 7 56 17 58 23 2 6 13 8 24 6 13 -4 17 -8 9 -13 -6 -4 16 -6 48 -4 51 2 63 6 92 34 25 25 35 29 41 18 5 -7 6 -21 3 -30 -4 -14 0 -18 20 -18 14 0 29 -7 34 -17 6 -10 16 -14 26 -10 9 4 16 1 17 -6 0 -7 4 -2 9 11 8 20 16 23 57 21 29 -2 48 2 51 9 5 16 52 15 52 0 0 -7 6 -2 13 12 11 21 18 24 52 22 22 -2 46 -8 52 -14 7 -6 32 -8 57 -7 24 2 42 1 40 -3 -4 -6 20 -36 39 -50 1 -1 22 10 47 24 38 21 56 25 113 22 37 -1 73 -7 80 -12 8 -7 24 -5 50 8 20 10 37 14 37 9 0 -6 8 -9 18 -7 9 1 22 -1 28 -4 16 -10 54 20 54 42 0 10 10 26 22 34 15 11 18 16 8 16 -19 1 26 40 46 40 7 0 19 8 26 18 7 9 26 18 42 19 39 3 47 18 42 80 -2 36 1 57 10 64 8 6 12 15 9 19 -3 4 11 15 30 24 22 11 35 24 35 36 0 11 4 20 10 20 5 0 7 -6 4 -13 -6 -16 22 -42 30 -29 3 6 -1 26 -9 45 -8 19 -12 37 -9 40 3 2 7 17 10 32 3 16 9 36 14 46 7 12 6 22 -3 31 -16 17 -13 84 5 105 9 12 9 15 1 9 -19 -11 -16 5 5 21 9 8 11 12 5 8 -8 -4 -13 0 -13 9 0 10 6 13 16 9 14 -5 16 2 13 48 -3 35 -10 60 -22 70 -12 12 -15 25 -11 48 4 17 10 31 15 31 16 0 39 106 38 175 -2 60 -5 74 -28 98 l-26 29 29 -8 c25 -6 28 -4 23 10 -4 10 -1 16 7 16 8 0 17 11 20 25 4 14 12 24 19 22 6 -1 13 10 15 26 2 15 -2 27 -8 27 -6 0 -8 5 -5 10 11 18 -26 99 -48 106 -14 4 -16 8 -7 14 7 4 10 13 6 19 -9 14 4 82 14 76 12 -7 60 39 60 58 0 9 -5 26 -10 37 -6 11 -15 29 -21 41 -8 17 -6 24 10 38 35 31 20 56 -19 32 -26 -17 -28 -2 -4 46 13 25 24 57 24 69 0 24 -34 50 -57 46 -7 -2 -13 6 -13 17 0 12 -13 27 -30 38 -17 10 -28 23 -26 30 3 7 -1 10 -8 7 -7 -3 -16 2 -19 10 -5 12 -13 13 -42 5 -39 -11 -55 -6 -55 19 0 14 2 14 13 1 6 -8 11 -12 10 -10 -1 2 2 12 7 21 8 15 4 19 -25 24 -24 5 -33 11 -28 21 4 11 -3 15 -26 15 -31 0 -35 5 -31 48 1 23 -15 31 -22 10 -6 -18 -38 -1 -38 20 0 11 -11 24 -26 31 -17 7 -24 17 -20 26 3 9 0 15 -9 15 -8 0 -15 7 -15 15 0 16 -34 38 -44 27 -4 -3 -11 -1 -15 6 -4 7 -23 16 -42 19 -35 5 -52 20 -42 37 3 5 1 6 -5 2 -7 -4 -12 -3 -12 3 0 5 -15 9 -33 8 -28 -2 -35 -7 -43 -32z m346 -206 c0 -5 -4 -9 -9 -9 -5 0 -17 -3 -25 -6 -11 -4 -15 -2 -11 8 6 15 45 22 45 7z m284 -344 c-4 -8 -10 -12 -15 -9 -14 8 -10 24 6 24 9 0 12 -6 9 -15z"/>
<path d="M1194 2295 c-7 -38 -2 -51 15 -40 14 8 15 75 1 75 -5 0 -12 -16 -16 -35z"/>
<path d="M1622 2250 c14 -22 24 -19 15 5 -4 8 -11 15 -17 15 -6 0 -6 -7 2 -20z"/>
<path d="M1186 2231 c-3 -5 -8 -28 -10 -52 -2 -24 -9 -60 -15 -79 -9 -27 -8 -37 4 -49 13 -13 19 -10 55 28 22 23 40 51 40 62 0 11 -4 18 -9 15 -8 -5 -35 50 -33 66 2 10 -27 18 -32 9z"/>
<path d="M1216 2024 c-9 -23 -8 -24 14 -24 23 0 26 13 6 29 -11 9 -15 8 -20 -5z"/>
<path d="M1110 1837 c0 -19 -43 -57 -63 -57 -9 0 -17 -4 -17 -9 0 -5 -9 -12 -19 -16 -10 -3 -31 -17 -45 -32 -14 -14 -26 -22 -26 -18 0 4 -7 2 -15 -5 -8 -6 -18 -9 -23 -6 -5 3 -19 -8 -30 -24 l-22 -29 33 -6 c17 -3 45 -7 61 -9 16 -2 34 -9 40 -17 6 -8 32 -15 60 -16 27 -1 52 -6 56 -13 3 -6 20 -10 36 -10 60 0 79 -4 91 -21 9 -12 26 -17 55 -17 24 1 61 -7 83 -17 22 -10 48 -19 57 -20 10 -1 26 -9 35 -17 10 -9 43 -19 73 -23 80 -11 91 -13 104 -25 7 -5 16 -7 19 -3 4 3 15 -1 24 -9 35 -29 51 -29 58 2 3 15 14 31 23 34 33 11 81 43 75 50 -3 3 0 6 8 6 9 0 28 13 44 30 26 27 30 28 49 15 23 -17 40 -20 31 -5 -10 16 17 48 57 66 37 17 42 34 10 34 -9 0 -29 7 -44 14 -18 9 -30 11 -34 5 -4 -6 -13 -4 -23 5 -13 12 -30 14 -69 9 -38 -4 -52 -2 -52 7 0 7 -8 10 -19 7 -11 -3 -29 2 -41 10 -13 9 -31 12 -46 9 -15 -4 -24 -2 -24 5 0 7 -10 9 -27 6 -15 -3 -37 2 -50 10 -13 9 -32 13 -43 10 -11 -3 -23 -1 -26 5 -9 14 -55 31 -89 33 -16 0 -43 7 -58 15 -22 11 -33 11 -46 3 -11 -7 -22 -8 -28 -2 -5 5 -22 10 -38 11 -17 1 -37 8 -47 16 -14 11 -21 11 -47 -2 -29 -15 -31 -15 -41 4 -12 23 -30 27 -30 7z"/>
<path d="M641 1533 c-6 -13 -17 -23 -23 -21 -7 1 -23 -3 -35 -10 -13 -7 -23 -10 -23 -7 0 6 -59 -24 -70 -35 -5 -5 -59 -35 -97 -54 -43 -21 -30 -66 20 -66 12 0 28 -5 33 -10 6 -6 32 -11 57 -12 26 0 47 -4 47 -8 0 -9 84 -42 96 -38 5 1 19 -3 32 -10 12 -7 28 -12 35 -11 6 2 45 -5 85 -14 40 -10 77 -15 81 -13 4 3 19 -6 34 -18 23 -20 33 -22 62 -16 19 4 35 4 35 0 0 -5 19 -11 43 -15 23 -4 47 -12 54 -17 7 -5 22 -7 33 -3 14 4 28 1 39 -9 10 -9 38 -16 65 -18 37 -1 50 -6 53 -19 3 -9 17 -20 31 -24 15 -4 30 -12 34 -18 6 -9 13 -9 30 2 20 12 24 11 44 -15 l23 -28 6 27 c5 18 21 33 53 48 25 12 53 30 63 40 11 11 26 15 38 12 17 -4 21 -1 21 19 0 13 6 30 12 36 7 7 14 28 14 46 1 26 -2 33 -15 29 -9 -2 -28 7 -42 20 -19 19 -30 22 -43 15 -11 -6 -21 -6 -29 0 -7 5 -39 13 -72 17 -33 4 -67 12 -75 19 -17 13 -67 31 -120 41 -19 4 -46 15 -59 24 -13 8 -43 16 -65 18 -55 2 -106 14 -106 23 0 12 -50 19 -56 8 -3 -5 -14 -2 -25 8 -12 11 -27 14 -43 10 -19 -5 -29 -1 -40 16 -11 15 -27 22 -55 24 -21 1 -44 5 -50 8 -6 4 -16 4 -21 1 -6 -3 -13 0 -16 8 -3 9 -19 14 -44 14 -30 0 -40 -4 -49 -24z"/>
<path d="M2120 1271 c0 -14 18 -23 31 -15 8 4 7 9 -2 15 -18 11 -29 11 -29 0z"/>
</g>
<g id="layer105" fill="#f6c249" stroke="none">
<path d="M660 3215 c0 -9 -7 -18 -15 -21 -8 -3 -17 -14 -20 -25 -4 -10 -13 -19 -21 -19 -8 0 -14 -9 -14 -21 0 -16 -56 -109 -66 -109 -1 0 0 8 3 19 9 34 -27 35 -60 1 -16 -16 -34 -30 -39 -30 -6 0 -8 -7 -4 -15 3 -8 2 -15 -3 -15 -5 0 -12 -10 -16 -22 -22 -68 -34 -116 -35 -137 0 -17 -4 -22 -16 -17 -11 4 -18 -1 -21 -14 -6 -23 -8 -24 -33 -10 -18 10 -19 7 -14 -32 4 -24 7 -44 9 -46 1 -1 22 13 45 33 24 20 49 34 57 31 7 -3 13 -1 13 4 0 6 6 10 14 10 8 0 21 9 30 21 10 15 20 19 35 14 12 -3 21 -3 20 2 -5 27 6 41 46 58 24 11 49 30 55 43 8 18 15 22 31 17 27 -9 69 13 69 36 0 13 5 17 18 12 15 -6 15 -5 3 10 -12 15 -11 20 4 37 9 10 20 19 24 18 3 0 8 1 11 2 3 1 23 4 45 5 22 2 54 7 70 10 17 4 41 8 53 9 13 2 28 9 32 16 5 8 23 15 42 16 49 2 50 3 46 22 -2 9 -12 18 -23 19 -57 7 -76 13 -91 28 -11 10 -25 14 -40 11 -13 -4 -40 1 -60 9 -21 8 -39 13 -42 10 -3 -3 -11 0 -18 6 -9 7 -19 7 -33 0 -25 -14 -41 -14 -21 -1 8 5 10 10 4 10 -6 0 -17 -7 -24 -15 -7 -8 -20 -15 -28 -15 -12 0 -13 3 -4 12 16 16 15 28 -3 28 -8 0 -15 -7 -15 -15z"/>
<path d="M656 2564 c-8 -21 -8 -24 5 -24 11 0 39 24 39 34 0 13 -38 5 -44 -10z"/>
<path d="M2505 2443 c-26 -5 -44 -49 -34 -83 4 -14 7 -40 8 -57 1 -18 6 -33 12 -33 8 0 8 -4 1 -12 -17 -22 -25 -78 -13 -92 13 -15 4 -46 -13 -46 -12 0 -15 -205 -3 -217 4 -3 2 -14 -3 -24 -7 -12 -6 -19 2 -21 10 -4 9 -20 -1 -72 -15 -75 -4 -116 30 -116 10 0 24 -6 31 -13 7 -8 19 -12 26 -9 6 2 12 -1 12 -8 0 -6 4 -9 9 -6 4 3 26 -10 49 -29 22 -19 50 -35 61 -35 12 0 20 -3 20 -7 -5 -29 5 -45 30 -54 21 -8 28 -15 24 -26 -4 -9 1 -21 11 -29 10 -7 15 -17 11 -23 -3 -6 -2 -11 2 -11 11 0 37 -53 53 -107 7 -24 17 -43 21 -43 14 0 40 -60 35 -78 -3 -9 0 -29 8 -43 12 -24 12 -29 -3 -44 -9 -10 -11 -15 -5 -12 6 4 17 -4 24 -17 13 -26 7 -61 -18 -88 -10 -13 -11 -18 -3 -18 14 0 8 -25 -15 -74 -8 -16 -14 -35 -14 -42 0 -7 -6 -15 -12 -17 -10 -4 -10 -6 0 -6 10 -1 10 -6 -2 -23 -9 -12 -16 -31 -16 -40 0 -10 -4 -26 -9 -36 -4 -9 -19 -39 -32 -66 -15 -29 -34 -52 -49 -58 -14 -5 -35 -18 -46 -29 -12 -11 -28 -20 -35 -19 -28 4 -38 0 -44 -20 -4 -11 -18 -34 -32 -50 -20 -24 -28 -28 -39 -19 -11 9 -15 8 -20 -5 -3 -9 -15 -16 -25 -16 -10 0 -19 -6 -19 -12 0 -10 -29 -12 -118 -11 -64 1 -130 4 -147 5 -16 2 -35 0 -41 -4 -6 -5 -17 -2 -24 7 -7 8 -25 15 -41 15 -16 0 -29 5 -29 10 0 6 -3 9 -7 8 -5 -1 -28 2 -53 7 -25 5 -48 9 -52 9 -4 1 -16 9 -28 18 -11 10 -20 14 -20 10 0 -4 -5 1 -11 11 -6 9 -14 15 -19 12 -5 -3 -14 4 -20 16 -17 31 -52 69 -64 69 -16 0 -66 61 -87 107 -11 23 -24 45 -29 48 -6 3 -10 18 -10 33 0 15 -9 40 -19 56 -11 17 -18 33 -15 37 2 4 -1 20 -8 36 -6 15 -12 35 -12 43 -1 11 -13 15 -47 15 -42 0 -46 -2 -46 -23 -1 -35 -9 -36 -57 -8 -50 29 -68 33 -60 11 11 -27 -19 -44 -62 -35 -52 9 -106 33 -123 53 -7 10 -23 17 -35 17 -12 0 -32 7 -44 16 -14 9 -33 14 -46 10 -20 -5 -98 12 -146 31 -8 3 -32 7 -52 8 -20 1 -44 7 -52 14 -9 7 -37 15 -63 17 -26 3 -50 10 -54 16 -4 6 -21 9 -42 5 -25 -4 -40 -1 -48 9 -6 7 -15 11 -20 8 -5 -3 -9 0 -9 6 0 6 -12 9 -27 7 -16 -3 -35 2 -44 10 -9 7 -33 14 -53 15 -20 1 -39 5 -42 10 -3 4 -18 8 -35 8 -16 0 -29 5 -29 11 0 5 -4 8 -9 5 -5 -4 -22 -1 -37 4 -15 6 -41 12 -57 14 -16 2 -40 15 -54 29 -24 24 -25 25 -8 51 10 14 21 26 26 26 17 0 9 25 -11 38 -11 7 -20 20 -20 28 0 9 -7 22 -15 28 -8 6 -19 25 -24 43 -8 26 -6 35 10 49 22 20 20 61 -6 111 -12 24 -13 37 -6 52 6 11 11 33 11 50 0 16 3 32 7 34 8 5 8 22 -2 177 -7 98 -7 99 1 163 5 37 3 47 -9 47 -12 0 -14 14 -13 66 1 36 -2 68 -8 71 -5 3 -1 12 8 19 19 13 19 55 0 61 -6 2 -19 -12 -29 -31 -10 -19 -22 -33 -26 -30 -4 2 -11 -1 -14 -7 -4 -5 -14 -8 -22 -4 -14 5 -15 -3 -10 -51 3 -32 10 -60 15 -63 16 -11 22 -41 12 -63 -5 -13 -9 -17 -9 -10 -1 6 -6 12 -12 12 -5 0 -9 -8 -8 -17 1 -10 1 -27 0 -38 -1 -17 -3 -18 -11 -5 -9 13 -11 13 -20 0 -6 -10 -6 -16 0 -18 6 -2 10 -12 10 -23 0 -10 4 -19 9 -19 5 0 7 -9 4 -20 -3 -11 -9 -20 -14 -20 -12 0 -8 -61 4 -77 6 -9 6 -13 -2 -13 -14 0 -15 -47 -1 -55 8 -5 8 -11 1 -19 -6 -7 -7 -16 -3 -20 4 -4 8 -17 9 -29 0 -12 4 -32 8 -44 6 -17 3 -23 -9 -23 -10 0 -16 -8 -16 -23 0 -13 -5 -28 -12 -35 -8 -8 -9 -21 0 -49 18 -62 22 -102 11 -109 -6 -3 -9 -15 -6 -25 3 -11 2 -19 -3 -19 -12 0 -19 -37 -9 -47 5 -5 12 -20 14 -34 3 -13 12 -29 20 -35 17 -12 21 -29 5 -19 -14 9 -13 -8 2 -23 8 -8 8 -15 -2 -27 -10 -12 -10 -18 -1 -29 9 -11 10 -20 1 -36 -6 -11 -8 -29 -5 -40 3 -10 1 -21 -5 -25 -6 -4 -9 -14 -6 -22 3 -8 -5 -25 -20 -38 -36 -33 -19 -71 60 -133 30 -23 41 -58 25 -77 -11 -14 -15 -88 -5 -103 4 -7 12 -10 17 -7 5 4 10 -4 11 -17 1 -13 2 -30 4 -38 1 -8 2 -23 3 -32 1 -10 8 -18 16 -18 8 0 23 -9 32 -20 12 -14 20 -16 29 -9 9 8 17 1 29 -25 10 -20 21 -36 26 -36 15 0 33 -44 31 -74 -2 -18 5 -36 18 -48 11 -10 20 -23 20 -27 0 -5 11 -12 25 -15 14 -4 25 -12 25 -19 0 -6 17 -26 38 -43 40 -33 78 -52 66 -32 -4 6 -3 9 2 6 5 -2 34 -17 66 -32 31 -14 58 -33 61 -40 3 -7 18 -13 32 -13 15 0 32 -7 37 -14 7 -11 11 -11 15 -1 7 18 19 15 47 -10 42 -40 55 -48 71 -48 8 0 15 -7 15 -15 0 -8 9 -15 20 -15 11 0 22 0 25 0 3 0 5 3 4 7 -1 12 40 23 58 16 12 -5 15 -2 10 10 -10 25 10 20 24 -6 16 -29 40 -46 56 -40 8 3 13 -2 13 -12 0 -13 6 -16 24 -13 19 4 23 1 18 -10 -4 -11 -1 -14 11 -9 9 3 17 2 17 -3 0 -17 25 -11 42 9 8 10 22 21 29 24 12 5 11 8 -1 17 -12 9 -11 10 8 5 24 -7 29 4 10 23 -10 9 -9 15 2 27 16 15 60 10 60 -6 0 -5 7 -9 15 -9 9 0 18 -7 21 -15 4 -8 15 -15 25 -15 10 0 19 -4 19 -10 0 -5 5 -10 11 -10 5 0 8 4 5 8 -2 4 4 8 15 8 12 0 19 -7 19 -18 0 -16 6 -20 26 -17 3 0 15 -11 27 -25 21 -24 24 -24 76 -12 30 7 56 17 58 23 2 6 13 8 24 6 13 -4 17 -8 9 -13 -6 -4 16 -6 48 -4 51 2 63 6 92 34 25 25 35 29 41 18 5 -7 6 -21 3 -30 -4 -14 0 -18 20 -18 14 0 29 -7 34 -17 6 -10 16 -14 26 -10 9 4 16 1 17 -6 0 -7 4 -2 9 11 8 20 16 23 57 21 29 -2 48 2 51 9 5 16 52 15 52 0 0 -7 6 -2 13 12 11 21 18 24 52 22 22 -2 46 -8 52 -14 7 -6 32 -8 57 -7 24 2 42 1 40 -3 -4 -6 20 -36 39 -50 1 -1 22 10 47 24 38 21 56 25 113 22 37 -1 73 -7 80 -12 8 -7 24 -5 50 8 20 10 37 14 37 9 0 -6 8 -9 18 -7 9 1 22 -1 28 -4 16 -10 54 20 54 42 0 10 10 26 22 34 15 11 18 16 8 16 -19 1 26 40 46 40 7 0 19 8 26 18 7 9 26 18 42 19 39 3 47 18 42 80 -2 36 1 57 10 64 8 6 12 15 9 19 -3 4 11 15 30 24 22 11 35 24 35 36 0 11 4 20 10 20 5 0 7 -6 4 -13 -6 -16 22 -42 30 -29 3 6 -1 26 -9 45 -8 19 -12 37 -9 40 3 2 7 17 10 32 3 16 9 36 14 46 7 12 6 22 -3 31 -16 17 -13 84 5 105 9 12 9 15 1 9 -19 -11 -16 5 5 21 9 8 11 12 5 8 -8 -4 -13 0 -13 9 0 10 6 13 16 9 14 -5 16 2 13 48 -3 35 -10 60 -22 70 -12 12 -15 25 -11 48 4 17 10 31 15 31 16 0 39 106 38 175 -2 60 -5 74 -28 98 l-26 29 29 -8 c25 -6 28 -4 23 10 -4 10 -1 16 7 16 8 0 17 11 20 25 4 14 12 24 19 22 6 -1 13 10 15 26 2 15 -2 27 -8 27 -6 0 -8 5 -5 10 11 18 -26 99 -48 106 -14 4 -16 8 -7 14 7 4 10 13 6 19 -9 14 4 82 14 76 12 -7 60 39 60 58 0 9 -4 26 -10 37 -5 11 -15 29 -21 41 -8 17 -6 24 10 38 35 31 20 56 -19 32 -26 -17 -28 -2 -4 46 13 25 24 57 24 69 0 24 -34 50 -57 46 -7 -2 -13 6 -13 17 0 12 -13 27 -30 38 -17 10 -28 23 -26 30 3 7 -1 10 -8 7 -7 -3 -16 2 -19 10 -5 12 -13 13 -42 5 -39 -11 -55 -6 -55 19 0 14 2 14 13 1 6 -8 11 -12 10 -10 -1 2 2 12 7 21 8 15 4 19 -25 24 -24 5 -33 11 -28 21 4 11 -3 15 -26 15 -31 0 -35 5 -31 48 1 23 -15 31 -22 10 -6 -18 -38 -1 -38 20 0 11 -11 24 -26 31 -17 7 -24 17 -20 26 3 9 0 15 -9 15 -8 0 -15 7 -15 15 0 16 -34 38 -44 27 -4 -3 -11 -1 -15 6 -4 7 -23 16 -42 19 -35 5 -52 20 -42 37 3 5 1 6 -5 2 -7 -4 -12 -2 -12 3 0 11 -8 12 -45 4z m315 -234 c0 -5 -4 -9 -9 -9 -5 0 -17 -3 -25 -6 -11 -4 -15 -2 -11 8 6 15 45 22 45 7z m284 -344 c-4 -8 -10 -12 -15 -9 -14 8 -10 24 6 24 9 0 12 -6 9 -15z"/>
<path d="M1195 2294 c-7 -39 -3 -50 14 -39 13 8 15 75 2 75 -5 0 -12 -16 -16 -36z"/>
<path d="M1187 2233 c-4 -6 -9 -30 -11 -54 -2 -24 -9 -60 -15 -79 -9 -27 -8 -37 3 -48 12 -12 18 -10 40 9 14 12 26 28 26 35 0 6 7 14 15 18 8 3 15 15 15 26 0 12 -4 19 -9 16 -5 -3 -14 6 -19 22 -14 38 -38 67 -45 55z"/>
<path d="M314 2146 c-9 -39 6 -54 23 -22 14 26 11 46 -7 46 -5 0 -12 -11 -16 -24z"/>
<path d="M1217 2023 c-13 -12 -7 -23 13 -23 13 0 18 5 14 15 -7 16 -17 19 -27 8z"/>
<path d="M1024 1943 c2 -10 7 -17 12 -15 13 3 11 25 -3 29 -6 2 -10 -4 -9 -14z"/>
<path d="M1097 1815 c-15 -19 -35 -35 -43 -35 -16 0 -17 -1 -75 -49 -19 -16 -47 -33 -61 -36 -14 -4 -37 -19 -50 -33 -12 -15 -19 -24 -14 -20 5 4 14 4 20 -1 6 -5 30 -11 53 -13 23 -3 47 -9 55 -15 7 -6 35 -13 62 -16 27 -2 51 -10 55 -16 4 -6 20 -11 36 -11 71 0 80 -2 93 -21 10 -14 21 -19 35 -15 26 6 106 -12 127 -29 8 -7 21 -10 28 -8 7 3 23 -4 35 -15 14 -13 43 -23 82 -27 66 -7 122 -23 145 -41 34 -25 48 -24 55 7 4 16 11 29 16 29 11 0 72 42 77 53 2 4 8 7 14 7 6 0 24 14 40 31 24 25 32 28 44 18 13 -10 20 -8 40 16 13 16 41 36 61 45 l37 16 -53 18 c-29 9 -56 15 -58 12 -3 -3 -15 1 -26 9 -13 9 -35 12 -68 8 -36 -4 -49 -2 -49 7 0 7 -8 10 -19 7 -11 -3 -29 2 -40 10 -12 8 -30 12 -42 8 -11 -4 -26 -1 -34 5 -8 6 -23 9 -35 5 -12 -4 -26 0 -36 10 -9 9 -27 15 -39 13 -12 -1 -29 3 -38 10 -8 7 -26 14 -39 16 -13 1 -29 5 -35 9 -6 4 -19 4 -27 1 -10 -4 -25 1 -37 12 -16 15 -24 16 -39 6 -15 -9 -26 -8 -53 3 -19 8 -37 11 -41 8 -3 -3 -14 1 -24 10 -16 15 -21 15 -47 1 -27 -14 -30 -14 -45 5 -15 21 -15 20 -43 -14z"/>
<path d="M820 1826 c0 -8 -15 -19 -32 -26 -29 -9 -31 -12 -16 -21 20 -11 62 6 53 21 -3 5 5 10 17 12 l23 3 -22 13 c-19 11 -23 10 -23 -2z"/>
<path d="M330 1810 c0 -20 25 -38 36 -27 7 6 -18 47 -28 47 -5 0 -8 -9 -8 -20z"/>
<path d="M321 1626 c0 -12 -2 -42 -4 -68 l-3 -48 33 32 c18 18 33 28 33 24 0 -5 11 -1 25 8 13 9 35 16 47 17 20 0 20 1 5 8 -10 4 -18 11 -17 16 0 6 -11 11 -25 13 -14 2 -25 8 -25 13 0 5 -15 9 -34 7 -26 -1 -34 -7 -35 -22z"/>
<path d="M644 1528 c-12 -23 -18 -27 -28 -19 -10 8 -17 7 -26 -4 -7 -8 -22 -15 -33 -15 -11 0 -35 -11 -53 -25 -18 -14 -39 -25 -46 -25 -7 0 -24 -9 -38 -20 -14 -11 -31 -20 -39 -20 -9 0 -11 -7 -7 -22 3 -13 6 -26 6 -30 0 -5 13 -8 28 -8 15 0 33 -5 38 -10 6 -6 32 -11 58 -12 25 0 49 -5 52 -9 8 -14 76 -40 90 -35 6 2 21 -2 33 -10 12 -8 25 -13 30 -9 5 3 44 -4 86 -16 42 -11 79 -18 82 -15 3 3 19 -4 35 -15 22 -16 39 -20 64 -16 19 3 34 2 34 -3 0 -4 19 -11 43 -15 23 -4 50 -12 60 -17 12 -6 23 -6 31 1 10 8 17 7 26 -4 11 -13 55 -26 99 -29 9 -1 26 -11 39 -23 12 -13 28 -23 36 -23 8 0 16 -6 19 -12 3 -10 9 -10 28 1 21 12 25 11 45 -14 l22 -28 7 24 c10 31 24 43 62 56 17 6 41 21 52 32 11 11 27 18 35 15 11 -4 17 3 22 23 4 15 11 31 17 34 15 10 16 78 1 72 -7 -2 -25 4 -40 14 -16 10 -40 19 -54 20 -74 6 -166 26 -173 39 -4 8 -19 14 -32 14 -13 0 -27 5 -30 10 -3 6 -19 10 -34 10 -15 0 -50 11 -76 26 -26 14 -55 22 -63 19 -18 -7 -112 15 -112 26 0 12 -49 16 -60 5 -8 -8 -14 -6 -21 7 -8 14 -18 16 -44 11 -28 -5 -34 -3 -40 15 -4 14 -15 21 -33 22 -63 3 -98 10 -107 22 -5 8 -25 14 -43 14 -27 0 -36 -6 -48 -29z"/>
<path d="M2160 1540 c-12 -8 -11 -10 8 -10 12 0 22 5 22 10 0 13 -11 13 -30 0z"/>
<path d="M2120 1270 c0 -15 21 -23 32 -12 6 6 2 11 -11 15 -12 3 -21 1 -21 -3z"/>
</g>
<g id="layer106" fill="#e3edf2" stroke="none">
<path d="M660 3215 c0 -9 -7 -18 -15 -21 -8 -3 -17 -14 -20 -25 -4 -10 -13 -19 -21 -19 -8 0 -14 -9 -14 -21 0 -16 -56 -109 -66 -109 -1 0 0 8 3 19 9 34 -27 35 -60 1 -16 -16 -34 -30 -39 -30 -6 0 -8 -7 -4 -15 3 -8 2 -15 -3 -15 -5 0 -12 -10 -16 -22 -22 -68 -34 -116 -35 -137 0 -17 -4 -22 -16 -17 -11 4 -18 -1 -21 -14 -6 -23 -8 -24 -33 -10 -18 10 -19 7 -14 -32 4 -24 7 -44 9 -46 1 -1 22 13 45 33 24 20 49 34 57 31 7 -3 13 -1 13 4 0 6 6 10 14 10 8 0 21 9 30 21 10 15 20 19 35 14 12 -3 21 -3 20 2 -5 27 6 41 46 58 24 11 49 30 55 43 8 18 15 22 31 17 28 -9 69 13 69 38 0 14 5 17 16 13 14 -5 15 -4 5 8 -15 18 6 59 26 52 7 -3 15 -1 19 5 3 6 20 9 38 8 17 -1 38 1 46 4 8 3 36 8 62 12 25 3 48 12 51 19 3 7 18 11 35 10 16 -1 35 2 42 6 18 11 5 39 -17 39 -40 0 -73 10 -89 26 -11 10 -25 14 -40 11 -13 -4 -40 1 -60 9 -21 8 -39 13 -42 10 -3 -3 -11 0 -18 6 -9 7 -19 7 -33 0 -25 -14 -41 -14 -21 -1 8 5 10 10 4 10 -6 0 -17 -7 -24 -15 -7 -8 -20 -15 -28 -15 -12 0 -13 3 -4 12 16 16 15 28 -3 28 -8 0 -15 -7 -15 -15z"/>
<path d="M875 3211 c-7 -12 12 -24 25 -16 11 7 4 25 -10 25 -5 0 -11 -4 -15 -9z"/>
<path d="M660 2565 c-7 -9 -10 -18 -7 -21 6 -7 47 18 47 28 0 14 -27 9 -40 -7z"/>
<path d="M2505 2443 c-27 -5 -45 -51 -33 -83 5 -13 9 -39 10 -57 1 -18 6 -33 11 -33 6 0 6 -5 -1 -12 -17 -22 -25 -80 -12 -88 15 -9 4 -50 -13 -50 -9 0 -12 -30 -11 -105 1 -58 4 -108 7 -112 4 -3 2 -14 -3 -24 -7 -12 -6 -19 2 -21 10 -4 9 -20 -1 -72 -15 -75 -4 -116 30 -116 10 0 24 -6 31 -13 7 -8 19 -12 26 -9 6 2 12 -1 12 -8 0 -6 4 -9 9 -6 4 3 26 -10 49 -29 22 -19 50 -35 61 -35 12 0 20 -3 20 -7 -5 -29 5 -45 30 -54 21 -8 28 -15 24 -26 -4 -9 1 -21 11 -29 10 -7 15 -17 11 -23 -3 -6 -2 -11 2 -11 11 0 37 -53 53 -107 7 -24 17 -43 21 -43 14 0 40 -60 35 -78 -3 -9 0 -29 8 -43 12 -24 12 -29 -3 -44 -9 -10 -11 -15 -5 -12 6 4 17 -4 24 -17 13 -26 7 -61 -18 -88 -10 -13 -11 -18 -3 -18 14 0 8 -25 -15 -74 -8 -16 -14 -35 -14 -42 0 -7 -6 -15 -12 -17 -10 -4 -10 -6 0 -6 10 -1 10 -6 -2 -23 -9 -12 -16 -31 -16 -40 0 -10 -4 -26 -9 -36 -4 -9 -19 -39 -32 -66 -15 -29 -34 -52 -49 -58 -14 -5 -35 -18 -46 -29 -12 -11 -28 -20 -35 -19 -28 4 -38 0 -44 -20 -4 -11 -18 -34 -32 -50 -20 -24 -28 -28 -39 -19 -11 9 -15 8 -20 -5 -3 -9 -15 -16 -25 -16 -10 0 -19 -6 -19 -12 0 -10 -29 -12 -118 -11 -64 1 -130 4 -147 5 -16 2 -35 0 -41 -4 -6 -5 -17 -2 -24 7 -7 8 -25 15 -41 15 -16 0 -29 5 -29 10 0 6 -3 9 -7 8 -5 -1 -28 2 -53 7 -25 5 -48 9 -52 9 -4 1 -16 9 -28 18 -11 10 -20 14 -20 10 0 -4 -5 1 -11 11 -6 9 -14 15 -19 12 -5 -3 -14 4 -20 16 -17 31 -52 69 -64 69 -16 0 -66 61 -87 107 -11 23 -24 45 -29 48 -6 3 -10 18 -10 33 0 15 -9 40 -19 56 -11 17 -18 33 -15 37 2 4 -1 20 -8 36 -6 15 -12 35 -12 43 -1 11 -13 15 -48 15 -30 0 -43 -4 -38 -10 5 -6 2 -18 -5 -29 -14 -18 -16 -18 -59 8 -50 29 -68 33 -60 11 11 -27 -19 -44 -62 -35 -52 9 -106 33 -123 53 -7 10 -23 17 -35 17 -12 0 -32 7 -44 16 -14 9 -33 14 -46 10 -20 -5 -98 12 -146 31 -8 3 -32 7 -52 8 -20 1 -44 7 -52 14 -9 7 -37 15 -63 17 -26 3 -50 10 -54 16 -4 6 -21 9 -42 5 -25 -4 -40 -1 -48 9 -6 7 -15 11 -20 8 -5 -3 -9 0 -9 6 0 6 -12 9 -27 7 -16 -3 -35 2 -44 10 -9 7 -33 14 -53 15 -20 1 -39 5 -42 10 -3 4 -18 8 -35 8 -16 0 -29 5 -29 11 0 5 -4 8 -9 5 -5 -4 -22 -1 -37 4 -15 6 -41 12 -57 14 -16 2 -40 15 -54 29 -24 24 -25 25 -8 51 10 14 21 26 26 26 17 0 9 25 -11 38 -11 7 -20 20 -20 28 0 9 -7 22 -15 28 -8 6 -19 25 -24 43 -8 26 -6 35 10 49 22 20 20 61 -6 111 -12 24 -13 37 -6 52 6 11 11 33 11 50 0 16 3 32 7 34 8 5 8 22 -2 177 -7 98 -7 99 1 163 5 37 3 47 -9 47 -12 0 -14 14 -13 66 1 36 -2 68 -8 71 -5 3 -1 12 8 19 19 13 19 55 0 61 -6 2 -19 -12 -29 -31 -10 -19 -22 -33 -26 -30 -4 2 -11 -1 -14 -7 -4 -5 -14 -8 -22 -4 -14 5 -15 -3 -10 -51 3 -32 10 -60 15 -63 16 -11 22 -41 12 -63 -5 -13 -9 -17 -9 -10 -1 6 -6 12 -12 12 -5 0 -9 -8 -8 -17 1 -10 1 -27 0 -38 -1 -17 -3 -18 -11 -5 -9 13 -11 13 -20 0 -6 -10 -6 -16 0 -18 6 -2 10 -12 10 -23 0 -10 4 -19 9 -19 5 0 7 -9 4 -20 -3 -11 -9 -20 -14 -20 -12 0 -8 -61 4 -77 6 -9 6 -13 -2 -13 -14 0 -15 -47 -1 -55 8 -5 8 -11 1 -19 -6 -7 -7 -16 -3 -20 4 -4 8 -17 9 -29 0 -12 4 -32 8 -44 6 -17 3 -23 -9 -23 -10 0 -16 -8 -16 -23 0 -13 -5 -28 -12 -35 -8 -8 -9 -21 0 -49 18 -62 22 -102 11 -109 -6 -3 -9 -15 -6 -25 3 -11 2 -19 -3 -19 -12 0 -19 -37 -9 -47 5 -5 12 -20 14 -34 3 -13 12 -29 20 -35 17 -12 21 -29 5 -19 -14 9 -13 -8 2 -23 8 -8 8 -15 -2 -27 -10 -12 -10 -18 -1 -29 9 -11 10 -20 1 -36 -6 -11 -8 -29 -5 -40 3 -10 1 -21 -5 -25 -6 -4 -9 -14 -6 -22 3 -8 -5 -25 -20 -38 -36 -33 -19 -71 60 -133 30 -23 41 -58 25 -77 -11 -14 -15 -88 -5 -103 4 -7 12 -10 17 -7 5 4 10 -4 11 -17 1 -13 2 -30 4 -38 1 -8 2 -23 3 -32 1 -10 8 -18 16 -18 8 0 23 -9 32 -20 12 -14 20 -16 29 -9 9 8 17 1 29 -25 10 -20 21 -36 26 -36 15 0 33 -44 31 -74 -2 -18 5 -36 18 -48 11 -10 20 -23 20 -27 0 -5 11 -12 25 -15 14 -4 25 -12 25 -19 0 -6 17 -26 38 -43 40 -33 78 -52 66 -32 -4 6 -3 9 2 6 5 -2 34 -17 66 -32 31 -14 58 -33 61 -40 3 -7 18 -13 32 -13 15 0 32 -7 37 -14 7 -11 11 -11 15 -1 7 18 19 15 47 -10 42 -40 55 -48 71 -48 8 0 15 -7 15 -15 0 -8 9 -15 20 -15 11 0 22 0 25 0 3 0 5 3 4 7 -1 12 40 23 58 16 12 -5 15 -2 10 10 -10 25 10 20 24 -6 16 -29 40 -46 56 -40 8 3 13 -2 13 -12 0 -13 6 -16 24 -13 19 4 23 1 18 -10 -4 -11 -1 -14 11 -9 9 3 17 2 17 -3 0 -17 25 -11 42 9 8 10 22 21 29 24 12 5 11 8 -1 17 -12 9 -11 10 8 5 24 -7 29 4 10 23 -10 9 -9 15 2 27 16 15 60 10 60 -6 0 -5 7 -9 15 -9 9 0 18 -7 21 -15 4 -8 15 -15 25 -15 10 0 19 -4 19 -10 0 -5 5 -10 11 -10 5 0 8 4 5 8 -2 4 4 8 15 8 12 0 19 -7 19 -18 0 -16 6 -20 26 -17 3 0 15 -11 27 -25 21 -24 24 -24 76 -12 30 7 56 17 58 23 2 6 13 8 24 6 13 -4 17 -8 9 -13 -6 -4 16 -6 48 -4 51 2 63 6 92 34 25 25 35 29 41 18 5 -7 6 -21 3 -30 -4 -14 0 -18 20 -18 14 0 29 -7 34 -17 6 -10 16 -14 26 -10 9 4 16 1 17 -6 0 -7 4 -2 9 11 8 20 16 23 57 21 29 -2 48 2 51 9 5 16 52 15 52 0 0 -7 6 -2 13 12 11 21 18 24 52 22 22 -2 46 -8 52 -14 7 -6 32 -8 57 -7 24 2 42 1 40 -3 -4 -6 20 -36 39 -50 1 -1 22 10 47 24 38 21 56 25 113 22 37 -1 73 -7 80 -12 8 -7 24 -5 50 8 20 10 37 14 37 9 0 -6 8 -9 18 -7 9 1 22 -1 28 -4 16 -10 54 20 54 42 0 10 10 26 22 34 15 11 18 16 8 16 -19 1 26 40 46 40 7 0 19 8 26 18 7 9 26 18 42 19 39 3 47 18 42 80 -2 36 1 57 10 64 8 6 12 15 9 19 -3 4 11 15 30 24 22 11 35 24 35 36 0 11 4 20 10 20 5 0 7 -6 4 -13 -6 -16 22 -42 30 -29 3 6 -1 26 -9 45 -8 19 -12 37 -9 40 3 2 7 17 10 32 3 16 9 36 14 46 7 12 6 22 -3 31 -16 17 -13 84 5 105 9 12 9 15 1 9 -19 -11 -16 5 5 21 9 8 11 12 5 8 -8 -4 -13 0 -13 9 0 10 6 13 16 9 14 -5 16 2 13 48 -3 35 -10 60 -22 70 -12 12 -15 25 -11 48 4 17 10 31 15 31 16 0 39 106 38 175 -2 60 -5 74 -28 98 l-26 29 29 -8 c25 -6 28 -4 23 10 -4 10 -1 16 7 16 8 0 17 11 20 25 4 14 12 24 19 22 6 -1 13 10 15 26 2 15 -2 27 -8 27 -6 0 -8 5 -5 10 11 18 -26 99 -48 106 -14 4 -16 8 -7 14 7 4 10 13 6 19 -9 14 4 82 14 76 12 -7 60 39 60 58 0 9 -4 26 -10 37 -5 11 -15 29 -21 41 -8 17 -6 24 10 38 35 31 20 56 -19 32 -26 -17 -28 -2 -4 46 13 25 24 57 24 69 0 24 -34 50 -57 46 -7 -2 -13 6 -13 17 0 12 -13 27 -30 38 -17 10 -28 23 -26 30 3 7 -1 10 -8 7 -7 -3 -16 2 -19 10 -5 12 -13 13 -42 5 -39 -11 -55 -6 -55 19 0 14 2 14 13 1 6 -8 11 -12 10 -10 -1 2 2 12 7 21 8 15 4 19 -25 24 -24 5 -33 11 -28 21 4 11 -3 15 -26 15 -31 0 -35 5 -31 48 1 23 -15 31 -22 10 -6 -18 -38 -1 -38 20 0 11 -11 24 -26 31 -17 7 -24 17 -20 26 3 9 0 15 -9 15 -8 0 -15 7 -15 15 0 16 -34 38 -44 27 -4 -3 -11 -1 -15 6 -4 7 -23 16 -42 19 -35 5 -52 20 -42 37 3 5 1 6 -5 2 -7 -4 -12 -2 -12 3 0 11 -8 12 -45 4z m315 -234 c0 -5 -4 -9 -9 -9 -5 0 -17 -3 -25 -6 -11 -4 -15 -2 -11 8 6 15 45 22 45 7z m284 -344 c-4 -8 -10 -12 -15 -9 -14 8 -10 24 6 24 9 0 12 -6 9 -15z"/>
<path d="M1202 2307 c-15 -35 -15 -57 -2 -57 15 0 22 24 18 57 l-4 28 -12 -28z"/>
<path d="M1187 2233 c-4 -6 -9 -30 -11 -54 -2 -24 -9 -60 -15 -79 -9 -27 -8 -37 3 -48 12 -12 18 -10 40 9 14 12 26 27 26 32 0 5 8 16 18 23 12 10 14 16 5 21 -6 5 -14 19 -18 33 -8 34 -41 75 -48 63z"/>
<path d="M320 2145 c-7 -8 -9 -22 -5 -32 6 -15 8 -15 13 -3 2 8 9 20 14 27 14 17 -8 25 -22 8z"/>
<path d="M1217 2024 c-8 -8 1 -24 14 -24 5 0 9 7 9 15 0 15 -12 20 -23 9z"/>
<path d="M1026 1945 c-3 -9 0 -15 9 -15 16 0 20 16 6 24 -5 3 -11 -1 -15 -9z"/>
<path d="M1097 1814 c-16 -19 -34 -34 -42 -34 -8 0 -24 -9 -34 -19 -19 -19 -19 -19 10 -23 17 -3 30 1 33 9 3 7 11 13 19 13 14 0 57 52 57 69 0 23 -18 17 -43 -15z"/>
<path d="M330 1813 c0 -11 7 -24 16 -27 27 -10 30 3 6 27 l-22 21 0 -21z"/>
<path d="M820 1821 c0 -5 -14 -15 -31 -23 -24 -12 -27 -17 -14 -22 19 -7 48 6 45 20 -1 5 9 11 22 14 21 5 21 7 5 13 -24 9 -27 9 -27 -2z"/>
<path d="M1176 1821 c-10 -16 19 -19 39 -5 18 13 17 14 -7 14 -15 0 -29 -4 -32 -9z"/>
<path d="M1760 1680 c0 -8 4 -22 10 -30 7 -11 11 -9 19 13 6 16 11 29 11 31 0 1 -9 2 -20 2 -11 0 -20 -7 -20 -16z"/>
<path d="M864 1658 c-10 -12 -14 -18 -7 -15 6 4 14 3 18 -3 3 -5 12 -10 18 -10 8 0 7 3 -2 9 -8 5 -11 16 -8 25 9 22 4 20 -19 -6z"/>
<path d="M340 1642 c-16 -8 -21 -24 -24 -89 l-2 -43 33 32 c18 18 33 28 33 24 0 -5 11 -1 25 8 13 9 35 17 47 17 17 1 18 3 6 6 -10 2 -18 11 -18 20 0 12 -9 14 -52 9 -50 -6 -52 -6 -28 8 25 15 9 21 -20 8z"/>
<path d="M2195 1471 c-12 -12 -17 -12 -30 -1 -12 10 -19 10 -27 2 -7 -7 -22 -12 -33 -12 -14 0 -27 -11 -38 -35 l-16 -34 34 -26 c27 -21 38 -24 54 -16 30 16 32 14 27 -28 -3 -22 0 -41 5 -43 6 -2 7 -12 1 -28 -6 -16 -5 -32 4 -49 8 -15 10 -31 5 -40 -5 -9 -8 -42 -7 -73 1 -49 -1 -57 -15 -53 -9 3 -36 -2 -58 -11 -40 -16 -42 -18 -35 -48 10 -48 23 -66 47 -67 12 -1 73 -2 136 -3 135 -2 161 10 157 68 -2 18 -7 39 -12 47 -5 8 -9 52 -9 99 0 56 -6 95 -16 115 -14 28 -14 32 9 69 19 31 21 40 10 48 -10 8 -10 9 3 5 23 -7 79 23 79 42 0 9 5 22 12 29 9 9 9 12 -4 12 -8 0 -26 11 -39 24 -23 23 -31 24 -127 23 -73 -2 -107 -6 -117 -16z"/>
<path d="M420 1420 c-14 -11 -31 -20 -39 -20 -9 0 -11 -7 -7 -22 3 -13 6 -26 6 -30 0 -5 13 -8 29 -8 17 0 33 -4 36 -10 3 -5 18 -10 33 -10 24 0 25 1 7 13 -14 11 -17 22 -12 45 4 19 2 32 -3 32 -6 0 -10 7 -10 15 0 20 -10 19 -40 -5z"/>
<path d="M2128 1258 c9 -9 15 -9 24 0 9 9 7 12 -12 12 -19 0 -21 -3 -12 -12z"/>
<path d="M2296 835 c-14 -11 -22 -12 -27 -4 -9 15 -79 -26 -79 -46 0 -7 -5 -15 -12 -17 -16 -6 9 -95 29 -102 8 -3 12 -10 9 -15 -3 -5 4 -11 15 -14 13 -4 18 -10 13 -18 -4 -7 -3 -10 4 -5 13 8 36 -30 27 -44 -3 -6 5 -10 19 -10 14 0 26 5 26 10 0 5 3 9 8 7 4 -1 8 2 10 7 1 5 -10 11 -24 12 -27 3 -47 21 -38 35 2 4 14 6 25 4 13 -3 31 6 49 25 16 17 33 30 38 30 5 0 9 20 8 45 0 25 -5 45 -11 45 -5 0 -23 16 -40 35 -28 32 -32 33 -49 20z"/>
<path d="M2535 840 c7 -11 45 -33 45 -26 0 2 -7 12 -16 20 -17 18 -39 22 -29 6z"/>
<path d="M2590 801 c0 -5 9 -12 20 -16 11 -3 28 -17 39 -31 21 -27 36 -32 28 -9 -4 8 -2 17 3 20 6 4 10 13 10 20 0 11 -6 12 -24 5 -18 -6 -28 -5 -36 6 -14 16 -40 19 -40 5z"/>
<path d="M2412 741 c-10 -6 -9 -11 3 -21 34 -29 57 -70 46 -84 -6 -7 -8 -15 -5 -19 3 -3 -10 -16 -30 -29 -20 -13 -36 -26 -36 -30 0 -14 31 -8 36 7 4 8 14 15 24 15 12 0 20 11 24 35 6 29 11 35 31 35 14 0 25 5 25 10 0 6 -5 10 -11 10 -7 0 -21 10 -33 23 -39 42 -61 56 -74 48z"/>
</g>


</svg>